<?xml version="1.0" encoding="UTF-8"?>
<svg width="30px" height="35px" viewBox="0 0 30 35" version="1.1" xmlns="http://www.w3.org/2000/svg" xmlns:xlink="http://www.w3.org/1999/xlink">
    <title>icons/states/Delaware</title>
    <g id="Find-Unit---FLOW" stroke="none" stroke-width="1" fill="none" fill-rule="evenodd">
        <g id="Mobile-/-Find-Units---US-Map" transform="translate(-36.000000, -185.000000)" fill="#1B3C92">
            <g id="Group" transform="translate(0.000000, 116.000000)">
                <g transform="translate(34.000000, 69.000000)" id="icons/states/Delaware">
                    <path d="M22.57667,21.1943546 C21.337848,19.0904372 21.6892553,16.3870504 19.9811489,14.521451 C19.1493366,13.6259213 15.2627272,11.3088826 16.6616842,9.6637536 C17.1687783,9.07583258 17.8526881,9.34879591 18.5454943,9.92516849 C18.539934,9.89787215 18.5254774,9.87057582 18.5199172,9.84642906 C18.0673134,8.84486361 17.3100084,8.56035183 17.3100084,7.55983624 L17.3100084,5.98714751 C17.3100084,4.90054348 15.8131912,4.11314926 15.8432165,2.82707203 C15.8665695,2.04177752 16.2424419,1.48325255 16.7595444,0.979320248 C16.5059974,0.870134916 16.2424419,0.768298596 15.9488611,0.700057764 C15.0380934,0.270665447 13.8281847,0.270665447 12.7661784,0.126834769 C11.8598589,-0.0148961914 10.8000767,-0.157677011 9.889309,0.413446266 C8.98298949,0.985619402 7.92431935,1.41396186 6.71552266,1.98508514 C6.1061201,2.12891581 5.50450188,2.27169663 5.34992714,2.84386977 C5.19868855,3.27326209 5.19868855,3.70160454 5.04744996,4.12784728 C4.74497277,4.55828946 4.14001841,4.84280124 3.68630263,5.13046259 C3.3070941,5.48321521 3.04909886,5.89056049 2.8,6.32625196 L8.98298949,5.27219355 L15.9488611,35 L31.8,30.5118529 C31.7744229,30.4488614 31.7499578,30.392169 31.7332771,30.3354766 C30.9937649,28.2662046 29.9173019,27.3559769 28.0679653,26.1223926 C26.0584937,24.7775233 23.8010354,23.2688759 22.57667,21.1943546 Z" id="Fill-194"></path>
                </g>
            </g>
        </g>
    </g>
</svg>