<?xml version="1.0" encoding="UTF-8"?>
<svg width="50px" height="50px" viewBox="0 0 50 50" version="1.1" xmlns="http://www.w3.org/2000/svg" xmlns:xlink="http://www.w3.org/1999/xlink">
    <title>icons/states/Delaware</title>
    <g id="Icons" stroke="none" stroke-width="1" fill="none" fill-rule="evenodd">
        <g id="icons/states/Delaware" fill="#1B3C92">
            <path d="M32.2523857,30.2776494 C30.48264,27.2720532 30.9846504,23.410072 28.5444984,20.74493 C27.3561952,19.4656019 21.803896,16.1555466 23.802406,13.8053623 C24.5268261,12.9654751 25.5038401,13.3554227 26.4935633,14.1788121 C26.4856201,14.1398174 26.4649677,14.1008226 26.4570245,14.0663272 C25.8104478,12.6355194 24.7285835,12.229074 24.7285835,10.7997661 L24.7285835,8.55306787 C24.7285835,7.0007764 22.5902731,5.87592751 22.6331664,4.03867432 C22.6665279,2.91682503 23.2034884,2.11893222 23.9422063,1.39902893 C23.5799963,1.24304988 23.2034884,1.09756942 22.7840873,1.00008252 C21.4829906,0.386664924 19.7545495,0.386664924 18.2373977,0.181192527 C16.9426555,-0.0212802734 15.428681,-0.225252872 14.1275843,0.590637523 C12.8328421,1.40802772 11.3204562,2.01994551 9.5936038,2.83583591 C8.72302872,3.04130831 7.86357411,3.24528091 7.64275306,4.0626711 C7.42669793,4.67608869 7.42669793,5.28800649 7.2106428,5.89692469 C6.77853253,6.51184208 5.91431201,6.91828748 5.26614662,7.32923228 C4.72442015,7.83316458 4.35585551,8.41508641 4,9.03750279 L12.8328421,7.53170508 L22.7840873,50 L45.4285714,43.5883613 C45.3920327,43.4983734 45.3570826,43.4173843 45.333253,43.3363952 C44.2768069,40.3802923 42.7390028,39.079967 40.0970933,37.3177037 C37.2264196,35.3964618 34.0014791,33.2412513 32.2523857,30.2776494 Z" id="Fill-194"></path>
        </g>
    </g>
</svg>