<?xml version="1.0" encoding="UTF-8"?>
<svg width="35px" height="27px" viewBox="0 0 35 27" version="1.1" xmlns="http://www.w3.org/2000/svg" xmlns:xlink="http://www.w3.org/1999/xlink">
    <title>icons/states/Florida</title>
    <g id="Find-Unit---FLOW" stroke="none" stroke-width="1" fill="none" fill-rule="evenodd">
        <g id="Mobile-/-Find-Units---US-Map" transform="translate(-34.000000, -248.000000)" fill="#1C3B92">
            <g id="Group" transform="translate(0.000000, 116.000000)">
                <g id="Group-6-Copy" transform="translate(18.000000, 120.000000)">
                    <g id="icons/states/Florida" transform="translate(16.000000, 8.000000)">
                        <path d="M34.7223751,24.2102109 C34.6988503,23.7831673 34.5642546,23.3925252 34.4681389,22.9776155 C34.2900223,22.2123412 33.9695804,21.4490893 33.7277787,20.6964545 C33.4963951,19.9749969 33.262323,19.0912492 32.829466,18.4771423 C32.5888406,18.1353726 32.2915875,17.8230949 31.9630799,17.5639027 C31.676581,17.3357192 31.2375068,17.2175828 31.2494372,16.7773942 C31.6379331,17.0460239 32.0151706,17.727878 32.4288717,17.8851123 C32.9173481,18.0708274 32.5165857,17.5389609 32.4377775,17.2900488 C32.3154484,16.9058107 32.3463667,16.6676842 32.0538186,16.3717534 C31.5465223,15.8606156 31.3437046,15.1079808 31.0335129,14.474999 C30.7791086,13.9552664 30.2738287,13.4073901 29.8676892,12.9791668 C29.5968175,12.6918308 29.2948595,12.5908841 29.0550742,12.2754044 C28.8117602,11.9540262 28.5877701,11.786849 28.4214159,11.4127224 C28.7243822,11.410026 29.4869229,11.7932529 29.4242461,11.2391411 C29.3819013,10.8714185 28.8083995,10.7104767 28.5565157,10.5250986 C28.1024864,10.1910811 27.3480113,9.7143225 27.1046972,9.1866692 C26.9615318,8.87607673 26.9141461,8.43352879 26.8094606,8.09748897 C26.7002381,7.74392249 26.6251267,7.37872776 26.5179206,7.02448718 C26.3157751,6.35982266 26.1154779,5.58292016 25.8180568,4.95297188 C25.6881661,4.67894944 25.4656883,4.46458502 25.3240352,4.2 C25.1538162,4.3639753 24.9783882,4.52811913 24.8032962,4.682657 C24.5747692,4.91235724 24.2541593,4.72866446 23.9800949,4.63664954 C23.6598211,4.49896422 23.4309581,4.59114766 23.2935058,4.91235724 C23.202095,5.23356682 23.2935058,5.46276148 23.2935058,5.73813213 C23.2479685,6.05934171 23.1563896,6.37987719 22.7902424,6.28836785 C22.4699685,6.24286597 22.4699685,5.87564893 22.1957362,5.82964147 C22.05862,5.78397107 21.8757984,5.82964147 21.7381781,5.82964147 L11.4907596,6.65575342 C11.4136318,6.65929245 11.3386884,6.65844982 11.2654253,6.64564189 C11.2936551,6.62238537 11.3259177,6.60317346 11.3596927,6.58648944 C11.3326391,6.59441014 11.3047454,6.60317346 11.2775238,6.61345352 C11.3770002,6.56744606 11.4721078,6.53340391 11.5783056,6.52346091 C11.2506383,6.50694541 10.9826232,5.84447172 10.8876837,5.41186679 C7.98152627,5.73324489 5.07671315,6.054623 2.17139593,6.37583258 C1.66393162,6.43127747 0.470382268,6.79242759 0.0187054207,6.50863066 C-0.0601027792,6.84989478 0.123054871,7.10352564 0.326040597,7.35530272 C0.432574496,7.48624702 0.59405569,7.57674521 0.650011193,7.75487665 C0.707479006,7.93654713 0.591199103,8.17147166 0.657236678,8.35516444 C0.778053513,8.6954174 1.04422023,8.77546701 1.10521677,9.17925408 C1.13395067,9.37288987 1.15041806,9.63225059 1.13563102,9.88200537 C1.36180551,9.90543041 1.58798,9.66983178 1.76828107,9.54444881 C2.09124345,9.31963581 2.29977432,9.25172004 2.70137687,9.34963335 C2.36177907,9.94469685 3.76721997,9.52860742 3.84468389,9.25441645 C3.71294481,9.28829007 3.54289386,9.31744498 3.39754398,9.28609924 C3.52659451,8.96910279 4.05976811,8.37791538 4.38928384,8.25775671 C4.8386082,8.09260173 5.43697921,8.30696615 5.84883187,8.47161555 C5.71171568,8.43453995 5.48470102,8.47313228 5.49209454,8.65800474 C5.50184054,8.88972729 5.76111784,8.73889698 5.89453726,8.71934802 C6.23211866,8.66845332 6.58263871,8.61401959 6.9202201,8.60542479 C7.30233065,8.59548179 7.48481616,8.74462684 7.78307747,8.95966537 C7.98455089,9.10510286 8.37875992,9.63444142 8.55469209,9.65500153 C8.62039359,9.30194063 8.33305453,9.01831224 8.4594165,8.66693659 C8.65954564,9.01730108 9.34865529,9.34845367 9.28732269,9.79268686 C9.19456762,9.79420359 9.15608771,9.84610944 9.07055813,9.85554686 C9.13256287,10.0134552 9.5160177,10.3023079 9.66136758,10.382189 C9.86065654,10.4913935 10.2679723,10.4588681 10.3950064,10.696152 C10.5096059,10.9125387 10.3350181,11.2915525 10.4454167,11.5343978 C10.6075701,11.5391165 10.7115835,11.4042961 10.8145886,11.2740259 C11.1711579,11.4614262 11.550916,10.6263824 11.9957034,10.9236614 C12.2544766,11.0967371 11.9789,11.4280582 12.3737811,11.40042 C12.6433085,11.3815452 12.7466498,11.0967371 12.733207,10.8601273 C13.243864,11.1014558 13.2319335,10.9555127 13.3853491,10.5097628 C13.540781,10.0609794 13.808124,10.1010885 14.2272021,10.0683946 C14.2305628,9.85891737 14.007413,9.90964355 14.0020358,9.7143225 C14.0000194,9.62871156 14.192587,9.45715261 14.2527434,9.39462965 C14.435901,9.20672373 14.8146509,9.1681314 14.931939,8.9797199 C15.71498,9.27969527 16.4467704,9.77718251 17.198893,10.1472645 C17.558655,10.3240477 17.889851,10.5589723 18.1348454,10.8865858 C18.3282532,11.1449354 18.3343024,11.4503036 18.6026536,11.6392206 C18.7345607,11.7319097 18.867644,11.7042715 18.9866125,11.8377437 C19.1131425,11.9769457 19.0931464,12.2172631 19.2263978,12.3552854 C19.5199541,12.6606536 19.9640694,12.4171343 20.3263519,12.560718 C20.8170127,12.7548594 21.1386309,13.5376603 21.475204,13.9298191 C21.898315,14.422082 21.8579867,14.9291752 21.7948057,15.5367096 C21.7272559,16.1823307 21.1243479,16.7010522 21.4162239,17.4012756 C21.5395613,17.6967008 21.6019021,17.7506289 21.5343522,18.1257667 C21.4782287,18.4380444 21.4177362,18.6170185 21.5745125,18.9058712 C21.6329885,19.0144016 21.8870567,19.397123 22.0187958,19.4330189 C22.3859513,19.5336286 22.2745444,19.1530981 22.2937003,18.8915465 C22.666737,18.970585 22.5618834,18.3847904 23.0112078,18.478322 C23.0715322,18.9303074 23.0112078,19.539527 22.808054,19.9401121 C22.5573465,20.4359141 22.525924,20.6287072 22.9871788,21.0055302 C23.3657607,21.3151115 23.3408916,21.5766631 23.6001689,21.9629235 C23.9938738,22.5493922 24.2106383,23.9756234 25.2085955,23.6464932 C24.982421,23.1987209 25.1783493,22.3773277 25.439979,23.1586119 C25.5480253,23.4815067 25.4693851,24.547936 25.9835708,24.5204663 C26.0075997,24.3853089 26.0887604,23.9816903 26.3129185,24.0678069 C26.5106951,24.1431378 26.3749232,24.5103548 26.3532468,24.6653983 C26.3440049,24.7331455 26.2885535,24.888189 26.3011561,24.9522286 C26.3246809,25.0723873 26.4485224,25.0956438 26.4713751,25.1856364 C26.5222895,25.3841595 26.4633094,25.5973442 26.5288429,25.7985636 C26.7432549,26.459015 27.3231421,26.8976869 27.7302898,27.4329238 C28.159282,27.9954619 28.6381805,27.9492859 29.3424132,27.9356354 C30.0261458,27.9229959 30.2635786,28.0654 30.6502261,28.6147931 C31.0938373,29.2472692 31.185248,29.4414106 31.9190549,29.1513782 C32.8672738,28.7782628 32.663784,29.6584714 31.977867,29.8992943 C31.6488553,30.0150714 30.3791864,29.8728358 30.3885963,30.4581249 C30.3975021,31.0530198 31.5465223,30.7842217 31.8373901,30.6702985 C32.4161011,30.4421149 33.0136319,30.3659414 33.5886461,30.1616885 C34.7902611,29.7351505 34.2120542,27.3228767 34.5577013,26.3213297 C34.7438836,26.5225491 34.824036,27.3238878 34.9722425,26.699838 C35.0666779,26.3081847 34.8962909,25.7598028 34.8168106,25.3802834 C34.7343056,24.9887987 34.7445557,24.607594 34.7223751,24.2102109" id="Fill-182"></path>
                    </g>
                </g>
            </g>
        </g>
    </g>
</svg>