<?xml version="1.0" encoding="UTF-8"?>
<svg width="50px" height="50px" viewBox="0 0 50 50" version="1.1" xmlns="http://www.w3.org/2000/svg" xmlns:xlink="http://www.w3.org/1999/xlink">
    <title>icons/states/Florida</title>
    <g id="Icons" stroke="none" stroke-width="1" fill="none" fill-rule="evenodd">
        <g id="icons/states/Florida" fill="#1C3B92">
            <path d="M49.6033931,34.5860156 C49.5697862,33.9759533 49.3775066,33.4178932 49.2401984,32.825165 C48.9857461,31.7319161 48.527972,30.6415562 48.182541,29.5663635 C47.851993,28.5357098 47.5176043,27.2732131 46.8992372,26.3959176 C46.5554865,25.9076752 46.1308392,25.4615641 45.6615428,25.0912896 C45.2522586,24.7653131 44.6250097,24.5965469 44.6420532,23.9677061 C45.1970473,24.3514627 45.7359581,25.32554 46.3269596,25.5501604 C47.024783,25.8154677 46.4522653,25.0556585 46.3396822,24.7000697 C46.1649262,24.1511581 46.2090953,23.8109774 45.7911694,23.3882191 C45.0664604,22.6580223 44.7767209,21.5828297 44.3335898,20.67857 C43.9701551,19.9360949 43.2483267,19.1534144 42.6681274,18.5416668 C42.2811679,18.1311869 41.8497992,17.9869772 41.5072488,17.5362919 C41.1596574,17.0771803 40.8396716,16.8383557 40.6020227,16.3038891 C41.0348317,16.3000371 42.1241756,16.8475042 42.0346372,16.0559159 C41.9741448,15.5305979 41.1548564,15.300681 40.7950224,15.0358552 C40.1464091,14.5586873 39.0685875,13.8776036 38.7209961,13.1238131 C38.516474,12.6801096 38.4487801,12.0478983 38.2992294,11.5678414 C38.1431973,11.0627464 38.0358952,10.5410397 37.8827438,10.0349817 C37.5939644,9.08546094 37.3078256,7.97560022 36.8829382,7.07567412 C36.6973801,6.68421348 36.3795548,6.3779786 36.1771932,6 C35.9340232,6.23425043 35.6834117,6.46874161 35.4332802,6.68951 C35.1068131,7.0176532 34.648799,6.75523494 34.2572785,6.62378506 C33.7997444,6.42709174 33.4727972,6.55878237 33.2764369,7.0176532 C33.14585,7.47652403 33.2764369,7.80394498 33.2764369,8.19733162 C33.2113835,8.65620245 33.0805566,9.11411027 32.5574891,8.98338265 C32.099955,8.91837996 32.099955,8.39378419 31.7081945,8.32805925 C31.5123142,8.26281581 31.2511406,8.32805925 31.0545401,8.32805925 L16.4153709,9.50821917 C16.3051882,9.51327493 16.1981262,9.51207118 16.0934647,9.49377412 C16.133793,9.46055053 16.1798825,9.43310495 16.2281324,9.40927063 C16.1894845,9.42058591 16.1496363,9.43310495 16.1107483,9.44779074 C16.2528575,9.3820658 16.3887254,9.33343416 16.5404366,9.31922987 C16.0723404,9.2956363 15.6894617,8.34924531 15.5538338,7.73123827 C11.4021804,8.19034985 7.25244736,8.64946143 3.10199419,9.10833226 C2.37704516,9.18753924 0.671974668,9.70346798 0.0267220296,9.29804381 C-0.0858611131,9.78556397 0.175792673,10.1478938 0.465772281,10.5075753 C0.617963566,10.6946386 0.848650986,10.8239217 0.928587418,11.0783952 C1.01068429,11.3379245 0.844570147,11.6735309 0.93890954,11.9359492 C1.11150502,12.4220249 1.49174318,12.5363814 1.57888109,13.1132201 C1.61992953,13.3898427 1.64345437,13.760358 1.62233002,14.1171505 C1.94543644,14.1506149 2.26854286,13.8140454 2.52611581,13.6349269 C2.98749065,13.3137654 3.28539189,13.2167429 3.85910982,13.3566191 C3.37397009,14.2067098 5.38174281,13.6122963 5.49240556,13.2205949 C5.30420687,13.2689858 5.06127694,13.3106357 4.85363425,13.2658561 C5.03799215,12.813004 5.79966872,11.9684505 6.27040549,11.7967953 C6.91229744,11.5608596 7.76711315,11.8670945 8.3554741,12.1023079 C8.15959383,12.0493428 7.83528717,12.1044747 7.84584934,12.3685782 C7.8597722,12.6996104 8.23016834,12.4841385 8.42076752,12.4562115 C8.90302665,12.3835047 9.40376959,12.3057423 9.88602872,12.293464 C10.4319009,12.2792597 10.6925945,12.4923241 11.1186821,12.799522 C11.4065013,13.0072898 11.969657,13.7634877 12.2209887,13.7928593 C12.314848,13.2884866 11.9043636,12.8833032 12.0848807,12.381338 C12.3707795,12.8818587 13.3552218,13.3549338 13.2676038,13.9895527 C13.1350966,13.9917194 13.0801253,14.0658706 12.9579402,14.0793527 C13.0465184,14.3049361 13.594311,14.7175828 13.8019537,14.8316986 C14.0866522,14.987705 14.6685318,14.9412402 14.8500091,15.2802171 C15.0137228,15.589341 14.7643115,16.1307894 14.9220239,16.4777111 C15.1536715,16.4844521 15.3022621,16.2918516 15.4494123,16.1057513 C15.958797,16.3734661 16.5013086,15.1805464 17.1367192,15.6052306 C17.5063952,15.8524816 17.1127142,16.3257974 17.6768302,16.2863143 C18.0618694,16.2593502 18.2094997,15.8524816 18.1902958,15.5144676 C18.9198057,15.8592226 18.9027622,15.6507325 19.1219273,15.0139469 C19.3439729,14.3728278 19.7258914,14.4301264 20.3245745,14.3834208 C20.3293755,14.0841677 20.0105899,14.1566336 20.0029084,13.8776036 C20.0000278,13.7553022 20.2751243,13.510218 20.361062,13.4208995 C20.6227158,13.1524625 21.163787,13.0973306 21.3313414,12.8281713 C22.4499714,13.2567075 23.4953863,13.9674036 24.5698471,14.4960921 C25.0837928,14.7486396 25.55693,15.0842461 25.906922,15.5522654 C26.1832188,15.9213363 26.1918606,16.3575765 26.5752194,16.627458 C26.7636581,16.7598709 26.9537772,16.7203878 27.1237321,16.9110624 C27.3044893,17.1099224 27.2759234,17.4532329 27.4662825,17.6504078 C27.8856487,18.086648 28.5200992,17.7387633 29.0376455,17.9438829 C29.7385896,18.2212277 30.1980441,19.3395147 30.6788629,19.8997415 C31.2833072,20.6029743 31.2256953,21.3273932 31.1354368,22.1952994 C31.0389369,23.1176154 30.1776399,23.858646 30.5946056,24.8589651 C30.7708018,25.2810011 30.8598601,25.3580413 30.7633603,25.8939524 C30.6831838,26.3400634 30.596766,26.5957407 30.8207321,27.0083874 C30.9042693,27.1634308 31.2672239,27.7101757 31.4554225,27.7614556 C31.9799304,27.9051837 31.8207776,27.3615687 31.8481433,26.9879236 C32.3810528,27.1008356 32.231262,26.2639862 32.873154,26.3976029 C32.9593317,27.0432962 32.873154,27.91361 32.5829343,28.4858744 C32.2247807,29.194163 32.1798915,29.4695818 32.8388269,30.0079003 C33.3796581,30.4501594 33.3441308,30.8238044 33.7145269,31.375605 C34.2769625,32.2134175 34.5866262,34.2508906 36.0122793,33.7807045 C35.6891728,33.1410299 35.9690704,31.967611 36.3428272,33.0837312 C36.4971789,33.5450096 36.3848358,35.06848 37.1193868,35.0292376 C37.1537139,34.8361556 37.2696577,34.2595576 37.5898836,34.3825812 C37.8724216,34.4901968 37.6784618,35.0147926 37.6474954,35.2362832 C37.6342927,35.333065 37.5550764,35.5545556 37.5730801,35.6460409 C37.606687,35.8176962 37.7836034,35.8509198 37.8162501,35.9794806 C37.888985,36.2630849 37.8047277,36.5676346 37.898347,36.8550909 C38.2046499,37.7985929 39.0330602,38.425267 39.6146998,39.1898912 C40.2275458,39.993517 40.9116864,39.9275513 41.9177332,39.9080505 C42.894494,39.8899942 43.2336837,40.0934285 43.7860372,40.8782758 C44.4197675,41.7818132 44.5503544,42.059158 45.5986498,41.644826 C46.9532483,41.111804 46.6625485,42.3692449 45.6826671,42.7132776 C45.2126505,42.8786734 43.3988376,42.6754798 43.4122804,43.511607 C43.425003,44.3614569 45.0664604,43.9774596 45.4819859,43.8147121 C46.3087158,43.4887356 47.1623313,43.3799163 47.9837801,43.0881265 C49.700373,42.4787865 48.8743632,39.032681 49.3681447,37.6018996 C49.6341194,37.8893559 49.7486229,39.0341255 49.9603464,38.1426256 C50.0952542,37.583121 49.8518441,36.7997183 49.7383008,36.2575477 C49.6204366,35.6982838 49.6350796,35.1537057 49.6033931,34.5860156" id="Fill-182"></path>
        </g>
    </g>
</svg>