<?xml version="1.0" encoding="UTF-8"?>
<svg width="50px" height="50px" viewBox="0 0 50 50" version="1.1" xmlns="http://www.w3.org/2000/svg" xmlns:xlink="http://www.w3.org/1999/xlink">
    <title>icons/states/Georgia</title>
    <g id="Icons" stroke="none" stroke-width="1" fill="none" fill-rule="evenodd">
        <g id="icons/states/Georgia" fill="#1B3C92">
            <path d="M49.5714286,30.1693973 C49.5453836,30.2001695 49.5169345,30.2301527 49.4892868,30.2573742 C49.331815,30.414786 49.0673586,30.3934821 48.9166986,30.5721977 C48.7776586,30.7378942 48.8273444,30.997091 48.7183563,31.1422727 C48.353727,31.6302885 48.2190946,31.617664 47.5968206,31.6744743 C47.1187956,31.7206326 46.6976688,31.3809547 46.3514713,31.9983716 C45.9680095,32.6749659 46.5169569,32.5234719 46.7369366,32.9471816 C47.0314449,33.5168622 46.5734544,34.6483329 45.9151182,35.031013 C45.9347521,35.4006742 46.228459,35.6863035 46.202414,36.0705617 C45.7115669,36.2106147 44.956664,36.6591789 45.0384051,37.2351717 C45.1249545,37.8596899 45.8189522,37.9413547 45.745225,38.7694429 C45.6731005,39.6152844 45.1321669,39.7766412 44.6080624,40.2958238 C44.2450358,40.6560165 43.9072529,40.5917105 44.4894577,41.0055573 C44.7018242,41.1554733 45.3032622,41.1531062 45.5504889,41.1531062 C45.2659979,42.0462895 44.9967332,42.893709 45.3128788,43.8196371 C45.3625646,43.9691586 45.4286787,44.1103951 45.5028066,44.2468975 C45.0965054,44.6307612 44.6781834,45.0150194 44.2606628,45.3767902 C43.716123,45.914515 42.9516035,45.484493 42.2980756,45.268693 C41.5339568,44.9467682 40.988215,45.1625683 40.66085,45.914515 C40.4428738,46.6664617 40.66085,47.203003 40.66085,47.8476415 C40.5518619,48.5995882 40.333485,49.3499569 39.4607788,49.1357349 C38.69666,49.0292157 38.69666,48.1695662 38.0431321,48.0618634 C37.7157671,47.9549497 37.2798147,48.0618634 36.952049,48.0618634 L12.515875,49.9957789 C12.3319576,50.0040638 12.1532492,50.0020912 11.9789484,49.972108 C12.0462646,49.9176648 12.1227966,49.8726901 12.2033356,49.833633 C12.4766073,49.7531518 12.7382589,49.70581 13.0263561,49.6734597 C12.9754682,49.6710926 12.9249811,49.6734597 12.8760967,49.6746432 C12.8664801,49.6746432 12.858867,49.6746432 12.8516546,49.6770103 C12.84324,49.6746432 12.83162,49.6770103 12.8224041,49.6770103 C12.7899481,49.6770103 12.757492,49.682139 12.7246353,49.6860842 C11.9436875,49.6474216 11.3041838,48.0961863 11.0781938,47.0838593 C11.0184907,46.8266351 10.9880382,46.6057063 10.9880382,46.4510562 C10.9880382,45.914515 10.8794508,45.914515 10.5520858,45.484493 C10.0063439,44.9467682 10.0063439,44.7325463 10.1149313,44.0867242 C10.1149313,43.8725022 10.2243201,43.4428747 10.2243201,43.335961 C10.1149313,43.0140363 9.89735579,42.7986308 9.89735579,42.4763115 C9.787967,41.9397703 9.787967,41.8320675 9.6789789,41.4020455 C9.4610027,40.9736016 9.24342719,40.4354823 9.13443908,40.0070384 C9.02424891,39.5770163 9.24342719,38.9327724 9.4610027,38.6104531 C9.6789789,37.9650256 9.787967,37.7508036 9.787967,37.1065596 C9.787967,36.5700184 9.787967,36.0322936 9.6789789,35.4957524 C9.57039149,34.9580277 9.35121321,34.6357084 9.4610027,34.0983782 C9.57039149,33.3464314 10.4422963,31.843327 9.787967,31.0913802 C9.4610027,30.8755802 9.13443908,30.9832829 9.02424891,30.554839 C9.02424891,30.3394335 9.24342719,30.0167197 9.13443908,29.8013142 C9.02424891,29.1582538 8.58789582,29.3724757 8.15114203,29.264773 C7.27923722,29.050551 6.95227292,27.976285 7.17024912,27.2243383 L1,3.34904296 C5.17841145,2.90915806 9.22940298,2.43652837 12.9209742,1.93746613 C17.4415762,1.32833404 21.4232481,0.678961354 24.4484693,0 C24.0966621,0.403983978 23.7929379,0.896339452 23.6430793,1.33819693 C23.5340912,1.76821894 23.5340912,1.98362446 23.4251031,2.30554919 C23.0981388,2.84209041 22.9875479,3.16440966 23.2059248,3.70213443 C23.4251031,4.34637841 23.6430793,5.4206444 24.5161862,5.63526089 C25.0611267,5.74256913 25.4970791,5.52755813 26.042821,5.74256913 C26.370186,5.95718562 26.4791741,6.17219662 26.6983523,6.49491039 C27.0245153,6.81722963 27.133904,6.60221863 27.4604677,6.70913236 C27.8968207,6.92414336 28.3339752,7.6760901 28.5519514,8.10532308 C29.0628331,9.11291593 30.0028555,9.3902604 30.3458475,10.4775454 C30.7974269,11.9143712 30.8659451,11.61809 32.1497608,12.4035706 C32.7952749,12.7976917 33.193963,13.4865159 33.8142335,13.879848 C34.5314714,14.3374861 35.1737799,14.8590357 35.8874116,15.385714 C37.1399733,16.3140092 37.5338531,17.4648113 39.1338145,18.0964307 C39.6791557,18.3114418 40.0069214,18.6321829 40.4428738,18.9541077 C40.8796275,19.3833406 41.424568,19.5983517 41.9699092,19.9210654 C42.2980756,20.1352874 42.5160518,20.8872341 42.734028,21.3168616 C42.8426154,21.5322671 42.8426154,21.8545864 42.9516035,22.1765111 C42.9516035,22.3911276 43.1695797,22.6053496 43.2789685,22.8207551 C43.4969447,23.2507771 43.4969447,23.7873183 43.8243097,24.1096376 C44.0426866,24.3238596 44.3696509,24.3238596 44.4798411,24.6473623 C44.6978173,24.8615843 44.8068054,25.0773844 44.9157935,25.3981255 C45.1337697,25.6135311 45.460734,25.7216283 45.6787102,25.9358503 C45.7876983,26.1500723 45.8974878,26.4723915 45.8974878,26.6877971 C46.0068766,27.2243383 45.7876983,27.6543603 46.4436304,27.8685823 C47.0963569,28.0843823 47.424924,28.2986043 47.9698645,28.8351455 C48.0796539,29.050551 48.2976301,29.1582538 48.5156063,29.264773 C48.9102875,29.542512 49.2464677,29.8494451 49.5714286,30.1693973" id="Fill-77"></path>
        </g>
    </g>
</svg>