<?xml version="1.0" encoding="UTF-8"?>
<svg width="35px" height="35px" viewBox="0 0 35 35" version="1.1" xmlns="http://www.w3.org/2000/svg" xmlns:xlink="http://www.w3.org/1999/xlink">
    <title>icons/states/Georgia</title>
    <g id="Find-Unit---FLOW" stroke="none" stroke-width="1" fill="none" fill-rule="evenodd">
        <g id="Mobile-/-Find-Units---US-Map" transform="translate(-34.000000, -303.000000)" fill="#1B3C92">
            <g id="Group" transform="translate(0.000000, 116.000000)">
                <g id="Group-6-Copy-2" transform="translate(18.000000, 179.000000)">
                    <g id="icons/states/Georgia" transform="translate(16.000000, 8.000000)">
                        <path d="M34.7,21.1185781 C34.6817685,21.1401186 34.6618542,21.1611069 34.6425008,21.180162 C34.5322705,21.2903502 34.347151,21.2754375 34.241689,21.4005384 C34.144361,21.516526 34.1791411,21.6979637 34.1028494,21.7995909 C33.8476089,22.141202 33.7533662,22.1323648 33.3177744,22.172132 C32.9831569,22.2044428 32.6883682,21.9666683 32.4460299,22.3988601 C32.1776066,22.8724761 32.5618698,22.7664303 32.7158556,23.0630271 C32.9220114,23.4618035 32.6014181,24.253833 32.1405827,24.5217091 C32.1543265,24.7804719 32.3599213,24.9804124 32.3416898,25.2493932 C31.9980968,25.3474303 31.4696648,25.6614253 31.5268836,26.0646202 C31.5874681,26.5017829 32.0732666,26.5589483 32.0216575,27.13861 C31.9711704,27.7306991 31.5925168,27.8436489 31.2256437,28.2070766 C30.9715251,28.4592116 30.735077,28.4141973 31.1426204,28.7038901 C31.2912769,28.8088313 31.7122836,28.8071743 31.8853422,28.8071743 C31.6861985,29.4324027 31.4977132,30.0255963 31.7190152,30.673746 C31.7537952,30.778411 31.8000751,30.8772766 31.8519646,30.9728283 C31.5675538,31.2415329 31.2747284,31.5105136 30.982464,31.7637532 C30.6012861,32.1401605 30.0661225,31.8391451 29.6086529,31.6880851 C29.0737698,31.4627378 28.6917505,31.6137978 28.462595,32.1401605 C28.3100116,32.6665232 28.462595,33.0421021 28.462595,33.493349 C28.3863033,34.0197117 28.2334395,34.5449698 27.6225451,34.3950144 C27.087662,34.320451 27.087662,33.7186963 26.6301925,33.6433044 C26.401037,33.5684648 26.0958703,33.6433044 25.8664343,33.6433044 L8.76111253,34.9970452 C8.63237034,35.0028446 8.50727444,35.0014638 8.38526386,34.9804756 C8.43238519,34.9423654 8.48595765,34.910883 8.54233495,34.8835431 C8.73362509,34.8272063 8.9167812,34.794067 9.11844925,34.7714218 C9.08282777,34.7697648 9.04748678,34.7714218 9.01326772,34.7722503 C9.0065361,34.7722503 9.00120691,34.7722503 8.99615819,34.7739072 C8.99026803,34.7722503 8.98213399,34.7739072 8.97568285,34.7739072 C8.95296364,34.7739072 8.93024443,34.7774973 8.90724474,34.7802589 C8.36058126,34.7531952 7.91292867,33.6673304 7.75473564,32.9587015 C7.71294352,32.7786446 7.69162673,32.6239944 7.69162673,32.5157394 C7.69162673,32.1401605 7.61561554,32.1401605 7.38646004,31.8391451 C7.00444072,31.4627378 7.00444072,31.3127824 7.08045191,30.8607069 C7.08045191,30.7107516 7.15702406,30.4100123 7.15702406,30.3351727 C7.08045191,30.1098254 6.92814905,29.9590415 6.92814905,29.7334181 C6.8515769,29.3578392 6.8515769,29.2824473 6.77528523,28.9814319 C6.62270189,28.6815211 6.47039903,28.3048376 6.39410736,28.0049268 C6.31697424,27.7039114 6.47039903,27.2529407 6.62270189,27.0273172 C6.77528523,26.5755179 6.8515769,26.4255625 6.8515769,25.9745917 C6.8515769,25.5990129 6.8515769,25.2226056 6.77528523,24.8470267 C6.69927404,24.4706194 6.54584925,24.2449959 6.62270189,23.8688647 C6.69927404,23.342502 7.3096074,22.2903289 6.8515769,21.7639662 C6.62270189,21.6129061 6.39410736,21.6882981 6.31697424,21.3883873 C6.31697424,21.2376034 6.47039903,21.0117038 6.39410736,20.8609199 C6.31697424,20.4107776 6.01152707,20.560733 5.70579942,20.4853411 C5.09546606,20.3353857 4.86659105,19.5833995 5.01917439,19.0570368 L0.7,2.34433007 C3.62488801,2.03641064 6.46058209,1.70556986 9.04468194,1.35622629 C12.2091034,0.929833827 14.9962737,0.475272948 17.1139285,0 C16.8676635,0.282788785 16.6550566,0.627437616 16.5501555,0.93673785 C16.4738638,1.23775326 16.4738638,1.38853712 16.3975722,1.61388443 C16.1686972,1.98946329 16.0912835,2.21508676 16.2441474,2.5914941 C16.3975722,3.04246489 16.5501555,3.79445108 17.1613303,3.94468262 C17.5427887,4.01979839 17.8479554,3.86929069 18.2299747,4.01979839 C18.4591302,4.17002993 18.5354218,4.32053764 18.6888466,4.54643727 C18.9171607,4.77206074 18.9937328,4.62155304 19.2223274,4.69639265 C19.5277745,4.84690035 19.8337827,5.37326307 19.986366,5.67372616 C20.3439832,6.37904115 21.0019989,6.57318228 21.2420932,7.33428178 C21.5581988,8.34005986 21.6061616,8.13266301 22.5048326,8.68249941 C22.9566924,8.95838417 23.2357741,9.44056114 23.6699635,9.71589358 C24.17203,10.0362403 24.6216459,10.401325 25.1211881,10.7699998 C25.9979813,11.4198065 26.2736972,12.2253679 27.3936701,12.6675015 C27.775409,12.8180092 28.004845,13.0425281 28.3100116,13.2678754 C28.6157393,13.5683385 28.9971976,13.7188462 29.3789365,13.9447458 C29.6086529,14.0947012 29.7612363,14.6210639 29.9138196,14.9218031 C29.9898308,15.072587 29.9898308,15.2982105 30.0661225,15.5235578 C30.0661225,15.6737893 30.2187058,15.8237447 30.295278,15.9745286 C30.4478613,16.275544 30.4478613,16.6511228 30.6770168,16.8767463 C30.8298806,17.0267017 31.0587556,17.0267017 31.1358888,17.2531536 C31.2884721,17.403109 31.3647638,17.5541691 31.4410554,17.7786879 C31.5936388,17.9294717 31.8225138,18.0051398 31.9750971,18.1550952 C32.0513888,18.3050506 32.1282414,18.5306741 32.1282414,18.6814579 C32.2048136,19.0570368 32.0513888,19.3580522 32.5105413,19.5080076 C32.9674498,19.6590676 33.1974468,19.809023 33.5789051,20.1846018 C33.6557578,20.3353857 33.8083411,20.4107776 33.9609244,20.4853411 C34.2372013,20.6797584 34.4725274,20.8946116 34.7,21.1185781" id="Fill-77"></path>
                    </g>
                </g>
            </g>
        </g>
    </g>
</svg>