<?xml version="1.0" encoding="UTF-8"?>
<svg width="50px" height="50px" viewBox="0 0 50 50" version="1.1" xmlns="http://www.w3.org/2000/svg" xmlns:xlink="http://www.w3.org/1999/xlink">
    <title>icons/states/Kentucky</title>
    <g id="Icons" stroke="none" stroke-width="1" fill="none" fill-rule="evenodd">
        <g id="icons/states/Kentucky" fill="#1B3C92">
            <path d="M50,24.1349604 L50,24.1368289 C49.987691,24.1436799 49.9760133,24.1514651 49.965598,24.1601845 C49.9580232,24.1648556 49.9523422,24.1689039 49.9460299,24.1729522 C49.9387707,24.1779347 49.931196,24.18354 49.9239369,24.1910138 C49.9207807,24.1910138 49.9192026,24.1925709 49.9163621,24.1953735 C49.5635048,24.4656754 49.297126,24.9710899 48.9578402,25.2276898 C48.9205976,25.2557165 48.8833551,25.2806291 48.8448501,25.299625 C48.8284381,25.3111471 48.8120262,25.3201779 48.7943518,25.3279631 C48.7170262,25.3631521 48.6482221,25.3955385 48.5869929,25.4248109 C48.4471756,25.4930091 48.3430227,25.554045 48.2391855,25.6343882 C48.1940526,25.6698887 48.1482884,25.7094374 48.100315,25.75646 C48.0857967,25.7710961 48.0709628,25.7857323 48.0545508,25.8022369 C48.0482386,25.8062852 48.0438199,25.8122019 48.0378233,25.8178073 C47.9873249,25.8707466 47.9305143,25.9327167 47.8683382,26.0046519 C47.7938531,26.0881091 47.7121089,26.1740576 47.6259461,26.256892 C47.6003813,26.2833617 47.5738696,26.3088971 47.5467268,26.336301 C47.4870756,26.3939114 47.4264776,26.452456 47.3665108,26.5113121 C47.3444177,26.531865 47.3235872,26.5539749 47.3011785,26.5745278 C47.1493678,26.7227579 47.0051319,26.8728563 46.8874076,27.0210864 C46.4007297,27.6379849 46.2577562,28.5454267 45.8218923,29.2121505 C45.7587694,29.3071298 45.6909122,29.3971266 45.614849,29.4808952 C45.5924404,29.5058079 45.5719254,29.5279178 45.5504636,29.5500277 C45.5466763,29.554076 45.5416264,29.5571901 45.5387859,29.5618612 C45.4958623,29.602967 45.4557792,29.6394017 45.4141181,29.6720995 C45.4037028,29.6805075 45.3929719,29.6876699 45.3809785,29.6951437 C45.3633041,29.7082228 45.3468921,29.7203677 45.3292177,29.7318898 C45.3124901,29.7427891 45.2948157,29.7524427 45.2784037,29.7630306 C45.2294835,29.7904344 45.1802476,29.8128558 45.1310117,29.830606 C45.1145997,29.837457 45.0981877,29.8433737 45.0817758,29.8483562 C45.052108,29.8580099 45.0208621,29.8657951 44.9896163,29.872646 C44.922706,29.8894621 44.8526395,29.8991157 44.7781544,29.9084579 C44.6560115,29.9230941 44.5225065,29.9318135 44.3703802,29.9480067 C44.3511277,29.9495637 44.3331377,29.9523664 44.3154632,29.9539234 C44.2977888,29.9567261 44.2797988,29.9595288 44.2633868,29.9610858 C44.2308785,29.967314 44.1990014,29.9729193 44.1693336,29.978836 C44.12641,29.9891125 44.087905,30.000946 44.0519249,30.0124681 L44.0500312,30.0140251 C44.0175229,30.0258586 43.9878551,30.0389377 43.9594498,30.0535739 C43.9537688,30.056688 43.946194,30.0594906 43.9401973,30.0638503 C43.9253634,30.0725697 43.9105295,30.0816006 43.8969581,30.09032 C43.8644498,30.1121185 43.8363601,30.1357855 43.8076391,30.1619437 C43.7896491,30.1787597 43.7735527,30.1943301 43.7571408,30.2120804 C43.6665594,30.3089281 43.581659,30.4266402 43.4386855,30.5602341 C43.4222736,30.5776729 43.4045991,30.5954232 43.385031,30.6119278 C43.3686191,30.6268753 43.3509446,30.6415115 43.3332702,30.653345 C43.3149646,30.6679811 43.2972901,30.6807488 43.2793001,30.6941394 C43.2628881,30.7087755 43.2436356,30.7202976 43.2256456,30.7324425 C43.2079712,30.744276 43.1887187,30.7557981 43.1688349,30.7676316 C43.1514761,30.7791537 43.1334861,30.7894301 43.1158117,30.7997066 C43.036908,30.8451721 42.9535857,30.8850322 42.8683697,30.9214669 C42.8478548,30.9317434 42.8282867,30.9404628 42.8074561,30.9479366 C42.7869411,30.956656 42.7664262,30.965064 42.7459112,30.973472 C42.6398647,31.0180033 42.53224,31.0609776 42.424931,31.104886 C42.2895323,31.1609394 42.1557117,31.2213525 42.0307282,31.2945333 C41.9682365,31.3312794 41.9070073,31.3723852 41.8489342,31.4166051 C41.6406285,31.5782256 41.4752463,31.6853499 41.3054456,31.7675615 C41.2817745,31.7821976 41.2565253,31.7940311 41.2312762,31.8043076 C41.1583692,31.8379396 41.0838841,31.868769 41.0034023,31.897107 C40.9768907,31.9089405 40.9484854,31.9185942 40.92008,31.9273136 C40.8055119,31.9674852 40.6808441,32.0064111 40.5331364,32.0528109 C40.482638,32.067447 40.4330865,32.082706 40.3860599,32.099522 C40.2415084,32.1493472 40.1032691,32.2050892 39.9719734,32.2667479 C39.8858106,32.3062967 39.8037508,32.350828 39.723269,32.3956707 C39.6191162,32.4567066 39.52096,32.5189881 39.4272224,32.589989 C39.4067074,32.6030681 39.3855613,32.6177043 39.3666244,32.6354545 C39.3278038,32.6650383 39.2889832,32.6955562 39.251425,32.7279426 C39.2189167,32.7544123 39.1876708,32.7824389 39.1576874,32.8104656 C39.1340163,32.8310185 39.1116077,32.8525057 39.0910927,32.87337 C39.0582688,32.905445 39.0254449,32.9393884 38.9957771,32.9733318 C38.9837837,32.9836083 38.9730528,32.9954418 38.9645312,33.0069638 C38.9541159,33.0159947 38.9452787,33.0262711 38.9361259,33.0381046 C38.9345478,33.0381046 38.9345478,33.0381046 38.9361259,33.0393502 C38.8944647,33.0848158 38.8556441,33.1318383 38.8184016,33.1801065 C38.8035677,33.1969225 38.7915743,33.2124929 38.7798966,33.2299317 C38.759066,33.2554671 38.7394979,33.2819368 38.7218235,33.3084064 C38.720561,33.3084064 38.720561,33.3093407 38.720561,33.3093407 C38.1726539,33.3769161 37.6263248,33.444803 37.0831519,33.51051 C36.6813743,33.559401 36.2821217,33.6076692 35.8847628,33.6543803 C35.7641979,33.6690165 35.6436331,33.683964 35.5233839,33.6986002 L34.9205598,33.7689783 C34.6065231,33.8063472 34.2918552,33.8424705 33.9797123,33.879528 C33.7979182,33.8997695 33.6164397,33.9206338 33.4365393,33.9408753 C31.5520038,34.1573036 29.7047109,34.3566045 27.9126505,34.5384666 C27.6314378,34.5671161 27.3514875,34.5932743 27.0731153,34.6206782 C27.0450256,34.6237923 27.0166203,34.6265949 26.9882149,34.6293976 C26.5608726,34.6705034 26.1382645,34.7119206 25.7188125,34.7517808 C25.6758889,34.7555177 25.630756,34.7586318 25.5875168,34.7636143 C25.339128,34.7869699 25.0907392,34.8103254 24.845191,34.8327468 C24.1855562,34.892537 23.5366523,34.9498361 22.8965857,35.004021 C22.653878,35.0236397 22.4143264,35.0441926 22.1763529,35.062877 C21.4109872,35.1245357 20.6610866,35.1821461 19.9272824,35.2350854 C19.6861527,35.2509672 19.4450231,35.2687175 19.2070496,35.2849107 C19.0385113,35.2951871 18.8718667,35.3067092 18.7068002,35.3169856 C18.4552553,35.3331788 18.2065509,35.349372 17.9594246,35.3643196 C17.1511353,35.4128992 16.3668327,35.4552506 15.6058856,35.4891941 C15.3650715,35.5010276 15.1267824,35.509747 14.8916495,35.519712 C14.637264,35.5284314 14.3857191,35.5371508 14.1370147,35.5477387 C13.8974631,35.5549011 13.6604364,35.5623749 13.4271972,35.568603 C12.4835091,35.5928928 11.5871633,35.6034807 10.7435252,35.5988096 L10.7435252,35.600678 L10.628957,37.8032642 C10.628957,37.8032642 2.4782068,38.0769915 0,38.0869565 C0.0236711042,37.9869947 0.0445016759,37.8842302 0.0697508537,37.7855139 L0.0965781052,37.6886662 L0.0965781052,37.6849293 C0.106993391,37.6553455 0.115830603,37.6238934 0.127823963,37.5949325 C0.138239249,37.5684628 0.148654534,37.5407475 0.160647894,37.5158349 C0.169485106,37.4934136 0.181162851,37.471615 0.19315621,37.4510621 C0.212724323,37.4155617 0.235132968,37.3822411 0.258488458,37.3495433 C0.659003541,36.842883 0.967359125,37.3103059 1.46287424,37.1265754 C1.96880464,36.9366167 1.74692749,35.5928928 1.71599725,35.1447772 C1.68632946,34.7147233 1.72483446,34.1541896 1.48370481,33.7864171 C1.82456871,33.5665634 2.1029409,33.2641865 2.26548248,32.9425025 C2.69534973,32.3489595 2.95320696,31.755728 3.72677865,31.6707137 C4.41450313,31.5850766 5.01606479,31.8391852 5.70347366,31.9245109 C6.56226132,32.0951623 6.73364011,31.5019308 6.99244418,30.7380478 C6.99244418,30.5673965 7.16382298,30.3139107 7.07734454,30.1445049 C6.99244418,29.8900849 6.64905537,29.7203677 6.64905537,29.4656363 C6.64905537,28.6186075 8.71159758,29.7203677 8.79649794,28.6186075 C8.71159758,28.1944703 8.36631507,27.855036 8.36631507,27.4337015 C8.36505261,26.9226816 8.89181359,26.9725068 9.13136516,26.6196819 C9.32673067,26.3325641 9.32830875,26.132329 9.32073399,25.9109182 C9.31757785,25.7670478 9.31000309,25.6141467 9.35008616,25.4229424 C9.59721249,24.2190405 10.505236,24.321805 11.5442397,24.126241 C12.6634095,23.9163523 13.4331938,23.9792566 14.6401045,24.2716684 C14.9456196,24.3467176 15.1592908,24.517369 15.4992078,24.4644297 C15.9562179,24.3934288 15.8413342,24.1673468 16.1645236,24.0378013 C16.8058528,23.7827584 17.0261518,24.0399811 17.6425474,24.1287323 C18.809375,24.3009407 19.7082458,23.2555453 19.6104052,22.1042713 C19.5090929,22.1011572 19.3929466,22.0778016 19.2916343,22.0778016 C19.2528137,21.6869851 19.6340763,21.2214307 20.0535283,21.1541666 C20.5910201,21.0660382 20.6490932,21.3827398 21.0139439,21.6458793 C21.2920004,21.8445573 21.8455887,22.4243983 22.1804559,22.4493109 C22.5380474,22.4785833 22.7299411,22.1173504 23.1512868,22.0865211 C23.7061374,22.0482179 23.7051906,22.6875378 24.160307,21.9208522 C24.3553569,21.596054 24.2407888,21.0336519 24.2644599,20.6484406 C24.3269516,19.5208336 24.7347258,19.4105953 25.7096597,19.0244498 C25.8570518,18.3471382 26.0833475,17.7215203 26.153414,17.0034143 C26.2307396,16.1925088 26.1625668,15.8904434 26.9273013,15.6469227 C27.2296602,15.5497635 27.5705241,15.676195 27.8709893,15.5619084 C28.1433648,15.4588325 28.2490958,15.162061 28.5542952,15.0502656 C29.2060396,14.8067449 29.9262724,15.1530302 30.4729171,14.566961 C31.1767379,13.8093062 30.2646114,13.5520835 30.5130002,12.8504821 C30.5874852,12.6356109 30.8854255,12.4216738 31.2111399,12.2600533 C31.5311733,12.1046609 31.8808744,12.0012735 32.0803429,12 C32.4969543,11.9969138 32.5341969,12.2553822 32.8750608,12.3229576 C33.2219213,12.3936471 33.6312736,12.2513339 33.9708751,12.3422649 C34.5437158,12.4892493 35.1272874,12.9927954 35.692869,13.2733737 C36.2969556,13.5726364 36.9461751,13.8943205 37.5830856,14.0593666 C38.3213084,14.2515051 38.8184016,14.0416163 39.5629367,14.0322741 C40.914399,14.0145239 41.9455123,13.6009745 43.2540509,14.0578095 C44.3659616,14.443955 44.9779385,14.7108313 45.3424735,15.4865477 C45.3585699,15.5186227 45.3737194,15.5522547 45.3872908,15.5861982 C45.4062277,15.6301067 45.4242177,15.6771292 45.4422078,15.7241518 C45.4494669,15.7437704 45.4557792,15.7612093 45.4614603,15.7798937 C45.540364,16.0062871 45.6044338,16.2694265 45.6593507,16.5789657 C45.8351481,17.5779614 46.4767928,18.548619 46.9947166,19.4853331 C47.0688861,19.6195498 47.1405306,19.7531437 47.2074409,19.8851805 C47.3459958,20.1536139 47.4870756,20.392775 47.6344677,20.6179227 C47.7073747,20.7294066 47.7834378,20.8380879 47.861079,20.9436551 C48.0144678,21.1554122 48.1748001,21.3562702 48.3430227,21.5593079 C48.5961457,21.8647988 48.8669431,22.175895 49.1601492,22.5355709 C49.6124251,23.086451 49.876279,23.5977823 50,24.1349604" id="Fill-264"></path>
        </g>
    </g>
</svg>