<?xml version="1.0" encoding="UTF-8"?>
<svg width="35px" height="19px" viewBox="0 0 35 19" version="1.1" xmlns="http://www.w3.org/2000/svg" xmlns:xlink="http://www.w3.org/1999/xlink">
    <title>icons/states/Kentucky</title>
    <g id="Find-Unit---FLOW" stroke="none" stroke-width="1" fill="none" fill-rule="evenodd">
        <g id="Mobile-/-Find-Units---US-Map" transform="translate(-34.000000, -369.000000)" fill="#1B3C92">
            <g id="Group" transform="translate(0.000000, 116.000000)">
                <g id="Group-6-Copy-3" transform="translate(18.000000, 237.000000)">
                    <g id="icons/states/Kentucky" transform="translate(16.000000, 8.000000)">
                        <path d="M35,16.8944723 L35,16.8957802 C34.9913837,16.9005759 34.9832093,16.9060255 34.9759186,16.9121291 C34.9706163,16.9153989 34.9666395,16.9182327 34.9622209,16.9210665 C34.9571395,16.9245543 34.9518372,16.928478 34.9467558,16.9337097 C34.9445465,16.9337097 34.9434418,16.9347996 34.9414535,16.9367615 C34.6944534,17.1259727 34.5079882,17.479763 34.2704881,17.6593829 C34.2444184,17.6790016 34.2183486,17.6964404 34.1913951,17.7097375 C34.1799067,17.7178029 34.1684183,17.7241245 34.1560462,17.7295742 C34.1019183,17.7542065 34.0537555,17.776877 34.010895,17.7973676 C33.9130229,17.8451064 33.8401159,17.8878315 33.7674298,17.9440717 C33.7358368,17.9689221 33.7038019,17.9966062 33.6702205,18.029522 C33.6600577,18.0397673 33.649674,18.0500126 33.6381856,18.0615658 C33.633767,18.0643996 33.630674,18.0685414 33.6264763,18.0724651 C33.5911274,18.1095226 33.55136,18.1529017 33.5078367,18.2032563 C33.4556972,18.2616764 33.3984762,18.3218403 33.3381622,18.3798244 C33.3202669,18.3983532 33.3017087,18.416228 33.2827087,18.4354107 C33.2409529,18.475738 33.1985343,18.5167192 33.1565575,18.5579185 C33.1410924,18.5723055 33.126511,18.5877824 33.110825,18.6021695 C33.0045575,18.7059305 32.9035923,18.8109994 32.8211853,18.9147605 C32.4805108,19.3465894 32.3804294,19.9817987 32.0753246,20.4485053 C32.0311385,20.5149908 31.9836385,20.5779886 31.9303943,20.6366267 C31.9147083,20.6540655 31.9003478,20.6695425 31.8853245,20.6850194 C31.8826734,20.6878532 31.8791385,20.6900331 31.8771501,20.6933029 C31.8471036,20.7220769 31.8190455,20.7475812 31.7898827,20.7704697 C31.782592,20.7763553 31.7750803,20.7813689 31.766685,20.7866006 C31.7543129,20.795756 31.7428245,20.8042574 31.7304524,20.8123229 C31.7187431,20.8199523 31.706371,20.8267099 31.6948826,20.8341214 C31.6606384,20.8533041 31.6261733,20.868999 31.5917082,20.8814242 C31.5802198,20.8862199 31.5687314,20.8903616 31.557243,20.8938494 C31.5364756,20.9006069 31.5146035,20.9060566 31.4927314,20.9108522 C31.4458942,20.9226234 31.3968476,20.929381 31.3447081,20.9359205 C31.2592081,20.9461659 31.1657545,20.9522694 31.0592661,20.9636047 C31.0457894,20.9646946 31.0331964,20.9666565 31.0208243,20.9677464 C31.0084522,20.9697083 30.9958591,20.9716701 30.9843708,20.9727601 C30.9616149,20.9771198 30.939301,20.9810435 30.9185335,20.9851852 C30.888487,20.9923787 30.8615335,21.0006622 30.8363475,21.0087276 L30.8350219,21.0098176 C30.8122661,21.018101 30.7914986,21.0272564 30.7716149,21.0375017 C30.7676381,21.0396816 30.7623358,21.0416434 30.7581381,21.0446952 C30.7477544,21.0507988 30.7373707,21.0571204 30.7278707,21.063224 C30.7051149,21.078483 30.6854521,21.0950498 30.6653474,21.1133606 C30.6527544,21.1251318 30.6414869,21.1360311 30.6299985,21.1484563 C30.5665916,21.2162497 30.5071613,21.2986482 30.4070799,21.3921639 C30.3955915,21.404371 30.3832194,21.4167962 30.3695217,21.4283494 C30.3580333,21.4388127 30.3456612,21.449058 30.3332891,21.4573415 C30.3204752,21.4675868 30.3081031,21.4765242 30.2955101,21.4858976 C30.2840217,21.4961429 30.2705449,21.5042083 30.2579519,21.5127098 C30.2455798,21.5209932 30.2321031,21.5290587 30.2181845,21.5373421 C30.2060333,21.5454076 30.1934403,21.5526011 30.1810682,21.5597946 C30.1258356,21.5916205 30.06751,21.6195226 30.0078588,21.6450269 C29.9934983,21.6522204 29.9798007,21.658324 29.9652193,21.6635556 C29.9508588,21.6696592 29.9364983,21.6755448 29.9221378,21.6814304 C29.8479053,21.7126023 29.772568,21.7426843 29.6974517,21.7734202 C29.6026726,21.8126576 29.5089982,21.8549467 29.4215098,21.9061733 C29.3777656,21.9318956 29.3349051,21.9606696 29.2942539,21.9916236 C29.1484399,22.1047579 29.0326724,22.1797449 28.9138119,22.237293 C28.8972422,22.2475383 28.8795677,22.2558218 28.8618933,22.2630153 C28.8108584,22.2865577 28.7587189,22.3081383 28.7023816,22.3279749 C28.6838235,22.3362584 28.6639398,22.3430159 28.644056,22.3491195 C28.5638583,22.3772396 28.4765909,22.4044878 28.3731955,22.4369676 C28.3378466,22.4472129 28.3031606,22.4578942 28.270242,22.4696654 C28.1690559,22.5045431 28.0722884,22.5435624 27.9803814,22.5867235 C27.9200674,22.6144077 27.8626255,22.6455796 27.8062883,22.6769695 C27.7333813,22.7196946 27.664672,22.7632917 27.5990557,22.8129923 C27.5846952,22.8221477 27.5698929,22.832393 27.5566371,22.8448182 C27.5294626,22.8655268 27.5022882,22.8868893 27.4759975,22.9095598 C27.4532417,22.9280886 27.4313696,22.9477073 27.4103812,22.9673259 C27.3938114,22.981713 27.3781254,22.996754 27.3637649,23.011359 C27.3407882,23.0338115 27.3178114,23.0575719 27.297044,23.0813323 C27.2886486,23.0885258 27.281137,23.0968092 27.2751719,23.1048747 C27.2678812,23.1111963 27.2616951,23.1183898 27.2552881,23.1266732 C27.2541835,23.1266732 27.2541835,23.1266732 27.2552881,23.1275452 C27.2261253,23.159371 27.1989509,23.1922868 27.1728811,23.2260745 C27.1624974,23.2378457 27.154102,23.248745 27.1459276,23.2609522 C27.1313462,23.278827 27.1176485,23.2973557 27.1052764,23.3158845 C27.1043927,23.3158845 27.1043927,23.3165385 27.1043927,23.3165385 C26.7208577,23.3638413 26.3384274,23.4113621 25.9582063,23.457357 C25.676962,23.4915807 25.3974852,23.5253684 25.1193339,23.5580662 C25.0349385,23.5683115 24.9505432,23.5787748 24.8663687,23.5890201 L24.4443918,23.6382848 C24.2245662,23.6644431 24.0042987,23.6897294 23.7857986,23.7156696 C23.6585427,23.7298387 23.5315078,23.7444437 23.4055775,23.7586127 C22.0864027,23.9101125 20.7932976,24.0496232 19.5388553,24.1769266 C19.3420064,24.1969813 19.1460412,24.215292 18.9511807,24.2344747 C18.9315179,24.2366546 18.9116342,24.2386165 18.8917505,24.2405783 C18.5926108,24.2693524 18.2967851,24.2983444 18.0031688,24.3262466 C17.9731223,24.3288624 17.9415292,24.3310422 17.9112618,24.33453 C17.7373896,24.3508789 17.5635175,24.3672278 17.3916337,24.3829227 C16.9298893,24.4247759 16.4756566,24.4648852 16.02761,24.5028147 C15.8577146,24.5165478 15.6900285,24.5309348 15.523447,24.5440139 C14.987691,24.587175 14.4627606,24.6275023 13.9490977,24.6645598 C13.7803069,24.6756771 13.6115162,24.6881022 13.4449347,24.6994375 C13.3269579,24.706631 13.2103067,24.7146964 13.0947602,24.72189 C12.9186787,24.7332252 12.7445856,24.7445604 12.5715972,24.7550237 C12.0057947,24.7890294 11.4567829,24.8186754 10.9241199,24.8424358 C10.7555501,24.8507193 10.5887477,24.8568229 10.4241546,24.8637984 C10.2460848,24.869902 10.0700033,24.8760056 9.89591026,24.8834171 C9.72822416,24.8884308 9.5623055,24.8936624 9.39903801,24.8980221 C8.73845639,24.915025 8.11101432,24.9224365 7.52046761,24.9191667 L7.52046761,24.9204746 L7.44026991,26.4622849 C7.44026991,26.4622849 1.73474476,26.653894 0,26.6608696 C0.0165697729,26.5908963 0.0311511731,26.5189611 0.0488255976,26.4498598 L0.0676046736,26.3820663 L0.0676046736,26.3794505 C0.0748953737,26.3587419 0.0810814223,26.3367254 0.0894767739,26.3164527 C0.096767474,26.297924 0.104058174,26.2785233 0.112453526,26.2610844 C0.118639574,26.2453895 0.126813996,26.2301305 0.135209347,26.2157435 C0.148907026,26.1908932 0.164593078,26.1675687 0.180941921,26.1446803 C0.461302479,25.7900181 0.677151388,26.1172141 1.02401197,25.9886028 C1.37816325,25.8556317 1.22284924,24.915025 1.20119807,24.6013441 C1.18043062,24.3003063 1.20738412,23.9079327 1.03859337,23.650492 C1.2771981,23.4965943 1.47205863,23.2849306 1.58583774,23.0597517 C1.88674481,22.6442717 2.06724487,22.2290096 2.60874505,22.1694996 C3.09015219,22.1095536 3.51124535,22.2874297 3.99243156,22.3471576 C4.59358292,22.4666136 4.71354808,22.0513515 4.89471093,21.5166335 C4.89471093,21.3971775 5.01467608,21.2197375 4.95414118,21.1011534 C4.89471093,20.9230594 4.65433876,20.8042574 4.65433876,20.6259454 C4.65433876,20.0330253 6.09811831,20.8042574 6.15754856,20.0330253 C6.09811831,19.7361292 5.85642055,19.4985252 5.85642055,19.203591 C5.85553683,18.8458771 6.22426951,18.8807547 6.39195561,18.6337774 C6.52871147,18.4327949 6.52981612,18.2926303 6.5245138,18.1376427 C6.52230449,18.0369335 6.51700217,17.9299027 6.54506031,17.7960597 C6.71804874,16.9533284 7.35366523,17.0252635 8.0809678,16.8883687 C8.86438667,16.7414466 9.40323568,16.7854796 10.2480732,16.9901679 C10.4619337,17.0427023 10.6115035,17.1621583 10.8494455,17.1251008 C11.1693525,17.0754001 11.0889339,16.9171428 11.3151665,16.8264609 C11.7640969,16.6479309 11.9183063,16.8279868 12.3497832,16.8901126 C13.1665625,17.0106585 13.795772,16.2788817 13.7272836,15.4729899 C13.656365,15.47081 13.5750626,15.4544611 13.504144,15.4544611 C13.4769696,15.1808895 13.7438534,14.8550015 14.0374698,14.8079166 C14.4137141,14.7462268 14.4543653,14.9679179 14.7097607,15.1521155 C14.9044003,15.2911901 15.2919121,15.6970788 15.5263191,15.7145177 C15.7766331,15.7350083 15.9109588,15.4821453 16.2059007,15.4605647 C16.5942962,15.4337525 16.5936334,15.8812764 16.9122149,15.3445965 C17.0487499,15.1172378 16.9685521,14.7235563 16.9851219,14.4539084 C17.0288661,13.6645835 17.3143081,13.5874167 17.9967618,13.3171149 C18.0999362,12.8429968 18.2583433,12.4050642 18.3073898,11.90239 C18.3615177,11.3347562 18.3137968,11.1233104 18.8491109,10.9528459 C19.0607621,10.8848344 19.2993669,10.9733365 19.5096925,10.8933359 C19.7003554,10.8211827 19.774367,10.6134427 19.9880066,10.5351859 C20.4442277,10.3647214 20.9483907,10.6071211 21.331042,10.1968727 C21.8237166,9.66651436 21.185228,9.48645847 21.3591001,8.9953375 C21.4112397,8.84492761 21.6197979,8.69517168 21.847798,8.58203729 C22.0718213,8.47326261 22.3166121,8.40089147 22.45624,8.4 C22.747868,8.39783968 22.7739378,8.57876751 23.0125425,8.62607033 C23.2553449,8.675553 23.5418915,8.5759337 23.7796126,8.63958542 C24.1806011,8.7424745 24.5891012,9.0949568 24.9850083,9.29136159 C25.4078689,9.5008455 25.8623225,9.72602436 26.3081599,9.84155659 C26.8249159,9.97605355 27.1728811,9.82913143 27.6940557,9.82259187 C28.6400793,9.8101667 29.3618586,9.52068217 30.2778356,9.84046667 C31.0561731,10.1107685 31.484557,10.2975819 31.7397315,10.8405834 C31.7509989,10.8630359 31.7616036,10.8865783 31.7711036,10.9103387 C31.7843594,10.9410747 31.7969524,10.9739904 31.8095455,11.0069062 C31.8146268,11.0206393 31.8190455,11.0328465 31.8230222,11.0459256 C31.8782548,11.2044009 31.9231036,11.3885986 31.9615455,11.605276 C32.0846037,12.304573 32.533755,12.9840333 32.8963016,13.6397332 C32.9482202,13.7336849 32.9983714,13.8272006 33.0452087,13.9196264 C33.1421971,14.1075297 33.2409529,14.2749425 33.3441274,14.4325459 C33.3951623,14.5105846 33.4484065,14.5866615 33.5027553,14.6605585 C33.6101274,14.8087886 33.72236,14.9493891 33.8401159,15.0915156 C34.017302,15.3053592 34.2068602,15.5231265 34.4121045,15.7748996 C34.7286976,16.1605157 34.9133953,16.5184476 35,16.8944723" id="Fill-264"></path>
                    </g>
                </g>
            </g>
        </g>
    </g>
</svg>