<?xml version="1.0" encoding="UTF-8"?>
<svg width="50px" height="50px" viewBox="0 0 50 50" version="1.1" xmlns="http://www.w3.org/2000/svg" xmlns:xlink="http://www.w3.org/1999/xlink">
    <title>icons/states/Michigan</title>
    <g id="Icons" stroke="none" stroke-width="1" fill="none" fill-rule="evenodd">
        <g id="icons/states/Michigan" fill="#1B3C92">
            <path d="M42.4138506,28.4932557 C42.0054287,27.8208915 41.5246776,27.4259571 41.5458999,26.5902742 C41.5671223,25.7898003 41.6844948,25.0924081 41.272175,24.3538681 C40.9066309,23.7031384 40.2435409,23.233544 39.9849747,22.522153 C39.7186126,21.789976 39.8689015,20.9763518 39.4587472,20.2802322 C39.156437,19.7686416 38.5223653,19.2765643 37.9541261,19.0784608 C37.0887741,18.776003 36.7046064,19.4403073 36.0605731,19.8496646 C35.432998,20.2492653 34.6828531,20.1203071 33.9708217,20.1173377 C33.6906001,20.5479052 34.0193299,21.0298016 33.6100418,21.3275931 C33.4783766,21.4255844 33.261389,21.3950416 33.1050366,21.5456342 C32.9586457,21.6860459 32.8607631,21.9053597 32.7936311,22.0877676 C32.5463258,22.7944923 32.1833804,24.5040365 31.4596551,24.8807301 C30.470867,25.3957144 29.525823,24.0514103 29.0957456,23.3722589 C28.4287576,22.3181106 28.8713951,21.6788345 29.6713476,20.8932077 C30.4687015,20.1084294 30.7359298,19.3160153 31.1465172,18.3212558 C31.4804443,17.5139946 32.300753,17.0435518 32.6069611,16.2532588 C33.047,15.1282684 32.3427646,13.6473705 32.1569608,12.5270464 C31.9902138,11.5271964 32.1972399,10.4323245 31.7632646,9.49228736 C31.6194724,9.1851633 29.895265,7.14092177 30.0018099,6.9835419 C30.1949765,6.70653636 31.4635531,7.76238138 31.8321289,7.27030415 C32.2920908,6.65987386 30.256478,4.9698431 29.895265,4.62751007 C29.0312124,3.81006798 28.1290461,2.9930501 26.9267352,2.72240762 C25.9357816,2.50012446 24.9573881,2.61296286 24.0210062,2.17221438 C23.0772615,1.72637544 22.4011782,1.3844666 21.3491562,1.72637544 C20.2741794,2.07719257 20.0480964,1.76794748 19.3702807,0.911054374 C18.6339952,-0.02007452 17.8418386,-0.398889145 16.9206156,0.555146792 C16.3640704,1.13333754 15.5762449,2.08694927 15.9487187,2.9183901 C16.1890943,3.45882665 17.6504044,4.45910088 17.3992011,5.092014 C17.148431,5.71347361 15.2362543,5.53361089 14.667582,5.90266882 C13.7857719,6.47364808 14.1920282,7.52355424 14.3132988,8.36305496 C14.4514606,9.30521317 14.2769176,10.1990121 14.2526635,11.1339588 C14.2318742,11.8691052 14.377832,12.6305523 14.0833178,13.3478821 C13.909208,12.9890051 13.7381299,12.6305523 13.5540585,12.2797352 C13.3396695,11.864439 13.1131534,11.2014073 12.6852416,11.7049381 C12.3898612,12.0510889 12.3777342,13.5188365 11.9420264,13.6639145 C11.5743168,13.7839644 11.8237876,12.3751812 11.8692641,12.1618063 C11.9931333,11.5776767 12.309736,11.1131728 12.4899094,10.5612827 C12.6614206,10.0327239 12.7597364,7.33054119 11.924702,7.47561913 C11.4439509,7.56088424 11.0810055,8.45934938 10.9631998,8.83816401 C10.781294,9.41338532 10.87268,10.138775 10.5647395,10.6677581 C10.2858172,11.148806 9.81632693,11.1051129 9.38495026,11.3613324 C8.84746186,11.6816068 8.80545028,12.2844014 8.67551755,12.8375641 C8.38057024,14.0966031 7.44765323,14.7613315 7.52388044,16.1259975 C7.60227318,17.5258723 7.55506429,18.7637011 7.23932775,20.1381237 C6.99635355,21.2058464 5.8810976,22.1017663 6.10761366,23.2174242 C6.22715178,23.8223398 6.64077097,24.345384 6.72522725,24.9566627 C6.80448621,25.5323082 6.51040513,26.0125077 6.29644923,26.525371 C5.79794065,27.7216277 5.9096828,28.6709974 6.77243614,29.6453951 C6.84043427,30.5171354 6.97556431,31.0202419 7.69712408,31.5415893 C8.53822196,32.1494743 8.59885723,32.7679645 8.80978137,33.7113953 C8.94274586,34.2908587 9.14240916,35.0043707 9.43692335,35.5265664 C9.83321818,36.2265038 10.2286468,36.4822992 9.98697191,37.3557362 C9.55039794,38.915112 9.88302573,40.5712064 9.48023426,42.1424599 C9.0778759,43.698442 8.44683594,45.1165577 8.23677802,46.7272622 C8.09255269,47.8403749 7.54337035,49.1066253 6.73605497,50 C11.2789364,49.6071866 21.3266345,48.7205992 23.8603228,48.307424 L23.8603228,49.249158 C23.8603228,49.249158 23.9183594,49.2423707 24.0210062,49.230493 C25.2215847,49.0930508 32.8343434,48.209857 35.8253949,47.6630574 C35.766492,47.5790649 35.7210156,47.4759832 35.6967615,47.3461766 C35.4442589,46.011205 37.3204875,45.1704317 37.4686108,43.9304819 C37.5465705,43.2716923 37.1645682,42.6273257 37.2256366,41.9592036 C37.2728455,41.4280995 37.5812192,41.0081371 37.886128,40.5830841 C38.5665424,39.6290482 39.5063892,38.8625107 40.3292965,38.0259794 C40.9733297,37.3727044 41.1972471,36.4755119 41.4774687,35.639829 C41.6121656,35.2402284 41.7507605,34.8936533 41.8057654,34.4825991 C41.8594709,34.0783322 41.8538405,33.7436349 42.1518196,33.4131795 C42.3982587,33.140416 42.7438797,32.9257686 42.9379126,32.6088878 C43.2930621,32.0247582 43.1310793,31.1678651 42.8712138,30.578645 C42.5745341,29.902463 42.812311,29.1490758 42.4138506,28.4932557" id="Fill-250"></path>
        </g>
    </g>
</svg>