<?xml version="1.0" encoding="UTF-8"?>
<svg width="27px" height="35px" viewBox="0 0 27 35" version="1.1" xmlns="http://www.w3.org/2000/svg" xmlns:xlink="http://www.w3.org/1999/xlink">
    <title>icons/states/Michigan</title>
    <g id="Find-Unit---FLOW" stroke="none" stroke-width="1" fill="none" fill-rule="evenodd">
        <g id="Mobile-/-Find-Units---US-Map" transform="translate(-38.000000, -421.000000)" fill="#1B3C92">
            <g id="Group" transform="translate(0.000000, 116.000000)">
                <g id="Group-6-Copy-4" transform="translate(18.000000, 297.000000)">
                    <g id="icons/states/Michigan" transform="translate(16.000000, 8.000000)">
                        <path d="M29.6896954,19.945279 C29.4038001,19.4746241 29.0672743,19.19817 29.08213,18.613192 C29.0969856,18.0528602 29.1791464,17.5646857 28.8905225,17.0477077 C28.6346416,16.5921969 28.1704786,16.2634808 27.9894823,15.7655071 C27.8030288,15.2529832 27.908231,14.6834463 27.621123,14.1961625 C27.4095059,13.8380491 26.9656557,13.493595 26.5678883,13.3549226 C25.9621419,13.1432021 25.6932245,13.6082151 25.2424012,13.8947652 C24.8030986,14.1744857 24.2779971,14.084215 23.7795752,14.0821364 C23.5834201,14.3835337 23.8135309,14.7208611 23.5270293,14.9293152 C23.4348636,14.9979091 23.2829723,14.9765291 23.1735256,15.081944 C23.071052,15.1802322 23.0025341,15.3337518 22.9555418,15.4614373 C22.7824281,15.9561446 22.5283663,17.1528255 22.0217586,17.4165111 C21.3296069,17.777 20.6680761,16.8359872 20.3670219,16.3605812 C19.9001303,15.6226775 20.2099766,15.1751841 20.7699433,14.6252454 C21.328091,14.0759006 21.5151509,13.5212107 21.8025621,12.824879 C22.036311,12.2597962 22.6105271,11.9304863 22.8248728,11.3772812 C23.1329,10.5897879 22.6399352,9.55315936 22.5098725,8.76893249 C22.3931496,8.06903747 22.5380679,7.30262718 22.2342852,6.64460115 C22.1336307,6.42961431 20.9266855,4.99864524 21.0012669,4.88847933 C21.1364836,4.69457545 22.0244872,5.43366696 22.2824903,5.0892129 C22.6044636,4.6619117 21.1795346,3.47889017 20.9266855,3.23925705 C20.3218486,2.66704759 19.6903323,2.09513507 18.8487147,1.90568534 C18.1550471,1.75008712 17.4701717,1.829074 16.8147044,1.52055006 C16.154083,1.20846281 15.6808247,0.969126623 14.9444093,1.20846281 C14.1919256,1.4540348 14.0336675,1.23756324 13.5591965,0.637738062 C13.0437966,-0.014052164 12.489287,-0.279222402 11.8444309,0.388602755 C11.4548493,0.793336275 10.9033714,1.46086449 11.1641031,2.04287307 C11.332366,2.42117865 12.3552831,3.12137061 12.1794408,3.5644098 C12.0039017,3.99943152 10.665378,3.87352763 10.2673074,4.13186817 C9.65004031,4.53155366 9.93441975,5.26648797 10.0193091,5.85413847 C10.1160224,6.51364922 9.99384232,7.13930845 9.97686444,7.79377116 C9.96231197,8.30837365 10.0644824,8.84138662 9.85832248,9.34351749 C9.73644558,9.09230358 9.61669091,8.84138662 9.48784095,8.59581463 C9.33776865,8.30510728 9.1792074,7.84098512 8.87966915,8.19345665 C8.67290286,8.43576226 8.66441392,9.46318558 8.35941849,9.56474014 C8.10202175,9.64877505 8.27665134,8.66262684 8.30848486,8.51326443 C8.3951933,8.1043737 8.61681523,7.77922095 8.7429366,7.3928979 C8.86299444,7.02290673 8.93181548,5.13137883 8.34729143,5.23293339 C8.01076566,5.29261897 7.75670386,5.92154457 7.67423989,6.18671481 C7.54690581,6.58936972 7.61087602,7.09714252 7.39531762,7.46743064 C7.20007204,7.80416417 6.87142885,7.77357903 6.56946518,7.95293269 C6.1932233,8.17712478 6.16381519,8.599081 6.07286228,8.98629487 C5.86639917,9.86762216 5.21335726,10.3329321 5.26671631,11.2881982 C5.32159123,12.2681106 5.288545,13.1345908 5.06752943,14.0966866 C4.89744748,14.8440925 4.11676832,15.4712364 4.27532956,16.2521969 C4.35900624,16.6756379 4.64853968,17.0417688 4.70765907,17.4696639 C4.76314035,17.8726157 4.55728359,18.2087554 4.40751446,18.5677597 C4.05855846,19.4051394 4.13677796,20.0696981 4.7407053,20.7517766 C4.78830399,21.3619948 4.88289502,21.7141693 5.38798685,22.0791125 C5.97675537,22.504632 6.01920006,22.9375751 6.16684696,23.5979767 C6.2599221,24.0036011 6.39968641,24.5030595 6.60584635,24.8685965 C6.88325273,25.3585527 7.16005276,25.5376094 6.99088034,26.1490154 C6.68527856,27.2405784 6.91811801,28.3998445 6.63616398,29.4997219 C6.35451313,30.5889094 5.91278516,31.5815904 5.76574462,32.7090836 C5.66478688,33.4882624 5.28035924,34.3746377 4.71523848,35 C7.89525546,34.7250306 14.9286441,34.1044194 16.7022259,33.8151968 L16.7022259,34.4744106 C16.7022259,34.4744106 16.7428516,34.4696595 16.8147044,34.4613451 C17.6551093,34.3651355 22.9840404,33.7468999 25.0777764,33.3641402 C25.0365444,33.3053454 25.0047109,33.2331882 24.987733,33.1423236 C24.8109812,32.2078435 26.1243413,31.6193022 26.2280276,30.7513373 C26.2825993,30.2901846 26.0151978,29.839128 26.0579456,29.3714425 C26.0909919,28.9996697 26.3068534,28.7056959 26.5202896,28.4081589 C26.9965797,27.7403337 27.6544724,27.2037575 28.2305075,26.6181856 C28.6813308,26.1608931 28.838073,25.5328583 29.0342281,24.9478803 C29.1285159,24.6681599 29.2255324,24.4255573 29.2640358,24.1378194 C29.3016296,23.8548325 29.2976884,23.6205444 29.5062737,23.3892257 C29.6787811,23.1982912 29.9207158,23.048038 30.0565388,22.8262215 C30.3051434,22.4173307 30.1917555,21.8175056 30.0098497,21.4050515 C29.8021738,20.9317241 29.9686177,20.4043531 29.6896954,19.945279" id="Fill-250"></path>
                    </g>
                </g>
            </g>
        </g>
    </g>
</svg>