<?xml version="1.0" encoding="UTF-8"?>
<svg width="50px" height="50px" viewBox="0 0 50 50" version="1.1" xmlns="http://www.w3.org/2000/svg" xmlns:xlink="http://www.w3.org/1999/xlink">
    <title>icons/states/New Jersey</title>
    <g id="Icons" stroke="none" stroke-width="1" fill="none" fill-rule="evenodd">
        <g id="icons/states/New-Jersey" fill="#1B3C92">
            <path d="M34.4945489,26.1244687 C34.8378485,27.6271972 34.9223413,29.2020043 34.9124458,30.7360396 C34.9048338,32.3851094 34.2905482,33.2689816 33.4654111,34.6326495 C32.5253334,36.1950794 32.5999306,37.8871051 32.5055423,39.6242709 C32.4218106,41.1816043 31.865376,42.3872818 30.9169251,43.6431959 C30.0057728,44.8503295 29.5893983,45.7888068 29.2422926,47.2471232 C29.0816802,47.9329615 28.4019316,50.9981199 27.2471965,49.6701273 C26.3375666,48.6187998 28.2063041,41.3206649 25.1835926,43.5965997 C24.7230687,43.9460714 24.1186786,44.8321279 23.4640496,44.8452331 C22.8200773,44.8532418 22.5201659,44.1790526 22.1593587,43.7742478 C21.0845492,42.5816755 19.8422764,43.0767604 18.6068544,42.3115629 C18.2384353,42.0822221 17.536612,41.0745786 16.8492515,40.4994064 C16.8454456,40.4804766 16.8363112,40.4608188 16.8325052,40.4448014 C16.5226982,39.7502263 16.0043234,39.5529204 16.0043234,38.8590734 L16.0043234,37.7684303 C16.0043234,37.0148819 14.9797528,36.4688323 15.0003051,35.5762232 C15.0162902,35.0323578 15.2735747,34.6450266 15.6275311,34.2955549 C15.8551288,34.0618457 16.1276372,33.8441539 16.3948172,33.6053482 C16.9116697,33.1466665 17.5503136,32.722204 17.9674493,32.2176542 C18.4279732,31.6716046 18.6890636,31.2638875 19.2127668,30.8146707 C19.7539776,30.3465242 20.5555176,29.9781228 20.8501006,29.3439772 C20.998534,29.0236281 20.8409663,28.5904287 20.9810264,28.262799 C21.1347881,27.8980378 21.5115804,27.7356791 21.6744765,27.3658215 C22.0459404,26.5256332 21.7155811,25.918426 21.3654307,25.2049212 C20.7770258,23.9999718 21.1393553,22.2751831 20.3340094,21.0396549 C18.4744062,20.9435502 18.6723173,19.0651396 17.7368067,18.0494873 C17.2138647,17.4779554 16.5112803,17.406605 16.0781594,16.7564419 C15.6884268,16.163068 15.5384711,15.2784677 15.6085012,14.5766119 C15.7896659,12.8030428 15.6313371,11.3964191 15.2773807,9.62139386 C15.0718576,8.55841732 15.0627232,8.44775127 15.7934719,7.61484362 C16.3948172,6.93701405 16.5265042,6.32325431 16.8286992,5.55368841 C17.0821777,4.91080602 17.5290001,4.83581521 17.8654489,4.37130902 C18.3077041,3.77065447 18.06336,3.10301783 18.2544204,2.3815043 C18.4941973,1.46705324 19.2127668,0.760101036 19.8133509,0 C19.8460824,0.0706224143 19.8902318,0.138332564 19.9412319,0.205314648 C20.2525613,0.602110687 20.3560841,0.602110687 20.8736977,0.602110687 C21.8061635,0.602110687 22.6358677,0.700399614 23.5683335,0.998906725 C23.9831856,1.09865178 24.4992769,1.19694071 24.9156514,1.29595771 C25.4332651,1.49399169 25.7430721,1.7924988 26.3664921,1.8893316 C27.4024806,2.08809365 28.3341851,2.48488969 29.2658897,2.78194067 C30.8834324,3.30105182 32.3799448,3.32580607 33.1769176,5.06224378 C33.7143224,6.24316703 34.2540107,7.02802232 33.8528602,8.25626987 C33.6351579,8.91152939 33.3162166,9.44301766 33.5323964,10.1164788 C33.7013821,10.63559 34.2334584,10.9646759 34.3681902,11.5041729 C34.556967,12.2409758 34.0492489,12.705482 34.0347861,13.3840396 C33.0300067,12.859832 32.3586313,13.2478912 31.7580472,14.500893 C30.9504177,16.1972871 31.5913452,16.7018369 33.1183055,17.5303762 C34.9413712,18.5205461 35.4171191,19.5274616 34.6437434,21.3862144 C33.9228902,23.1197398 34.0880699,24.3443471 34.4945489,26.1244687" id="Fill-25"></path>
        </g>
    </g>
</svg>