<?xml version="1.0" encoding="UTF-8"?>
<svg width="15px" height="35px" viewBox="0 0 15 35" version="1.1" xmlns="http://www.w3.org/2000/svg" xmlns:xlink="http://www.w3.org/1999/xlink">
    <title>icons/states/New Jersey</title>
    <g id="Find-Unit---FLOW" stroke="none" stroke-width="1" fill="none" fill-rule="evenodd">
        <g id="Mobile-/-Find-Units---US-Map" transform="translate(-44.000000, -480.000000)" fill="#1B3C92">
            <g id="Group" transform="translate(0.000000, 116.000000)">
                <g id="Group-6-Copy-5" transform="translate(18.000000, 356.000000)">
                    <g id="icons/states/New-Jersey" transform="translate(16.000000, 8.000000)">
                        <path d="M24.1461842,18.2871281 C24.386494,19.3390381 24.4456389,20.441403 24.438712,21.5152277 C24.4333837,22.6695766 24.0033837,23.2882872 23.4257878,24.2428547 C22.7677334,25.3365556 22.8199514,26.5209736 22.7538796,27.7369896 C22.6952675,28.827123 22.3057632,29.6710973 21.6418475,30.5502371 C21.0040409,31.3952307 20.7125788,32.0521647 20.4696048,33.0729862 C20.3571761,33.5530731 19.8813521,35.6986839 19.0730375,34.7690891 C18.4362966,34.0331599 19.7444129,28.9244655 17.6285148,30.5176198 C17.3061481,30.76225 16.883075,31.3824895 16.4248347,31.3916631 C15.9740541,31.3972693 15.7641161,30.9253368 15.5115511,30.6419735 C14.7591844,29.8071728 13.8895935,30.1537323 13.0247981,29.6180941 C12.7669047,29.4575555 12.2756284,28.752205 11.7944761,28.3495844 C11.7918119,28.3363336 11.7854178,28.3225732 11.7827537,28.311361 C11.5658888,27.8251584 11.2030264,27.6870443 11.2030264,27.2013514 L11.2030264,26.4379012 C11.2030264,25.9104173 10.485827,25.5281826 10.5002136,24.9033562 C10.5114032,24.5226505 10.6915023,24.2515186 10.9392718,24.0068884 C11.0985902,23.843292 11.289346,23.6909077 11.476372,23.5237437 C11.8381688,23.2026666 12.2852195,22.9055428 12.5772145,22.5523579 C12.8995812,22.1701232 13.0823445,21.8847213 13.4489368,21.5702695 C13.8277843,21.242567 14.3888623,20.9846859 14.5950704,20.540784 C14.6989738,20.3165396 14.5886764,20.0133001 14.6867185,19.7839593 C14.7943517,19.5286265 15.0581063,19.4149754 15.1721336,19.156075 C15.4321583,18.5679432 15.2009068,18.1428982 14.9558015,17.6434449 C14.543918,16.7999803 14.7975487,15.5926282 14.2338066,14.7277584 C12.9320843,14.6604851 13.0706221,13.3455977 12.4157647,12.6346411 C12.0497053,12.2345688 11.5578962,12.1846235 11.2547116,11.7295093 C10.9818988,11.3141476 10.8769298,10.6949274 10.9259508,10.2036283 C11.0527662,8.96212998 10.9419359,7.97749335 10.6941665,6.7349757 C10.5503003,5.99089212 10.5439063,5.91342589 11.0554303,5.33039053 C11.476372,4.85590984 11.5685529,4.42627802 11.7800895,3.88758189 C11.9575244,3.43756422 12.2703,3.38507065 12.5058143,3.05991632 C12.8153929,2.63945813 12.644352,2.17211248 12.7780943,1.66705301 C12.9459381,1.02693727 13.4489368,0.532070725 13.8693456,0 C13.8922577,0.04943569 13.9231622,0.0968327948 13.9588624,0.143720253 C14.1767929,0.421477481 14.2492588,0.421477481 14.6115884,0.421477481 C15.2643145,0.421477481 15.8451074,0.49027973 16.4978335,0.699234708 C16.78823,0.769056249 17.1494938,0.837858498 17.440956,0.907170394 C17.8032856,1.04579418 18.0201505,1.25474916 18.4565444,1.32253212 C19.1817364,1.46166556 19.8339296,1.73942278 20.4861228,1.94735847 C21.6184027,2.31073627 22.6659614,2.32806425 23.2238423,3.54357064 C23.6000257,4.37021692 23.9778075,4.91961562 23.6970021,5.77938891 C23.5446106,6.23807057 23.3213516,6.61011236 23.4726775,7.08153518 C23.5909674,7.44491298 23.9634209,7.67527311 24.0577332,8.052921 C24.1898769,8.56868305 23.8344742,8.89383738 23.8243503,9.36882772 C23.1210047,9.00188239 22.6510419,9.27352387 22.2306331,10.1506251 C21.6652924,11.338101 22.1139416,11.6912859 23.1828138,12.2712633 C24.4589599,12.9643823 24.7919834,13.6692231 24.2506204,14.9703501 C23.7460232,16.1838179 23.8616489,17.0410429 24.1461842,18.2871281" id="Fill-25"></path>
                    </g>
                </g>
            </g>
        </g>
    </g>
</svg>