<?xml version="1.0" encoding="UTF-8"?>
<svg width="50px" height="50px" viewBox="0 0 50 50" version="1.1" xmlns="http://www.w3.org/2000/svg" xmlns:xlink="http://www.w3.org/1999/xlink">
    <title>icons/states/North Carolina</title>
    <g id="Icons" stroke="none" stroke-width="1" fill="none" fill-rule="evenodd">
        <g id="icons/states/North-Carolina" fill="#1B3C92">
            <path d="M49.9987569,19.596971 C49.9987569,20.324406 49.9523424,20.4408475 49.4171171,20.8651198 C48.749279,21.3920888 48.7331002,22.9527677 47.5785731,22.8840438 C47.5997912,22.7440029 47.6162352,22.2006958 47.3146736,22.3352907 C47.1170806,22.4224273 47.206992,22.853961 47.1958526,23.0251222 C46.7303816,23.0567611 46.935401,22.3192119 46.4542817,22.3264733 C46.0060505,22.3352907 46.2200875,22.8329548 45.897308,23.0347176 C46.130176,23.2953494 46.5052051,23.6804621 46.4025628,24.052608 C46.3176906,24.3542148 45.4997348,24.7019832 46.0726221,25.0627184 C46.3977887,25.2678524 47.417316,24.7727817 47.8297418,24.7642236 C48.5853696,24.7494415 49.1869013,24.92164 49.1420781,25.7924874 C49.1033552,26.5839783 48.3588669,27.4340789 47.9424627,28.0761927 C47.4671784,28.8124451 46.9380533,28.8759822 46.1002056,29.0046125 C45.5384577,29.0899337 44.684166,29.3998392 44.118705,29.2439788 C44.1014653,29.2393108 44.0836952,29.2343834 44.0675164,29.2284187 C43.7235188,29.4436669 43.2630872,29.5888945 42.9954745,29.7849519 C42.574031,30.0927827 42.1125384,30.3557485 41.7483837,30.7374899 C40.8856047,31.6425695 40.5527466,32.8718181 40.0085036,33.9540236 C39.7361169,34.4947373 39.3295261,35.0364885 38.9889764,35.5281879 C38.9351356,34.9607626 39.0955971,34.4052667 39.0330038,33.8474368 C38.585303,33.9319801 38.6876801,34.3440636 38.5415408,34.6526724 C38.3675528,35.0131483 38.1635943,35.1635627 37.7896261,35.3367985 C37.0729865,35.6677102 36.7051186,35.7849297 36.1470839,36.3362762 C36.1462882,36.3380915 36.1449621,36.3388695 36.143636,36.3404255 L27.9996183,30.8362965 L27.9996183,30.9786715 L21.3565123,32.0377962 L20.2003938,30.5536212 C19.9845002,30.5536212 19.7680761,30.6249384 19.5503258,30.6249384 C19.2612299,30.5536212 19.3339017,30.130905 19.1901495,29.848489 L13.7015706,30.2019628 C13.4138008,30.4133209 13.1976419,30.5536212 12.7632024,30.5536212 C12.4746369,30.5536212 12.0417887,30.5536212 11.7526928,30.6249384 C11.3914555,30.6959962 11.1750314,31.0492107 10.8859355,31.1897703 C10.524433,31.4016471 10.235337,31.1897703 9.87542587,31.3316267 C9.73034746,31.4016471 9.58632995,31.5432441 9.44125154,31.5432441 C9.29723403,31.6132646 9.15348175,31.6132646 8.93599675,31.6132646 C8.64690083,31.6840631 8.21431785,31.8259194 7.99789375,32.0377962 C7.88517286,32.1267482 7.77006495,32.2354096 7.6639747,32.3578158 C5.66125608,32.8041316 3.02597438,33.2312566 0.0336989918,33.6311513 C0.023885644,33.5012244 0.0188463573,33.3705195 0.0188463573,33.2374806 C0.0188463573,33.1275225 -0.0100632347,32.9462472 0.0037284973,32.7839034 C0.0090330096,32.7356671 0.0164593268,32.6892461 0.0302510588,32.6464558 L0.0302510588,32.6451591 C0.0451036932,32.6028875 0.0641999374,32.5647652 0.0915181758,32.5315703 C0.111410097,32.4986348 0.132628146,32.4706266 0.153846195,32.4449524 C0.24667516,32.3349943 0.342686833,32.2737912 0.342686833,32.0730658 C0.342686833,31.9008673 0.271606368,31.7745711 0.28301107,31.6386795 C0.2853981,31.618192 0.289111259,31.5969265 0.295476673,31.5766984 C0.297863704,31.5652876 0.302902991,31.5546549 0.306881375,31.5432441 C0.45169456,31.0847396 0.884277538,31.0492107 1.17337346,30.7667947 C1.19087835,30.7509753 1.20838324,30.7348965 1.22588813,30.7190771 C1.24365825,30.7019609 1.25957178,30.6848448 1.27601577,30.6677287 C1.49854006,30.424213 1.62876584,30.0951167 1.78763598,29.848489 C1.81521945,29.799734 1.84280291,29.7514977 1.87144728,29.7027427 C1.95631947,29.5585523 2.04649618,29.416696 2.14913849,29.2833977 C2.28413833,29.1073092 2.43664306,28.9480774 2.61805738,28.8246339 C2.79814557,28.7196031 2.90582717,28.6130164 3.1235774,28.5780062 C3.25884247,28.5780062 3.38005057,28.5640021 3.50497184,28.5445519 C3.55509948,28.5372905 3.60496189,28.5284731 3.65721134,28.5199151 C3.682673,28.5165437 3.71025646,28.5116164 3.73624857,28.5077263 L3.7375747,28.5064297 C3.91898902,28.4369278 4.06300653,28.4011396 4.27916541,28.4011396 C4.49558951,28.4011396 4.6756777,28.3661293 4.85709202,28.2245324 C4.88334936,28.1983395 4.91597211,28.176296 4.95071666,28.1568459 C4.97458697,28.1433605 4.9997834,28.129875 5.02471461,28.1166489 C5.05097194,28.1031635 5.07722928,28.0883814 5.10454752,28.0738586 C5.11701312,28.0650413 5.13080485,28.0564832 5.14486181,28.0481845 C5.14963587,28.0442944 5.15334903,28.0396264 5.15600129,28.0357364 C5.21859453,27.9693466 5.22230769,27.9011414 5.28994022,27.8010381 C5.30346673,27.7836626 5.31752369,27.7655092 5.33370245,27.746059 C5.44244495,27.6088707 5.60131509,27.4353755 5.75859388,27.3422742 C5.79519502,27.3155627 5.83285706,27.2911852 5.8726409,27.2673264 C5.91136384,27.2445049 5.95273903,27.2224614 5.99411423,27.2014552 C6.0352242,27.1809678 6.07792552,27.1615176 6.12142252,27.1428455 L6.12274865,27.1428455 C6.16544998,27.1244327 6.21027311,27.1078353 6.25536146,27.0904598 C6.43677578,27.0243293 6.62588164,26.970647 6.80596984,26.9180019 C6.95449618,26.8788423 7.08843512,26.7942991 7.201156,26.6853783 C7.25738383,26.6316959 7.30857238,26.5720489 7.35366073,26.5082524 C7.38363123,26.4652028 7.41121469,26.4211158 7.4361459,26.3765102 C7.4610771,26.3308672 7.48229515,26.2857429 7.5013914,26.2390625 C7.52870964,26.1705981 7.54992769,26.1018743 7.56398464,26.0360031 C7.61756022,25.7704439 7.71251099,25.4869906 7.81754033,25.2115767 C7.85281534,25.1202908 7.88915125,25.0292641 7.92522193,24.9413495 C7.97031028,24.8534349 8.02919037,24.7579996 8.09920993,24.6661949 C8.11406257,24.6483008 8.1278543,24.6293693 8.14323739,24.6114752 C8.17320788,24.5743903 8.20423928,24.5391207 8.23686203,24.5048885 C8.36682258,24.3679595 8.52038821,24.253074 8.68350196,24.2001697 C8.75723468,24.1820162 8.81081026,24.1866843 8.84979842,24.2074311 C8.86120312,24.2141738 8.87101647,24.2214352 8.87950369,24.2294745 C8.9283052,24.2777109 8.94077081,24.3630321 8.93599675,24.4608015 C8.93599675,24.482845 8.93360972,24.5074818 8.93095746,24.5303033 C8.92963133,24.5437887 8.9272443,24.5577928 8.9261834,24.5699816 C8.92087889,24.6065478 8.9147787,24.6441514 8.90708716,24.6799397 C8.90602625,24.6921284 8.90363922,24.7043172 8.90072174,24.7165059 C8.89568245,24.7393274 8.89223452,24.7629269 8.88719523,24.7836737 C8.88586911,24.7948252 8.88348208,24.8057172 8.88082982,24.8168686 C8.87579053,24.8472109 8.87101647,24.8754784 8.86703809,24.8998559 C8.86597719,24.9156753 8.86438583,24.9291608 8.86438583,24.9413495 C8.86438583,24.9698764 8.86332493,25.0017746 8.86120312,25.0360068 C8.85961177,25.0855398 8.85722474,25.1384442 8.85961177,25.1908299 C8.85961177,25.2128734 8.8619988,25.2349169 8.86438583,25.2569604 C8.86969034,25.3013067 8.87950369,25.3435783 8.89727381,25.3804039 C8.90708716,25.4016694 8.91955276,25.4193042 8.93599675,25.4359016 C9.02617346,25.5248536 9.1736389,25.5297809 9.31500415,25.4955487 C9.3486878,25.4869906 9.38237146,25.4773952 9.41472898,25.4652065 C9.43117297,25.4589824 9.44761696,25.4517211 9.46246959,25.445497 C9.49376622,25.4309742 9.52400194,25.4161921 9.54999405,25.399854 C9.5950824,25.3829972 9.63990553,25.3630284 9.68525911,25.3412443 C9.73034746,25.3192008 9.77517059,25.2948233 9.82052417,25.2678524 C9.91043566,25.2154667 10.001408,25.1532263 10.0915848,25.0821685 C10.270612,24.9429055 10.3430186,24.766817 10.4867709,24.5894317 C10.6947078,24.3368393 10.7458963,24.2442567 11.0387054,24.0829502 C11.2185284,23.9828468 11.6039012,23.8664054 11.7251093,23.7084703 C11.8977712,23.4833674 11.7489796,23.3052041 12.0417887,23.1415636 L11.5314946,19.7940657 C11.6203452,19.7813582 11.7076044,19.7678728 11.796455,19.7556841 C11.8052074,19.7543874 11.8139599,19.7533501 11.8229776,19.7523127 C13.651443,19.501795 14.9462744,19.321557 14.9735926,19.3179264 C15.0298205,19.3096276 16.4471862,19.0928235 18.3732546,18.7953661 C18.52072,18.7735819 18.6684507,18.7515384 18.8175075,18.7287169 C21.446689,18.3345275 24.0143382,17.9382634 26.471123,17.5518541 C26.5636868,17.5373313 26.6549244,17.5238459 26.743775,17.5090638 C26.7498752,17.5077671 26.7575667,17.5064704 26.7639321,17.5064704 C29.9919931,16.9966175 33.0253784,16.5051774 35.7484498,16.0549716 C35.7932729,16.0474509 35.8383613,16.0401895 35.8821235,16.0329282 C39.3345653,15.4447561 46.4853131,14.2227689 47.6334748,14.0267115 C47.6435534,14.0261928 47.6523058,14.0246368 47.6610583,14.0220435 C47.6897027,14.0171161 47.7172861,14.0121888 47.7448696,14.0072614 C47.7573352,14.0051867 47.7684747,14.0041494 47.7798794,14.0018153 C47.7825316,14.0018153 47.7846534,14.0018153 47.7873057,14 L47.7896927,14 C47.7896927,14.0910266 47.7910188,14.1812753 47.7957929,14.2704865 C47.8350463,14.2769699 47.8761563,14.2865653 47.9151444,14.29253 C47.8562643,14.8552873 47.8687299,15.3602128 48.4914797,15.6159172 C48.5981004,15.3322046 48.5675994,15.0303385 48.5880218,14.7168023 C49.0633061,14.6745307 48.9768426,15.4701709 49.080811,15.766591 C49.1768227,16.0414862 49.4046515,16.2453236 49.5083547,16.5272209 C49.0654279,16.6006128 48.0485529,15.8179393 47.9151444,16.3864019 C47.8650168,16.5982788 47.2194576,15.8869225 47.1892219,15.8869225 C46.6980241,15.8799204 46.780244,16.9027382 46.759026,17.164148 C46.2914332,17.3965123 46.1837516,17.1078723 45.8734376,16.8913275 C45.5360707,16.6542951 45.293124,16.6102082 44.9141166,16.4815779 C44.5152173,17.0956836 46.4476511,17.693451 44.8817591,17.9359294 C44.512565,17.9932425 44.0624772,18.0731177 43.8147564,17.8078178 C43.5147863,17.488317 43.7823989,17.0028416 43.180602,16.9009229 C43.025445,17.1065756 43.1092563,17.3570934 43.2256903,17.5176218 C43.1607101,17.5212525 43.0944037,17.5324039 43.0280973,17.5396653 C43.0867121,17.9175166 42.6238934,18.5585931 42.7777243,18.8412684 C43.0994429,19.4356645 43.7948645,18.59879 44.1139309,18.4763838 C44.6152073,18.2894032 45.1607764,18.5292882 45.6938799,18.4201081 C46.1651858,18.3249321 46.736747,18.2331275 47.1817956,18.0560016 C47.8849087,17.7759196 49.2868913,17.4247798 49.7759673,18.1877438 C50.035358,18.5915286 49.9974307,19.1433938 49.9987569,19.596971" id="Fill-252"></path>
        </g>
    </g>
</svg>