<?xml version="1.0" encoding="UTF-8"?>
<svg width="35px" height="17px" viewBox="0 0 35 17" version="1.1" xmlns="http://www.w3.org/2000/svg" xmlns:xlink="http://www.w3.org/1999/xlink">
    <title>icons/states/North Carolina</title>
    <g id="Find-Unit---FLOW" stroke="none" stroke-width="1" fill="none" fill-rule="evenodd">
        <g id="Mobile-/-Find-Units---US-Map" transform="translate(-34.000000, -545.000000)" fill="#1B3C92">
            <g id="Group" transform="translate(0.000000, 116.000000)">
                <g id="Group-6-Copy-6" transform="translate(18.000000, 412.000000)">
                    <g id="icons/states/North-Carolina" transform="translate(16.000000, 8.000000)">
                        <path d="M34.9991298,13.7178797 C34.9991298,14.2270842 34.9666397,14.3085933 34.591982,14.6055839 C34.1244953,14.9744622 34.1131702,16.0669374 33.3050012,16.0188307 C33.3198538,15.920802 33.3313646,15.540487 33.1202715,15.6347035 C32.9819564,15.6956991 33.0448944,15.9977727 33.0370968,16.1175855 C32.7112671,16.1397327 32.8547807,15.6234483 32.5179972,15.6285313 C32.2042353,15.6347035 32.3540613,15.9830684 32.1281156,16.1243023 C32.2911232,16.3067446 32.5536435,16.5763234 32.4817939,16.8368256 C32.4223834,17.0479503 31.8498143,17.2913882 32.2508355,17.5439028 C32.4784521,17.6874967 33.1921212,17.3409472 33.4808192,17.3349565 C34.0097587,17.3246091 34.4308309,17.445148 34.3994547,18.0547412 C34.3723486,18.6087848 33.8512068,19.2038552 33.5597239,19.6533349 C33.2270249,20.1687116 32.8566373,20.2131876 32.2701439,20.3032287 C31.8769204,20.3629536 31.2789162,20.5798874 30.8830935,20.4707852 C30.8710257,20.4675175 30.8585866,20.4640684 30.8472615,20.4598931 C30.6064632,20.6105668 30.284161,20.7122262 30.0968322,20.8494663 C29.8018217,21.0649479 29.4787769,21.249024 29.2238686,21.5162429 C28.6199233,22.1497986 28.3869226,23.0102726 28.0059525,23.7678165 C27.8152818,24.1463161 27.5306682,24.5255419 27.2922835,24.8697315 C27.2545949,24.4725338 27.3669179,24.0836867 27.3231027,23.6932058 C27.0097121,23.7523861 27.0813761,24.0408445 26.9790785,24.2568707 C26.8572869,24.5092038 26.714516,24.6144939 26.4527383,24.735759 C25.9510906,24.9673971 25.693583,25.0494508 25.3029587,25.4353933 C25.3024018,25.4366641 25.3014735,25.4372087 25.3005452,25.4382979 L19.5997328,21.5854076 L19.5997328,21.6850701 L14.9495586,22.4264574 L14.1402757,21.3875349 C13.9891501,21.3875349 13.8376533,21.4374569 13.6852281,21.4374569 C13.4828609,21.3875349 13.5337312,21.0916335 13.4331046,20.8939423 L9.59109941,21.141374 C9.38966056,21.2893247 9.23834935,21.3875349 8.93424166,21.3875349 C8.73224583,21.3875349 8.42925209,21.3875349 8.22688494,21.4374569 C7.97401884,21.4871974 7.82252197,21.7344475 7.62015483,21.8328392 C7.36710307,21.981153 7.16473592,21.8328392 6.91279811,21.9321387 C6.81124322,21.981153 6.71043097,22.0802709 6.60887608,22.0802709 C6.50806382,22.1292852 6.40743723,22.1292852 6.25519772,22.1292852 C6.05283058,22.1788442 5.7500225,22.2781436 5.59852562,22.4264574 C5.519621,22.4887237 5.43904546,22.5647867 5.36478229,22.6504711 C3.96287926,22.9628921 2.11818206,23.2618796 0.0235892942,23.5418059 C0.0167199508,23.4508571 0.0131924501,23.3593637 0.0131924501,23.2662364 C0.0131924501,23.1892657 -0.00704426426,23.0623731 0.00260994811,22.9487324 C0.00632310672,22.914967 0.0115215288,22.8824723 0.0211757411,22.8525191 L0.0211757411,22.8516114 C0.0315725852,22.8220213 0.0449399562,22.7953357 0.064062723,22.7720992 C0.0779870678,22.7490444 0.0928397022,22.7294386 0.107692337,22.7114667 C0.172672612,22.634496 0.239880783,22.5916539 0.239880783,22.4511461 C0.239880783,22.3306071 0.190124458,22.2421998 0.198107749,22.1470756 C0.19977867,22.1327344 0.202377881,22.1178486 0.206833671,22.1036889 C0.208504593,22.0957013 0.212032093,22.0882584 0.214816962,22.0802709 C0.316186192,21.7593177 0.618994277,21.7344475 0.821361421,21.5367563 C0.833614844,21.5256827 0.845868267,21.5144276 0.858121691,21.5033539 C0.870560772,21.4913727 0.881700248,21.4793914 0.89321104,21.4674101 C1.04897804,21.2969491 1.14013609,21.0665817 1.25134519,20.8939423 C1.27065361,20.8598138 1.28996204,20.8260484 1.31001309,20.7919199 C1.36942363,20.6909866 1.43254733,20.5916872 1.50439695,20.4983784 C1.59889683,20.3751164 1.70565014,20.2636542 1.83264017,20.1772437 C1.9587019,20.1037222 2.03407902,20.0291115 2.18650418,20.0046043 C2.28118973,20.0046043 2.3660354,19.9948014 2.45348029,19.9811863 C2.48856963,19.9761034 2.52347333,19.9699312 2.56004794,19.9639406 C2.5778711,19.9615806 2.59717952,19.9581315 2.615374,19.9554084 L2.61630229,19.9545008 C2.74329231,19.9058495 2.84410457,19.8807977 2.99541578,19.8807977 C3.14691265,19.8807977 3.27297439,19.8562905 3.39996441,19.7571727 C3.41834455,19.7388377 3.44118047,19.7234072 3.46550166,19.7097921 C3.48221088,19.7003523 3.49984838,19.6909125 3.51730023,19.6816543 C3.53568036,19.6722145 3.5540605,19.661867 3.57318326,19.6517011 C3.58190919,19.6455289 3.5915634,19.6395382 3.60140327,19.6337291 C3.60474511,19.6310061 3.60734432,19.6277385 3.6092009,19.6250155 C3.65301617,19.5785426 3.65561538,19.530799 3.70295816,19.4607267 C3.71242671,19.4485638 3.72226658,19.4358564 3.73359171,19.4222413 C3.80971147,19.3262095 3.92092057,19.2047629 4.03101572,19.139592 C4.05663651,19.1208939 4.08299994,19.1038296 4.11084863,19.0871285 C4.13795469,19.0711534 4.16691732,19.055723 4.19587996,19.0410187 C4.22465694,19.0266774 4.25454787,19.0130623 4.28499577,18.9999918 L4.28592406,18.9999918 C4.31581498,18.9871029 4.34719117,18.9754847 4.37875302,18.9633219 C4.50574305,18.9170305 4.63811715,18.8794529 4.76417889,18.8426014 C4.86814733,18.8151896 4.96190458,18.7560094 5.0408092,18.6797648 C5.08016868,18.6421872 5.11600066,18.6004342 5.14756251,18.5557767 C5.16854186,18.5256419 5.18785028,18.4947811 5.20530213,18.4635571 C5.22275397,18.431607 5.23760661,18.40002 5.25097398,18.3673438 C5.27009675,18.3194186 5.28494938,18.271312 5.29478925,18.2252022 C5.33229215,18.0393108 5.39875769,17.8408934 5.47227823,17.6481037 C5.49697074,17.5842035 5.52240587,17.5204849 5.54765535,17.4589447 C5.5792172,17.3974044 5.62043326,17.3305997 5.66944695,17.2663364 C5.6798438,17.2538106 5.68949801,17.2405585 5.70026617,17.2280326 C5.72124552,17.2020732 5.74296749,17.1773845 5.76580342,17.1534219 C5.85677581,17.0575717 5.96427175,16.9771518 6.07845137,16.9401188 C6.13006428,16.9274114 6.16756718,16.930679 6.1948589,16.9452017 C6.20284219,16.9499216 6.20971153,16.9550046 6.21565258,16.9606322 C6.24981364,16.9943976 6.25853957,17.0541225 6.25519772,17.122561 C6.25519772,17.1379915 6.2535268,17.1552373 6.25167022,17.1712123 C6.25074193,17.1806521 6.24907101,17.190455 6.24832838,17.1989871 C6.24461522,17.2245835 6.24034509,17.250906 6.23496101,17.2759578 C6.23421838,17.2844899 6.23254746,17.293022 6.23050522,17.3015542 C6.22697772,17.3175292 6.22456416,17.3340489 6.22103666,17.3485716 C6.22010837,17.3563776 6.21843745,17.3640021 6.21658087,17.371808 C6.21305337,17.3930476 6.20971153,17.4128349 6.20692666,17.4298991 C6.20618403,17.4409727 6.20507008,17.4504125 6.20507008,17.4589447 C6.20507008,17.4789135 6.20432745,17.5012422 6.20284219,17.5252048 C6.20172824,17.5598779 6.20005732,17.5969109 6.20172824,17.6335809 C6.20172824,17.6490114 6.20339916,17.6644418 6.20507008,17.6798723 C6.20878324,17.7109147 6.21565258,17.7405048 6.22809167,17.7662827 C6.23496101,17.7811686 6.24368693,17.7935129 6.25519772,17.8051311 C6.31832142,17.8673975 6.42154723,17.8708467 6.52050291,17.8468841 C6.54408146,17.8408934 6.56766002,17.8341767 6.59031029,17.8256445 C6.60182108,17.8212877 6.61333187,17.8162047 6.62372871,17.8118479 C6.64563635,17.801682 6.66680135,17.7913345 6.68499583,17.7798978 C6.71655768,17.7680981 6.74793387,17.7541199 6.77968138,17.738871 C6.81124322,17.7234406 6.84261941,17.7063763 6.87436692,17.6874967 C6.93730496,17.6508267 7.00098563,17.6072584 7.06410933,17.5575179 C7.18942843,17.4600339 7.24011304,17.3367719 7.34073964,17.2126022 C7.48629546,17.0357875 7.52212744,16.9709797 7.72709379,16.8580651 C7.85296987,16.7879928 8.12273084,16.7064837 8.20757652,16.5959292 C8.32843983,16.4383571 8.22428573,16.3136429 8.42925209,16.1990945 L8.07204623,13.855846 C8.13424164,13.8469508 8.19532309,13.837511 8.2575185,13.8289788 C8.26364521,13.8280712 8.26977192,13.827345 8.27608429,13.8266189 C9.55601007,13.6512565 10.4623921,13.5250899 10.4815148,13.5225484 C10.5208743,13.5167393 11.5130303,13.3649764 12.8612782,13.1567562 C12.964504,13.1415073 13.0679155,13.1260769 13.1722552,13.1101018 C15.0126823,12.8341693 16.8100367,12.5567844 18.5297861,12.2862978 C18.5945807,12.2761319 18.6584471,12.2666921 18.7206425,12.2563446 C18.7249126,12.255437 18.7302967,12.2545293 18.7347525,12.2545293 C20.9943951,11.8976323 23.1177649,11.5536242 25.0239149,11.2384801 C25.0552911,11.2332156 25.0868529,11.2281327 25.1174865,11.2230497 C27.5341957,10.8113292 32.5397192,9.95593822 33.3434324,9.81869806 C33.3504874,9.81833499 33.3566141,9.81724579 33.3627408,9.81543044 C33.3827919,9.81198128 33.4021003,9.80853213 33.4214087,9.80508297 C33.4301346,9.80363069 33.4379323,9.80290455 33.4459156,9.80127074 C33.4477721,9.80127074 33.4492574,9.80127074 33.451114,9.8 L33.4527849,9.8 C33.4527849,9.86371864 33.4537132,9.92689268 33.457055,9.98934058 C33.4845324,9.99387895 33.5133094,10.0005957 33.5406011,10.004771 C33.499385,10.3987011 33.508111,10.752149 33.9440358,10.9311421 C34.0186703,10.7325432 33.9973196,10.521237 34.0116153,10.3017616 C34.3443143,10.2721715 34.2837898,10.8291196 34.3565677,11.0366137 C34.4237759,11.2290403 34.583256,11.3717265 34.6558483,11.5690546 C34.3457995,11.6204289 33.633987,11.0725575 33.5406011,11.4704814 C33.5055118,11.6187951 33.0536204,11.1208457 33.0324553,11.1208457 C32.6886169,11.1159443 32.7461708,11.8319167 32.7313182,12.0149036 C32.4040033,12.1775586 32.3286261,11.9755106 32.1114064,11.8239292 C31.8752495,11.6580066 31.7051868,11.6271457 31.4398816,11.5371046 C31.1606521,11.9669785 32.5133558,12.3854157 31.4172314,12.5551506 C31.1587955,12.5952697 30.843734,12.6511824 30.6703295,12.4654725 C30.4603504,12.2418219 30.6476792,11.9019891 30.2264214,11.830646 C30.1178115,11.9746029 30.1764794,12.1499654 30.2579832,12.2623353 C30.212497,12.2648768 30.1660826,12.2726827 30.1196681,12.2777657 C30.1606985,12.5422616 29.8367254,12.9910151 29.944407,13.1888879 C30.1696101,13.6049652 30.6564052,13.019153 30.8797516,12.9334687 C31.2306451,12.8025822 31.6125435,12.9705017 31.9857159,12.8940757 C32.3156301,12.8274525 32.7157229,12.7631892 33.0272569,12.6392011 C33.5194361,12.4431437 34.5008239,12.1973459 34.8431771,12.7314207 C35.0247506,13.01407 34.9982015,13.4003757 34.9991298,13.7178797" id="Fill-252"></path>
                    </g>
                </g>
            </g>
        </g>
    </g>
</svg>