<?xml version="1.0" encoding="UTF-8"?>
<svg width="30px" height="35px" viewBox="0 0 30 35" version="1.1" xmlns="http://www.w3.org/2000/svg" xmlns:xlink="http://www.w3.org/1999/xlink">
    <title>icons/states/Ohio</title>
    <g id="Find-Unit---FLOW" stroke="none" stroke-width="1" fill="none" fill-rule="evenodd">
        <g id="Mobile-/-Find-Units---US-Map" transform="translate(-36.000000, -598.000000)" fill="#1B3C92">
            <g id="Group" transform="translate(0.000000, 116.000000)">
                <g id="Group-6-Copy-7" transform="translate(18.000000, 474.000000)">
                    <g id="icons/states/Ohio" transform="translate(16.000000, 8.000000)">
                        <path d="M29.0157537,0.314622021 C28.60138,0.63573428 28.3083015,1.10055896 27.9265605,1.45937641 C27.5269639,1.83457398 27.0140764,2.06296856 26.6274098,2.4421839 C26.2795329,2.78060346 26.1459236,3.30507651 25.7284713,3.56870381 C25.2275902,3.88734359 24.6623673,3.8925976 24.3206476,4.45477584 C23.9653822,5.04136975 23.9616879,5.71820887 23.4257113,6.21486662 C22.9590021,6.64569481 22.4513482,6.72821355 21.8479512,6.66269305 C21.3399894,6.60829867 20.6950318,6.47200367 20.2067728,6.68958118 C19.7145117,6.90839492 19.581518,7.53763897 19.1068047,7.77314189 C18.6557962,7.99813682 18.0736412,7.66002631 17.5933864,7.67022526 C17.1140552,7.68042421 16.6550425,7.70267645 16.1772505,7.69742245 C15.9063376,7.6940228 14.7811253,8.15143006 14.6210403,7.95517762 C14.3335032,7.60130511 15.6619002,7.09321218 15.8533864,7.02274674 C15.2906263,7.06477876 14.0133333,7.25824967 13.7984501,6.55977642 C13.1747346,6.76870027 12.9182909,6.46087755 12.3530679,6.29923971 C11.9747134,6.19106908 11.4202654,6.30758431 11.1906051,5.97132816 C9.06424628,6.36970516 3.65306794,7.01316591 2.8,7.11299196 L6.3347983,31.7996945 C6.64696391,31.6448559 6.98714437,31.5419393 7.18201699,31.5397759 C7.58900212,31.5385397 7.6259448,31.7947495 7.95812102,31.8621244 C8.29676221,31.9310445 8.69512739,31.7910408 9.0266879,31.8806679 C9.58575372,32.0265437 10.1540552,32.5262921 10.7060403,32.803518 C11.2955839,33.1017599 11.9291507,33.421945 12.5497877,33.584819 C13.269862,33.7755084 13.7553503,33.5665845 14.4803503,33.5579309 C15.7992038,33.5415508 16.8058917,33.1308114 18.0813376,33.5832737 C19.1135775,33.9488905 19.7040446,34.2075728 20.0663907,34.8964652 C20.084862,34.9292255 20.1033333,34.9650763 20.1184183,35 C20.5140127,34.8924475 21.4169533,35.0256519 21.6854034,34.8235273 C22.0206582,34.5713352 21.8522611,34.0663329 22.1881316,33.8141408 C22.4402654,33.7294586 22.5227707,33.8141408 22.7752123,33.5610215 C22.858949,33.4772665 23.0264225,33.3094475 23.0264225,33.1403922 C23.1101592,32.719763 22.6077389,32.3835068 22.5227707,32.0466326 C22.3556051,31.5419393 22.5227707,31.3741203 22.690552,30.9528729 C22.9423779,30.4478706 22.7752123,29.606303 23.193896,29.2700469 C23.6131953,28.8494176 23.7809766,29.3541109 24.1168471,29.5219299 C24.3674416,29.606303 24.7864331,29.5219299 24.9548301,29.438484 C25.2060403,29.1862919 25.1216879,29.0172367 25.1216879,28.7656627 C25.1216879,28.3447244 25.0376433,27.8400311 25.2060403,27.5031568 C25.3735138,27.2506556 25.8759342,26.8297173 26.2118047,26.6615893 C26.5464437,26.24096 27.2172611,26.156896 27.6362527,25.8200217 C27.8883864,25.6522027 28.0549363,25.3993925 28.2230255,25.2309553 C28.3067622,24.9787632 28.6417091,24.7265711 28.7260616,24.47407 C28.8101062,24.2215688 28.8101062,23.8006305 29.0613163,23.6321933 C29.0613163,23.4643743 29.1453609,23.4643743 29.2287898,23.2959372 C29.3962633,22.959372 29.648397,22.7068708 29.9833439,22.5384337 C30.1508174,22.4546787 30.4866879,22.2862416 30.6532378,22.1184226 C30.7378981,21.9499854 30.7378981,21.5290471 30.7378981,21.3609191 C30.7378981,20.8559167 30.4866879,20.4352875 30.4866879,19.9299761 C30.4866879,19.3412188 30.4866879,18.8368345 30.6532378,18.3315231 C30.8216348,17.8265208 31.0725372,17.3218275 31.1562739,16.9011983 C31.3573036,16.1619292 31.2363163,15.5305218 30.9687898,14.9222937 C30.9007537,14.7674552 30.8228662,14.614162 30.7378981,14.4605597 C30.9053715,14.2086766 30.8216348,13.7880474 30.9053715,13.5349281 C31.0725372,13.282736 31.4915287,13.1986719 31.5758811,12.9464798 C31.6590021,12.9634781 31.7344268,12.9566788 31.8,12.9328812 L29.6363907,0 C29.4215074,0.0673748532 29.2124735,0.161637836 29.0157537,0.314622021" id="Fill-190"></path>
                    </g>
                </g>
            </g>
        </g>
    </g>
</svg>