<?xml version="1.0" encoding="UTF-8"?>
<svg width="50px" height="50px" viewBox="0 0 50 50" version="1.1" xmlns="http://www.w3.org/2000/svg" xmlns:xlink="http://www.w3.org/1999/xlink">
    <title>icons/states/Ohio</title>
    <g id="Icons" stroke="none" stroke-width="1" fill="none" fill-rule="evenodd">
        <g id="icons/states/Ohio" fill="#1B3C92">
            <path d="M41.4510767,0.44946003 C40.8591143,0.908191828 40.4404307,1.57222708 39.8950864,2.08482344 C39.3242342,2.62081998 38.5915378,2.94709794 38.0391568,3.48883414 C37.5421899,3.97229066 37.3513194,4.72153788 36.7549591,5.0981483 C36.0394146,5.55334799 35.2319533,5.56085371 34.7437822,6.36396549 C34.2362602,7.20195678 34.2309827,8.16886982 33.4653018,8.87838088 C32.7985745,9.49384973 32.0733546,9.61173364 31.2113588,9.51813293 C30.4856991,9.44042668 29.5643312,9.24571953 28.8668183,9.55654454 C28.1635881,9.86913561 27.9735972,10.7680557 27.2954352,11.1044884 C26.6511374,11.4259097 25.8194874,10.9428947 25.1334092,10.9574647 C24.4486503,10.9720346 23.7929178,11.0038235 23.1103579,10.9963178 C22.7233394,10.9914611 21.1158932,11.6449001 20.8872005,11.3645395 C20.4764331,10.8590073 22.3741432,10.1331603 22.6476949,10.0324953 C21.8437519,10.0925411 20.0190476,10.3689281 19.7120716,9.37110917 C18.8210494,9.66957182 18.4547012,9.22982507 17.6472399,8.99891388 C17.1067334,8.8443844 16.3146648,9.01083472 15.9865787,8.5304688 C12.9489233,9.0995788 5.21866849,10.0188084 4,10.1614171 L9.04971186,45.428135 C9.49566272,45.206937 9.98163482,45.0599133 10.2600243,45.0568227 C10.8414316,45.0550566 10.8942069,45.4210708 11.3687443,45.5173205 C11.8525174,45.6157779 12.4216106,45.4157726 12.8952684,45.5438113 C13.6939339,45.7522054 14.5057931,46.4661316 15.2943433,46.8621685 C16.1365484,47.2882284 17.0416439,47.7456356 17.9282681,47.9783129 C18.9569457,48.2507263 19.6505005,47.9522636 20.6862147,47.9399013 C22.5702912,47.9165011 24.0084167,47.3297306 25.8304823,47.9761053 C27.3051107,48.498415 28.1486351,48.8679612 28.6662724,49.8520932 C28.69266,49.8988936 28.7190476,49.9501091 28.7405975,50 C29.3057325,49.8463535 30.5956476,50.0366456 30.9791477,49.7478962 C31.4580831,49.3876217 31.2175159,48.6661898 31.6973309,48.3059154 C32.057522,48.1849409 32.1753867,48.3059154 32.5360176,47.9443164 C32.6556415,47.8246664 32.8948893,47.584925 32.8948893,47.3434175 C33.0145132,46.7425186 32.2967698,46.2621526 32.1753867,45.7809037 C31.9365787,45.0599133 32.1753867,44.8201718 32.4150743,44.2183899 C32.7748256,43.496958 32.5360176,42.2947186 33.1341371,41.8143527 C33.7331362,41.2134538 33.9728238,41.9344442 34.4526388,42.1741856 C34.8106309,42.2947186 35.4091902,42.1741856 35.6497574,42.0549772 C36.0086291,41.6947027 35.8881256,41.4531952 35.8881256,41.0938038 C35.8881256,40.4924634 35.7680619,39.771473 36.0086291,39.290224 C36.2478769,38.9295081 36.9656203,38.3281676 37.4454352,38.0879847 C37.9234911,37.4870858 38.8818016,37.3669943 39.4803609,36.8857453 C39.840552,36.6460039 40.0784804,36.2848464 40.3186078,36.0442219 C40.4382317,35.6839475 40.9167273,35.323673 41.0372308,34.9629571 C41.1572945,34.6022411 41.1572945,34.0009007 41.5161662,33.7602762 C41.5161662,33.5205348 41.6362299,33.5205348 41.755414,33.2799103 C41.9946618,32.7991028 42.3548529,32.4383869 42.8333485,32.1977624 C43.0725963,32.0781124 43.5524113,31.837488 43.7903397,31.5977465 C43.911283,31.357122 43.911283,30.7557816 43.911283,30.5155986 C43.911283,29.7941667 43.5524113,29.1932678 43.5524113,28.4713944 C43.5524113,27.6303125 43.5524113,26.9097636 43.7903397,26.1878902 C44.0309069,25.4664583 44.3893388,24.7454679 44.5089627,24.144569 C44.796148,23.0884703 44.6233091,22.1864597 44.2411283,21.3175625 C44.1439339,21.0963646 44.0326661,20.8773742 43.911283,20.6579424 C44.1505308,20.2981094 44.0309069,19.6972105 44.1505308,19.3356115 C44.3893388,18.9753371 44.9878981,18.8552456 45.1084016,18.4949712 C45.2271459,18.5192544 45.3348954,18.5095411 45.4285714,18.4755446 L42.3377009,0 C42.0307249,0.0962497903 41.7321049,0.230911194 41.4510767,0.44946003" id="Fill-190"></path>
        </g>
    </g>
</svg>