<?xml version="1.0" encoding="UTF-8"?>
<svg width="35px" height="28px" viewBox="0 0 35 28" version="1.1" xmlns="http://www.w3.org/2000/svg" xmlns:xlink="http://www.w3.org/1999/xlink">
    <title>icons/states/South Carolina</title>
    <g id="Find-Unit---FLOW" stroke="none" stroke-width="1" fill="none" fill-rule="evenodd">
        <g id="Mobile-/-Find-Units---US-Map" transform="translate(-34.000000, -659.000000)" fill="#1B3C92">
            <g id="Group" transform="translate(0.000000, 116.000000)">
                <g id="Group-6-Copy-8" transform="translate(18.000000, 531.000000)">
                    <g id="icons/states/South-Carolina" transform="translate(16.000000, 8.000000)">
                        <path d="M35,12.1103612 C34.3872852,12.731612 33.8162818,13.2492156 33.4459354,14.0717567 C33.0844368,14.8781819 32.7782374,15.6700712 32.4028351,16.4739684 C32.0012051,17.3372731 31.7392451,18.8082407 30.7328002,19.2057653 C30.6294698,18.9460155 30.5397271,18.6739418 30.3725656,18.4467397 C29.4018282,18.896404 30.2537514,20.3401958 30.3602418,21.0069501 C29.3838165,21.0606697 28.8159731,20.7459363 28.5078777,21.9103865 C28.2961609,22.7089118 28.153331,23.5437767 27.1876496,23.9356134 C26.9534971,23.5952843 26.6305499,23.2047116 26.1540291,23.3333225 C25.4834872,23.512809 25.8576256,23.8155344 25.8645775,24.2819465 C25.8769013,24.9907285 24.9478753,25.6603269 24.103536,25.6524269 C24.0719364,25.4707285 23.9923056,25.2782861 24.0046294,25.0905837 C23.8820233,25.4985362 23.7954406,26.1535987 23.4620656,26.4275684 C23.0651756,26.7530456 22.4306571,26.3997606 22.2094605,26.946436 C21.974992,27.5291351 22.9311936,27.7623411 22.571275,28.2891087 C22.1829169,28.8610638 21.4046206,28.2 21.3208818,27.7386413 C20.6674037,28.2 21.9298047,28.9135194 21.7522153,29.5230783 C21.3420535,29.6567451 21.5256467,30.149069 21.4254763,30.4875021 C21.3224618,30.8436311 21.1145369,31.1700564 20.8816484,31.4222222 C20.6256923,31.1662644 20.3602563,30.9201025 20.049317,30.6976403 C19.8774155,30.6126371 19.7055141,30.5260538 19.6186154,30.3535192 C19.1888619,29.9237629 18.9300618,29.7521763 18.4153055,29.5793258 C17.8977053,29.4077392 18.0705547,29.0633021 17.984288,28.6335458 C17.984288,28.4610112 17.8977053,28.2031574 17.8117546,28.0312548 C17.6398532,27.8596683 17.3820011,27.773085 17.2100997,27.6008665 C17.124465,27.3436446 17.0381983,27.1707941 16.8662969,26.9992076 C16.7793982,26.7400897 16.521546,26.7400897 16.3496446,26.5685032 C16.0911605,26.3106494 16.0911605,25.880577 15.9192591,25.5361399 C15.8333084,25.3636054 15.661091,25.1920188 15.661091,25.0201163 C15.5751403,24.7622624 15.5751403,24.5044086 15.4895056,24.3315581 C15.3176042,23.987437 15.1457027,23.3854621 14.8872186,23.2138755 C14.4568331,22.9550737 14.0270796,22.7828551 13.6826448,22.439366 C13.3388419,22.1811962 13.0803578,21.9246064 12.6502883,21.7523878 C11.3885193,21.2461601 11.077896,20.3243959 10.0900948,19.5811702 C9.52762328,19.1593137 9.02076691,18.7412493 8.45513542,18.3746924 C7.96597478,18.059643 7.65155951,17.5079117 7.14280716,17.1922303 C6.1303584,16.5630796 6.07600722,16.8003936 5.71988057,15.6495314 C5.44938864,14.7786427 4.70837979,14.5564966 4.30516986,13.7494394 C4.13326845,13.4059503 3.78883363,12.8033434 3.44471481,12.6311248 C3.18686269,12.5454896 3.10091198,12.7177081 2.84337586,12.4595383 C2.67052646,12.2010525 2.58457575,12.0288339 2.32672363,11.8569314 C1.89602211,11.6847128 1.55221929,11.8569314 1.12246575,11.7709801 C0.433912112,11.5990775 0.262010699,10.7386168 0.0891612995,10.2225932 C-0.0827401139,9.7918888 0.00415857851,9.53403498 0.262010699,9.10396261 C0.347961405,8.84610878 0.347961405,8.67357424 0.433912112,8.32913715 C0.552094334,7.97522013 0.79161873,7.58085546 1.06906256,7.25759019 C1.19577665,7.10812345 1.33228659,6.97540457 1.46626858,6.86733349 C1.7241207,6.60947966 2.24045693,6.43726112 2.58457575,6.35067785 C2.84337586,6.35067785 3.01464528,6.35067785 3.18686269,6.26504257 C3.3587641,6.26504257 3.53066552,6.09345602 3.70351491,6.00718875 C4.13326845,5.8349702 4.47738727,6.09345602 4.9074568,5.8349702 C5.25157562,5.66275165 5.50942774,5.23236329 5.94012926,5.14609601 C6.28393209,5.06014474 6.80058431,5.06014474 7.14438714,5.06014474 C7.66072337,5.06014474 7.91889149,4.88824219 8.26269431,4.63038837 L14.8009519,4.2 C14.9728533,4.5441211 14.8872186,5.06014474 15.2307055,5.14609601 C15.4895056,5.14609601 15.7470417,5.06014474 16.0061578,5.06014474 L17.3820011,6.86733349 L25.296734,5.57680038 L25.296734,5.40458183 L35,12.1103612 Z" id="Fill-5"></path>
                    </g>
                </g>
            </g>
        </g>
    </g>
</svg>