<?xml version="1.0" encoding="UTF-8"?>
<svg width="50px" height="50px" viewBox="0 0 50 50" version="1.1" xmlns="http://www.w3.org/2000/svg" xmlns:xlink="http://www.w3.org/1999/xlink">
    <title>icons/states/South Carolina</title>
    <g id="Icons" stroke="none" stroke-width="1" fill="none" fill-rule="evenodd">
        <g id="icons/states/South-Carolina" fill="#1B3C92">
            <path d="M50,17.300516 C49.1246932,18.1880171 48.308974,18.9274509 47.7799077,20.1025095 C47.2634812,21.2545455 46.8260535,22.385816 46.2897644,23.5342406 C45.7160073,24.767533 45.3417787,26.8689153 43.9040003,27.4368076 C43.7563854,27.0657365 43.6281816,26.6770598 43.3893795,26.3524854 C42.0026118,26.9948628 43.2196449,29.0574225 43.371774,30.0099288 C41.9768807,30.086671 41.1656758,29.6370519 40.7255396,31.3005522 C40.423087,32.4413025 40.2190443,33.6339667 38.8394994,34.1937335 C38.5049958,33.707549 38.0436428,33.149588 37.3628987,33.3333179 C36.4049817,33.5897271 36.9394651,34.022192 36.9493964,34.688495 C36.9670018,35.7010407 35.6398218,36.6576098 34.4336228,36.6463242 C34.3884806,36.3867549 34.2747223,36.1118373 34.2923278,35.843691 C34.1171761,36.4264803 33.9934866,37.3622838 33.5172366,37.7536691 C32.9502508,38.2186366 32.0437959,37.7139437 31.7278007,38.4949086 C31.3928457,39.3273358 32.758848,39.6604873 32.2446786,40.4130124 C31.6898812,41.2300912 30.5780294,40.2857106 30.4584026,39.6266304 C29.5248624,40.2857106 31.3282924,41.3050277 31.0745933,42.1758261 C30.4886479,42.3667787 30.7509239,43.0700985 30.6078232,43.5535744 C30.4606597,44.0623302 30.1636242,44.5286519 29.8309263,44.8888889 C29.4652747,44.5232348 29.0860804,44.1715749 28.6418814,43.8537719 C28.3963079,43.7323387 28.1507345,43.6086483 28.0265935,43.3621703 C27.4126599,42.7482327 27.0429454,42.503109 26.3075794,42.2561797 C25.5681505,42.011056 25.8150782,41.519003 25.69184,40.9050654 C25.69184,40.6585875 25.5681505,40.2902248 25.4453638,40.0446498 C25.1997903,39.7995261 24.8314301,39.6758357 24.5858567,39.4298093 C24.4635214,39.0623495 24.3402832,38.8154202 24.0947098,38.5702965 C23.9705688,38.2001282 23.6022086,38.2001282 23.3566352,37.9550046 C22.9873722,37.586642 22.9873722,36.9722529 22.7417987,36.4801999 C22.619012,36.2337219 22.3729871,35.9885983 22.3729871,35.7430232 C22.2502004,35.3746606 22.2502004,35.006298 22.1278651,34.7593687 C21.8822917,34.2677671 21.6367182,33.4078029 21.2674552,33.1626793 C20.6526187,32.7929624 20.0386851,32.5469359 19.5466354,32.0562372 C19.0554885,31.6874232 18.6862255,31.3208663 18.0718404,31.0748398 C16.2693133,30.3516573 15.8255656,29.0348513 14.4144212,27.9731002 C13.6108904,27.3704482 12.8868099,26.7732132 12.0787649,26.2495605 C11.379964,25.79949 10.9307993,25.0113024 10.2040102,24.560329 C8.75765485,23.6615424 8.68001031,24.0005623 8.17125796,22.3564734 C7.78484092,21.1123467 6.72625685,20.7949951 6.15024266,19.6420563 C5.90466921,19.1513576 5.41261947,18.2904905 4.92102116,18.044464 C4.55266098,17.9221279 4.42987426,18.1681544 4.06196551,17.7993404 C3.8150378,17.4300749 3.69225107,17.1840485 3.3238909,16.9384734 C2.70860302,16.6924469 2.21745612,16.9384734 1.6035225,16.8156858 C0.619874446,16.5701108 0.374300998,15.3408812 0.127373285,14.6037045 C-0.118200163,13.9884126 0.00594082644,13.62005 0.374300998,13.0056609 C0.497087722,12.6372983 0.497087722,12.3908203 0.619874446,11.8987674 C0.788706191,11.3931716 1.1308839,10.8297935 1.52723222,10.367986 C1.70825235,10.1544621 1.90326656,9.96486368 2.0946694,9.81047641 C2.46302957,9.4421138 3.20065276,9.19608731 3.69225107,9.07239692 C4.06196551,9.07239692 4.30663611,9.07239692 4.55266098,8.95006081 C4.79823443,8.95006081 5.04380788,8.70493717 5.29073559,8.58169821 C5.90466921,8.33567171 6.39626753,8.70493717 7.01065257,8.33567171 C7.50225089,8.08964522 7.87061106,7.47480469 8.48589894,7.35156573 C8.97704584,7.2287782 9.71512045,7.2287782 10.2062673,7.2287782 C10.9438905,7.2287782 11.3127021,6.98320313 11.803849,6.61484052 L21.144217,6 C21.3897905,6.49160156 21.2674552,7.2287782 21.7581507,7.35156573 C22.1278651,7.35156573 22.4957739,7.2287782 22.8659397,7.2287782 L24.8314301,9.81047641 L36.1381914,7.96685768 L36.1381914,7.72083119 L50,17.300516 Z" id="Fill-5"></path>
        </g>
    </g>
</svg>