<?xml version="1.0" encoding="UTF-8"?>
<svg width="50px" height="50px" viewBox="0 0 50 50" version="1.1" xmlns="http://www.w3.org/2000/svg" xmlns:xlink="http://www.w3.org/1999/xlink">
    <title>icons/states/Tennessee</title>
    <g id="Icons" stroke="none" stroke-width="1" fill="none" fill-rule="evenodd">
        <g id="icons/states/Tennessee" fill="#1B3C92">
            <path d="M50,19.5789728 C49.6977711,19.7519455 49.8513494,19.9402692 49.6734066,20.1784836 C49.5482991,20.3451514 49.1502549,20.4682335 48.9646469,20.5740456 C48.6624179,20.7445512 48.6095826,20.8424137 48.39523,21.1094113 C48.2468532,21.2969126 48.1718434,21.4830433 47.9870567,21.6302483 C47.8942527,21.7053585 47.8000799,21.7711484 47.7072759,21.8265216 C47.6604633,21.8550306 47.6141982,21.8807983 47.5676593,21.9040989 C47.5208467,21.9271254 47.4745816,21.948233 47.4280427,21.9660511 C47.4012144,21.983321 47.3702797,21.9989461 47.3377025,22.0142971 C47.3223721,22.0208761 47.3053991,22.0285515 47.2886998,22.0351305 C47.2553013,22.0480144 47.220534,22.058157 47.185493,22.0672031 C47.0398537,22.1033876 46.8873704,22.0981792 46.7942927,22.0041544 C46.7775934,21.9866105 46.7647268,21.96797 46.7545978,21.9454917 C46.7359822,21.906566 46.7258532,21.8618837 46.7206518,21.8150084 C46.7181879,21.7917078 46.7154504,21.7684072 46.7154504,21.7451066 C46.7129865,21.6897334 46.7154504,21.6338119 46.7170929,21.5814541 C46.7195567,21.5452696 46.7206518,21.5115523 46.7206518,21.4813985 C46.7206518,21.4685147 46.7220206,21.4542602 46.7231156,21.4375386 C46.727222,21.4117709 46.7321496,21.3818913 46.737351,21.3498187 C46.7400886,21.3380313 46.7428262,21.3265181 46.7439212,21.3147307 C46.7491226,21.2928007 46.7529552,21.2678554 46.7578829,21.2437324 C46.7608942,21.2308485 46.763358,21.2179647 46.7647268,21.2050808 C46.772392,21.1672516 46.7786885,21.1275035 46.7841636,21.0888519 C46.7852587,21.075968 46.7879963,21.0611653 46.7890913,21.0469108 C46.7918289,21.0227878 46.7942927,20.996746 46.7942927,20.9734454 C46.7994941,20.8701003 46.7866275,20.7799133 46.7359822,20.7289261 C46.7285907,20.7204282 46.7181879,20.7127527 46.7053213,20.7056255 C46.6650789,20.6836955 46.6097797,20.6787613 46.533675,20.69795 C46.3655875,20.7538714 46.2070816,20.8753087 46.0726663,21.0200466 C46.0389941,21.056231 46.0069644,21.093512 45.9760297,21.1327119 C45.9601518,21.1516265 45.9459164,21.1716376 45.9305859,21.1905522 C45.8583138,21.2875923 45.7964444,21.3884702 45.7499056,21.4813985 C45.7124007,21.5743268 45.6762646,21.6705446 45.6398548,21.7670365 C45.5317204,22.058157 45.4334412,22.3577754 45.3781421,22.6384791 C45.3636329,22.7081068 45.3417322,22.7807499 45.3135351,22.8531188 C45.2940983,22.9024613 45.2711026,22.950159 45.2464644,22.9984049 C45.2204574,23.0455544 45.1922603,23.0921556 45.1610519,23.1376603 C45.114513,23.205095 45.0616777,23.2681437 45.003641,23.3248875 C44.8872938,23.4400199 44.749046,23.5293846 44.5957414,23.5710515 C44.4098597,23.6264247 44.2146701,23.6831685 44.0276934,23.7530704 C43.9811545,23.769792 43.9359844,23.7878842 43.8908143,23.8084436 L43.8894455,23.8084436 C43.8445492,23.8281805 43.8004741,23.8487399 43.7577679,23.8703958 C43.7139666,23.8925999 43.6726291,23.9159005 43.6323867,23.9400234 C43.591323,23.9652429 43.5524493,23.9910106 43.5149445,24.0192455 C43.3523321,24.1176563 43.188351,24.3010457 43.0761102,24.4460577 C43.059411,24.4666171 43.0438068,24.4858058 43.0295713,24.5041722 C42.9611318,24.6099843 42.9562042,24.6820791 42.8926923,24.7522551 C42.8899547,24.756367 42.8863959,24.7613012 42.8811945,24.7654131 C42.8666853,24.7741851 42.8527236,24.7832312 42.839857,24.7925514 C42.8113861,24.8079024 42.7845579,24.8235275 42.757182,24.837782 C42.7314488,24.8517624 42.7054418,24.8660169 42.6810773,24.8802713 C42.6449412,24.9008307 42.611269,24.9241313 42.5841669,24.9518179 C42.3971901,25.10149 42.2110346,25.1384969 41.987648,25.1384969 C41.7645352,25.1384969 41.6158845,25.1763261 41.428634,25.2497915 C41.4004369,25.255274 41.3730611,25.2591117 41.3459591,25.264046 C41.291755,25.2730921 41.2402884,25.2824123 41.1885482,25.2900878 C41.0596081,25.3106472 40.9345006,25.3254499 40.794884,25.3254499 C40.5704024,25.3624568 40.4589828,25.4751221 40.2733748,25.5861426 C40.0858505,25.716626 39.9284396,25.8849386 39.7890968,26.0710693 C39.6831524,26.2119694 39.5903484,26.3619156 39.502472,26.514329 C39.4729062,26.5658644 39.4444353,26.6168516 39.4159645,26.6683871 C39.2519834,26.9290797 39.1175682,27.276944 38.8878851,27.5343472 C38.8711859,27.5524394 38.8544866,27.5705317 38.8364186,27.5886239 C38.8180768,27.6053455 38.8000088,27.6223412 38.7819407,27.6390628 C38.4838182,27.9375847 38.0370449,27.9751398 37.887573,28.4597923 C37.8834667,28.4718538 37.878539,28.483093 37.8758014,28.4951544 C37.8681362,28.5165362 37.8643036,28.5392885 37.8629348,28.5606703 C37.8511632,28.7043116 37.9248041,28.8378104 37.9248041,29.0198292 C37.9248041,29.2320018 37.8254299,29.2966952 37.7298884,29.4129241 C37.7066189,29.4386918 37.6847183,29.4696679 37.6639127,29.5044818 C37.6354418,29.5395697 37.6162788,29.5798661 37.6020433,29.6245484 C37.6020433,29.6245484 37.6034121,29.625919 37.6020433,29.625919 C37.5878079,29.6711496 37.5787739,29.720218 37.5746675,29.7712052 C37.5607059,29.9428073 37.5902717,30.1344205 37.5902717,30.2506494 C37.5902717,30.3912754 37.5954731,30.5294342 37.6058759,30.6667707 L37.6058759,30.6681414 C35.0845639,31.014635 32.316322,31.3416659 29.4621201,31.6475891 C24.0419835,32.2295559 18.3070252,32.7323007 13.329008,33.1281369 C6.6865415,33.6577459 1.39205992,33.9995795 0,34.0851064 C0.0235431963,34.0541303 0.0476339088,34.0237024 0.073914686,33.9946452 C0.350136605,33.6687109 0.758036169,33.6185461 1.0446609,33.3235878 C1.35838767,33.0014912 1.27324891,32.7402504 1.22944761,32.31755 C1.1903002,31.9310341 1.11802807,31.5563055 1.13116845,31.1708861 C1.1478677,30.6769133 1.33511824,30.6500491 1.62557558,30.3150687 C1.95490657,29.9299234 1.77669005,29.5085936 1.85033097,29.0521759 C1.91603292,28.6538727 2.09698702,28.439233 2.32776509,28.1379699 C2.82874241,27.4828117 3.36339197,26.6683871 3.48740439,25.8205192 C3.50656746,25.6985337 3.51423268,25.5746293 3.51423268,25.4501767 C3.51423268,24.6272542 3.44442437,23.9781268 3.56624672,23.1609609 C3.6264735,22.7390829 3.80770136,22.6061324 4.00124834,22.2563492 C4.032183,22.1990571 4.05654747,22.1371049 4.07844812,22.071315 C4.0863871,22.0488368 4.09268354,22.027455 4.09925374,22.0022356 C4.11075158,21.9575532 4.12389196,21.9136933 4.13429477,21.8681886 C6.28384334,21.8591424 13.3536462,21.6181868 13.3536462,21.6181868 L13.4530204,19.6795765 C14.1847758,19.6831402 14.9622488,19.6727234 15.7807855,19.6513417 C15.9830927,19.6458592 16.188685,19.6392802 16.3964674,19.6329753 C16.6121888,19.6236551 16.830374,19.6159796 17.051023,19.60803 C17.2563416,19.6003545 17.4627552,19.5918566 17.6705376,19.5814399 C18.3302946,19.5512862 19.0108572,19.5142793 19.7119517,19.4712417 C19.9263043,19.4583579 20.1420257,19.4441034 20.3599371,19.4298489 C20.5033864,19.4208028 20.6479307,19.4106602 20.7938437,19.401614 C21.0005311,19.3873596 21.2096823,19.3717344 21.4188335,19.35748 C22.055321,19.3108788 22.7057703,19.2604398 23.3696337,19.2061631 C23.5760473,19.1897156 23.7838297,19.1716234 23.9943496,19.1543535 C24.5495311,19.1066558 25.1123777,19.0562169 25.6845321,19.0033108 C25.898611,18.9838479 26.1129635,18.9632886 26.3284112,18.9427292 C26.365916,18.9383432 26.4050634,18.935602 26.4422945,18.9323125 C26.806119,18.8972245 27.1743237,18.8607659 27.5433496,18.8245814 C27.5679878,18.8221143 27.5923523,18.8193731 27.6169905,18.816906 C27.8584452,18.7938795 28.1012686,18.7697565 28.3449133,18.744537 C29.8995855,18.5844482 31.5018917,18.4087342 33.1362275,18.2184916 C33.2925434,18.2006735 33.4499543,18.1823072 33.6076389,18.164489 C33.8783857,18.1318682 34.1510488,18.0997956 34.4237118,18.0669006 L34.9465898,18.0052226 C35.0508916,17.9923387 35.1551935,17.9791807 35.2600428,17.9662968 C35.6047043,17.9251781 35.9521033,17.8826888 36.2995023,17.8396512 C36.77064,17.7815368 37.2445153,17.7220517 37.7197593,17.6625666 C37.7197593,17.6625666 37.7197593,17.6617442 37.7208543,17.6617442 C39.6472901,17.4183215 45.8542074,16.5485236 49.7467738,16 C49.6550648,16.0128839 49.5649984,16.0271384 49.4732894,16.0405705 L50,19.5789728 Z" id="Fill-45"></path>
        </g>
    </g>
</svg>