<?xml version="1.0" encoding="UTF-8"?>
<svg width="35px" height="13px" viewBox="0 0 35 13" version="1.1" xmlns="http://www.w3.org/2000/svg" xmlns:xlink="http://www.w3.org/1999/xlink">
    <title>icons/states/Tennessee</title>
    <g id="Find-Unit---FLOW" stroke="none" stroke-width="1" fill="none" fill-rule="evenodd">
        <g id="Mobile-/-Find-Units---US-Map" transform="translate(-34.000000, -727.000000)" fill="#1B3C92">
            <g id="Group" transform="translate(0.000000, 116.000000)">
                <g id="Group-6-Copy-9" transform="translate(18.000000, 592.000000)">
                    <g id="icons/states/Tennessee" transform="translate(16.000000, 8.000000)">
                        <path d="M35,13.7052809 C34.7884397,13.8263618 34.8959445,13.9581884 34.7713846,14.1249385 C34.6838094,14.241606 34.4051784,14.3277634 34.2752528,14.4018319 C34.0636926,14.5211858 34.0267078,14.5896896 33.876661,14.7765879 C33.7727972,14.9078388 33.7202904,15.0381303 33.5909397,15.1411738 C33.5259769,15.1937509 33.460056,15.2398039 33.3950932,15.2785651 C33.3623243,15.2985214 33.3299387,15.3165588 33.2973615,15.3328692 C33.2645927,15.3489878 33.2322071,15.3637631 33.1996299,15.3762358 C33.1808501,15.3883247 33.1591958,15.3992622 33.1363918,15.4100079 C33.1256604,15.4146132 33.1137793,15.4199861 33.1020899,15.4245914 C33.0787109,15.4336101 33.0543738,15.4407099 33.0298451,15.4470422 C32.9278976,15.4723713 32.8211593,15.4687255 32.7560049,15.4029081 C32.7443154,15.3906273 32.7353088,15.377579 32.7282184,15.3618442 C32.7151876,15.3345962 32.7080972,15.3033186 32.7044562,15.2705059 C32.7027316,15.2541954 32.7008153,15.237885 32.7008153,15.2215746 C32.6990906,15.1828133 32.7008153,15.1436683 32.701965,15.1070179 C32.7036897,15.0816887 32.7044562,15.0580866 32.7044562,15.036979 C32.7044562,15.0279603 32.7054144,15.0179821 32.7061809,15.006277 C32.7090554,14.9882396 32.7125047,14.9673239 32.7161457,14.9448731 C32.718062,14.9366219 32.7199783,14.9285626 32.7207448,14.9203115 C32.7243858,14.9049605 32.7270687,14.8874988 32.730518,14.8706127 C32.7326259,14.861594 32.7343506,14.8525753 32.7353088,14.8435566 C32.7406744,14.8170761 32.7450819,14.7892524 32.7489145,14.7621963 C32.7496811,14.7531776 32.7515974,14.7428157 32.7523639,14.7328376 C32.7542802,14.7159515 32.7560049,14.6977222 32.7560049,14.6814118 C32.7596459,14.6090702 32.7506392,14.5459393 32.7151876,14.5102483 C32.7100135,14.5042998 32.7027316,14.4989269 32.6937249,14.4939378 C32.6655552,14.4785869 32.6268458,14.4751329 32.5735725,14.488565 C32.4559113,14.52771 32.3449571,14.6127161 32.2508664,14.7140326 C32.2272959,14.7393617 32.2048751,14.7654584 32.1832208,14.7928983 C32.1721062,14.8061385 32.1621414,14.8201463 32.1514101,14.8333865 C32.1008196,14.9013146 32.0575111,14.9719292 32.0249339,15.036979 C31.9986805,15.1020288 31.9733852,15.1693812 31.9478984,15.2369256 C31.8722042,15.4407099 31.8034088,15.6504428 31.7646994,15.8469354 C31.754543,15.8956748 31.7392126,15.9465249 31.7194746,15.9971832 C31.7058688,16.0317229 31.6897719,16.0651113 31.6725251,16.0988834 C31.6543202,16.1318881 31.6345822,16.1645089 31.6127363,16.1963622 C31.5801591,16.2435665 31.5431744,16.2877006 31.5025487,16.3274212 C31.4211057,16.4080139 31.3243322,16.4705692 31.217019,16.4997361 C31.0869018,16.5384973 30.9502691,16.578218 30.8193854,16.6271493 C30.7868081,16.6388544 30.7551891,16.6515189 30.72357,16.6659105 L30.7226119,16.6659105 C30.6911844,16.6797264 30.6603319,16.6941179 30.6304375,16.709277 C30.5997766,16.7248199 30.5708404,16.7411303 30.5426707,16.7580164 C30.5139261,16.77567 30.4867145,16.7937075 30.4604611,16.8134718 C30.3466325,16.8823594 30.2318457,17.010732 30.1532772,17.1122404 C30.1415877,17.126632 30.1306647,17.1400641 30.1206999,17.1529205 C30.0727923,17.226989 30.0693429,17.2774554 30.0248846,17.3265786 C30.0229683,17.3294569 30.0204771,17.3329108 30.0168361,17.3357891 C30.0066797,17.3419295 29.9969065,17.3482618 29.9878999,17.354786 C29.9679703,17.3655317 29.9491905,17.3764693 29.9300274,17.3864474 C29.9120141,17.3962337 29.8938092,17.4062118 29.8767541,17.4161899 C29.8514589,17.4305815 29.8278883,17.4468919 29.8089168,17.4662725 C29.6780331,17.571043 29.5477242,17.5969478 29.3913536,17.5969478 C29.2351746,17.5969478 29.1311192,17.6234282 29.0000438,17.6748541 C28.9803058,17.6786918 28.9611428,17.6813782 28.9421713,17.6848322 C28.9042285,17.6911645 28.8682019,17.6976886 28.8319837,17.7030615 C28.7417257,17.717453 28.6541504,17.727815 28.5564188,17.727815 C28.3992817,17.7537197 28.321288,17.8325854 28.1913624,17.9102998 C28.0600954,18.0016382 27.9499077,18.119457 27.8523677,18.2497485 C27.7782067,18.3483786 27.7132439,18.4533409 27.6517304,18.5600303 C27.6310343,18.5961051 27.6111047,18.6317961 27.5911751,18.667871 C27.4763884,18.8503558 27.3822977,19.0938608 27.2215196,19.274043 C27.2098301,19.2867076 27.1981406,19.2993722 27.185493,19.3120367 C27.1726538,19.3237418 27.1600061,19.3356389 27.1473585,19.347344 C26.9386727,19.5563093 26.6259315,19.5825979 26.5213011,19.9218546 C26.5184267,19.9302977 26.5149773,19.9381651 26.513061,19.9466081 C26.5076953,19.9615753 26.5050125,19.977502 26.5040544,19.9924692 C26.4958142,20.0930181 26.5473629,20.1864673 26.5473629,20.3138805 C26.5473629,20.4624012 26.477801,20.5076867 26.4109219,20.5890469 C26.3946332,20.6070843 26.3793028,20.6287676 26.3647389,20.6531372 C26.3448093,20.6776988 26.3313951,20.7059063 26.3214303,20.7371839 C26.3214303,20.7371839 26.3223885,20.7381433 26.3214303,20.7381433 C26.3114655,20.7698047 26.3051417,20.8041526 26.3022673,20.8398436 C26.2924941,20.9599651 26.3131902,21.0940943 26.3131902,21.1754545 C26.3131902,21.2738927 26.3168312,21.370604 26.3241132,21.4667395 L26.3241132,21.4676989 C24.5591947,21.7102445 22.6214254,21.9391661 20.6234841,22.1533124 C16.8293885,22.5606892 12.8149176,22.9126105 9.33030557,23.1896958 C4.68057905,23.5604221 0.974441944,23.7997056 0,23.8595745 C0.0164802374,23.8378912 0.0333437361,23.8165917 0.0517402802,23.7962517 C0.245095624,23.5680976 0.530625318,23.5329822 0.731262627,23.3265115 C0.950871372,23.1010439 0.891274234,22.9181752 0.860613328,22.622285 C0.833210142,22.3517239 0.782619646,22.0894139 0.791817918,21.8196203 C0.803507389,21.4738393 0.934582765,21.4550344 1.1379029,21.2205481 C1.3684346,20.9509464 1.24368303,20.6560156 1.29523168,20.3365232 C1.34122304,20.0577109 1.46789091,19.9074631 1.62943557,19.6965789 C1.98011969,19.2379682 2.35437438,18.667871 2.44118307,18.0743635 C2.45459722,17.9889736 2.45996288,17.9022405 2.45996288,17.8151237 C2.45996288,17.2390779 2.41109706,16.7846887 2.49637271,16.2126726 C2.53853145,15.917358 2.66539095,15.8242927 2.80087384,15.5794444 C2.8225281,15.53934 2.83958323,15.4959735 2.85491368,15.4499205 C2.86047097,15.4341857 2.86487848,15.4192185 2.86947761,15.4015649 C2.8775261,15.3702873 2.88672437,15.3395853 2.89400634,15.307732 C4.39869034,15.3013997 9.34755233,15.1327308 9.34755233,15.1327308 L9.41711426,13.7757036 C9.92934304,13.7781981 10.4735741,13.7709064 11.0465498,13.7559392 C11.1881649,13.7521014 11.3320795,13.7474961 11.4775272,13.7430827 C11.6285322,13.7365586 11.7812618,13.7311857 11.9357161,13.725621 C12.0794391,13.7202481 12.2239286,13.7142996 12.3693763,13.7070079 C12.8312062,13.6859003 13.3076001,13.6599955 13.7983662,13.6298692 C13.948413,13.6208505 14.099418,13.6108724 14.251956,13.6008942 C14.3523705,13.5945619 14.4535515,13.5874621 14.5556906,13.5811298 C14.7003718,13.5711517 14.8467776,13.5602141 14.9931834,13.550236 C15.4387247,13.5176151 15.8940392,13.4823079 16.3587436,13.4443142 C16.5032331,13.4328009 16.6486808,13.4201364 16.7960447,13.4080475 C17.1846717,13.3746591 17.5786644,13.3393518 17.9791725,13.3023175 C18.1290277,13.2886935 18.2790745,13.274302 18.4298878,13.2599104 C18.4561412,13.2568403 18.4835444,13.2549214 18.5096062,13.2526187 C18.7642833,13.2280572 19.0220266,13.2025361 19.2803447,13.177207 C19.2975915,13.17548 19.3146466,13.1735612 19.3318934,13.1718342 C19.5009116,13.1557156 19.670888,13.1388295 19.8414393,13.1211759 C20.9297099,13.0091137 22.0513242,12.8861139 23.1953593,12.7529441 C23.3047804,12.7404715 23.414968,12.727615 23.5253473,12.7151423 C23.71487,12.6923077 23.9057341,12.6698569 24.0965983,12.6468304 L24.4626129,12.6036558 C24.5356241,12.5946371 24.6086354,12.5854265 24.68203,12.5764078 C24.923293,12.5476247 25.1664723,12.5178822 25.4096516,12.4877558 C25.739448,12.4470757 26.0711607,12.4054362 26.4038315,12.3637966 C26.4038315,12.3637966 26.4038315,12.363221 26.404598,12.363221 C27.753103,12.192825 32.0979452,11.5839665 34.8227416,11.2 C34.7585454,11.2090187 34.6954989,11.2189968 34.6313026,11.2283993 L35,13.7052809 Z" id="Fill-45"></path>
                    </g>
                </g>
            </g>
        </g>
    </g>
</svg>