<?xml version="1.0" encoding="UTF-8"?>
<svg width="57px" height="34px" viewBox="0 0 57 34" version="1.1" xmlns="http://www.w3.org/2000/svg" xmlns:xlink="http://www.w3.org/1999/xlink">
    <title>icons/payment/light/ amex</title>
    <g id="Icons" stroke="none" stroke-width="1" fill="none" fill-rule="evenodd">
        <g id="AmericanExpress-light">
            <rect id="Rectangle" fill="#FFFFFF" x="0" y="0" width="57" height="34" rx="4"></rect>
            <path d="M48.1121959,19.6438304 L46.0983626,19.6438304 C45.8973,19.6438304 45.763723,19.6512933 45.6512004,19.7266127 C45.5346343,19.8008266 45.4897368,19.9109727 45.4897368,20.05636 C45.4897368,20.2292493 45.5881766,20.3468583 45.7313745,20.3977162 C45.8479406,20.4379327 45.9731516,20.4496797 46.1572034,20.4496797 L46.7560689,20.4655728 C47.3603723,20.4803603 47.7637524,20.58332 48.0097125,20.834431 C48.0544706,20.8693958 48.0813812,20.9086448 48.1121959,20.9478939 L48.1121959,19.6438304 Z M48.1121959,22.6653162 C47.8437871,23.0543517 47.3207732,23.2515643 46.6127316,23.2515643 L44.4788463,23.2515643 L44.4788463,22.2688179 L46.6040867,22.2688179 C46.8149097,22.2688179 46.96243,22.2413159 47.0512489,22.155355 C47.128216,22.0844579 47.1818978,21.9814983 47.1818978,21.8564265 C47.1818978,21.7229244 47.128216,21.6169244 47.0469265,21.5533519 C46.9667524,21.4834223 46.8500468,21.4516361 46.6576291,21.4516361 C45.6201068,21.4166713 44.3257487,21.4834223 44.3257487,20.0331423 C44.3257487,19.3683961 44.7515776,18.668685 45.9111039,18.668685 L48.1120565,18.668685 L48.1120565,17.7568356 L46.0671296,17.7568356 C45.4499984,17.7568356 45.0017207,17.9033285 44.6842314,18.1310836 L44.6842314,17.7568356 L41.6595076,17.7568356 C41.1758139,17.7568356 40.608042,17.8756884 40.3394937,18.1310836 L40.3394937,17.7568356 L34.9381315,17.7568356 L34.9381315,18.1310836 C34.508259,17.8237248 33.7829276,17.7568356 33.4481486,17.7568356 L29.8853521,17.7568356 L29.8853521,18.1310836 C29.5452746,17.8046531 28.7889891,17.7568356 28.328023,17.7568356 L24.3406526,17.7568356 L23.4282019,18.7355742 L22.573616,17.7568356 L16.6173097,17.7568356 L16.6173097,24.1516667 L22.4615117,24.1516667 L23.4017096,23.1574495 L24.2873891,24.1516667 L27.8897846,24.1548453 L27.8897846,22.6505287 L28.2439448,22.6505287 C28.7219218,22.6578534 29.2856501,22.6387816 29.7830082,22.4256759 L29.7830082,24.1515285 L32.7543291,24.1515285 L32.7543291,22.4848259 L32.8976664,22.4848259 C33.0806027,22.4848259 33.0985896,22.4922887 33.0985896,22.6734701 L33.0985896,24.1513903 L42.1249355,24.1513903 C42.6980058,24.1513903 43.2970107,24.0060029 43.6287223,23.7421775 L43.6287223,24.1513903 L46.491843,24.1513903 C47.087641,24.1513903 47.6694956,24.0686079 48.1121959,23.8566078 L48.1121959,22.6653162 L48.1121959,22.6653162 Z M43.7045739,20.834431 C43.9197193,21.0551378 44.0350305,21.3337508 44.0350305,21.8054304 C44.0350305,22.7913554 43.4135769,23.2515643 42.299227,23.2515643 L40.1470759,23.2515643 L40.1470759,22.2688179 L42.2905821,22.2688179 C42.5001502,22.2688179 42.6487859,22.2413159 42.7419273,22.155355 C42.8179184,22.0844579 42.8724367,21.9814983 42.8724367,21.8564265 C42.8724367,21.7229244 42.8134565,21.6169244 42.7376048,21.5533519 C42.6531083,21.4834223 42.5365422,21.4516361 42.3441244,21.4516361 C41.3107852,21.4166713 40.0167059,21.4834223 40.0167059,20.0331423 C40.0167059,19.3683961 40.438073,18.668685 41.5964838,18.668685 L43.8116586,18.668685 L43.8116586,19.6441068 L41.7847185,19.6441068 C41.5837953,19.6441068 41.4531465,19.6515697 41.3420182,19.7268891 C41.2209902,19.801103 41.1760927,19.9112491 41.1760927,20.0566364 C41.1760927,20.2295257 41.278855,20.3471347 41.4178699,20.3979926 C41.534436,20.4382091 41.659647,20.4499561 41.8478818,20.4499561 L42.4427037,20.4658492 C43.0425452,20.4803603 43.4542914,20.5831818 43.7045739,20.834431 L43.7045739,20.834431 Z M33.7339866,20.5513956 C33.5861874,20.6383239 33.4033905,20.6457868 33.1883846,20.6457868 L31.8460614,20.6457868 L31.8460614,19.6164666 L33.2066503,19.6164666 C33.4033905,19.6164666 33.6002702,19.6206127 33.7339866,19.699249 C33.8771845,19.7734628 33.9627964,19.9153951 33.9627964,20.1115022 C33.9627964,20.3076092 33.8771845,20.4655728 33.7339866,20.5513956 L33.7339866,20.5513956 Z M34.4013137,21.1217506 C34.6472739,21.2117194 34.8483365,21.3729998 34.9425933,21.5065019 C35.098619,21.7302491 35.1212072,21.9390706 35.1256691,22.3430318 L35.1256691,23.2515643 L34.0163388,23.2515643 L34.0163388,22.6781689 C34.0163388,22.4024581 34.0431099,21.9942128 33.8377249,21.781107 C33.6762612,21.6169244 33.4301617,21.5776753 33.0270604,21.5776753 L31.8462009,21.5776753 L31.8462009,23.2515643 L30.7358945,23.2515643 L30.7358945,18.6685468 L33.2869638,18.6685468 C33.8463697,18.6685468 34.2537934,18.6930084 34.6164591,18.8848312 C34.9651815,19.0936527 35.1845099,19.3797285 35.1845099,19.9025425 C35.1843704,20.6340397 34.6921713,21.0073203 34.4013137,21.1217506 L34.4013137,21.1217506 Z M35.7971792,18.6685468 L39.4850472,18.6685468 L39.4850472,19.6163284 L36.8975858,19.6163284 L36.8975858,20.4495415 L39.421884,20.4495415 L39.421884,21.3846087 L36.8975858,21.3846087 L36.8975858,22.2964581 L39.4850472,22.3006041 L39.4850472,23.2515643 L35.7971792,23.2515643 L35.7971792,18.6685468 L35.7971792,18.6685468 Z M28.3421058,20.7835731 L26.9141707,20.7835731 L26.9141707,19.6164666 L28.3549336,19.6164666 C28.7538519,19.6164666 29.0307662,19.7776089 29.0307662,20.1783914 C29.0307662,20.5747515 28.7666798,20.7835731 28.3421058,20.7835731 L28.3421058,20.7835731 Z M25.8136246,22.8347505 L24.1171412,20.967933 L25.8136246,19.1604037 L25.8136246,22.8347505 L25.8136246,22.8347505 Z M21.4324949,22.2964581 L18.715779,22.2964581 L18.715779,21.3846087 L21.1416373,21.3846087 L21.1416373,20.4495415 L18.715779,20.4495415 L18.715779,19.6163284 L21.4860372,19.6163284 L22.694644,20.9519017 L21.4324949,22.2964581 L21.4324949,22.2964581 Z M30.2170637,20.1783914 C30.2170637,21.4514979 29.2587395,21.714356 28.2928859,21.714356 L26.9141707,21.714356 L26.9141707,23.2515643 L24.7664815,23.2515643 L23.4058926,21.7343951 L21.9919008,23.2515643 L17.6150935,23.2515643 L17.6150935,18.6685468 L22.059247,18.6685468 L23.4187205,20.1707904 L24.8242068,18.6685468 L28.3549336,18.6685468 C29.2318289,18.6685468 30.2170637,18.9091545 30.2170637,20.1783914 L30.2170637,20.1783914 Z" id="EXPRESS" fill="#0072CE"></path>
            <path d="M12.3432647,13.387062 L11.5869791,11.560461 L10.835016,13.387062 L12.3432647,13.387062 Z M29.0041345,12.6597108 C28.8522918,12.7510616 28.6727018,12.754102 28.4575565,12.754102 L27.1152333,12.754102 L27.1152333,11.7363907 L28.4758222,11.7363907 C28.6683794,11.7363907 28.8693026,11.7449592 28.9998121,11.8190349 C29.1431494,11.8857859 29.2318289,12.0278564 29.2318289,12.2241016 C29.2318289,12.4243547 29.1474718,12.5854969 29.0041345,12.6597108 L29.0041345,12.6597108 Z M38.5801259,13.387062 L37.8154744,11.560461 L37.0550059,13.387062 L38.5801259,13.387062 L38.5801259,13.387062 Z M20.7298912,15.3641638 L19.5971361,15.3641638 L19.5929531,11.7756398 L17.9907265,15.3641638 L17.0205505,15.3641638 L15.4141409,11.7724612 L15.4141409,15.3641638 L13.166757,15.3641638 L12.742183,14.3421683 L10.4415356,14.3421683 L10.0126392,15.3641638 L8.81253787,15.3641638 L10.791234,10.7822519 L12.4329202,10.7822519 L14.3122005,15.1203775 L14.3122005,10.7822519 L16.1156292,10.7822519 L17.5616906,13.8905278 L18.8900704,10.7822519 L20.7297517,10.7822519 L20.7297517,15.3641638 L20.7298912,15.3641638 Z M25.2445979,15.3641638 L21.5533835,15.3641638 L21.5533835,10.7822519 L25.2445979,10.7822519 L25.2445979,11.7363907 L22.6583914,11.7363907 L22.6583914,12.5622792 L25.1825501,12.5622792 L25.1825501,13.5014924 L22.6583914,13.5014924 L22.6583914,14.4165204 L25.2445979,14.4165204 L25.2445979,15.3641638 L25.2445979,15.3641638 Z M30.4490805,12.0162475 C30.4490805,12.7467774 29.9571602,13.124204 29.6704856,13.2375287 C29.9122627,13.3287413 30.1187633,13.4898835 30.2170637,13.6233855 C30.3730894,13.8512788 30.4,14.0548487 30.4,14.4640615 L30.4,15.3641638 L29.2855106,15.3641638 L29.2813276,14.7863459 C29.2813276,14.5106352 29.3079594,14.1141369 29.1068967,13.8937065 C28.9454331,13.7325642 28.6993336,13.6975994 28.3015307,13.6975994 L27.1153727,13.6975994 L27.1153727,15.3641638 L26.0105043,15.3641638 L26.0105043,10.7822519 L28.5519527,10.7822519 C29.1166571,10.7822519 29.5327257,10.7970394 29.8899534,11.0017149 C30.2395124,11.2063904 30.4490805,11.5051807 30.4490805,12.0162475 L30.4490805,12.0162475 Z M32.217372,15.3641638 L31.0899153,15.3641638 L31.0899153,10.7822519 L32.217372,10.7822519 L32.217372,15.3641638 L32.217372,15.3641638 Z M45.297319,15.3641638 L43.7314845,15.3641638 L41.6370588,11.9251731 L41.6370588,15.3641638 L39.3867468,15.3641638 L38.9567349,14.3421683 L36.661386,14.3421683 L36.244202,15.3641638 L34.9512382,15.3641638 C34.4141416,15.3641638 33.734126,15.2464167 33.3490116,14.8573812 C32.9606902,14.4683457 32.7586515,13.9413858 32.7586515,13.1081727 C32.7586515,12.4286389 32.8794007,11.807426 33.3543101,11.3165365 C33.7115378,10.9508569 34.2709437,10.7822519 35.0323883,10.7822519 L36.1021196,10.7822519 L36.1021196,11.7640309 L35.054837,11.7640309 C34.6515963,11.7640309 34.4239019,11.8234573 34.2045735,12.0354574 C34.0161993,12.2283859 33.8869448,12.593098 33.8869448,13.073346 C33.8869448,13.5642356 33.9853846,13.918168 34.1907697,14.1493781 C34.3608781,14.3306976 34.6700015,14.3857016 34.9608591,14.3857016 L35.4571017,14.3857016 L37.0144308,10.7823901 L38.6700603,10.7823901 L40.5408352,15.1162314 L40.5408352,10.7823901 L42.2232359,10.7823901 L44.16554,13.9734484 L44.16554,10.7823901 L45.297319,10.7823901 L45.297319,15.3641638 L45.297319,15.3641638 Z M8.79971002,16.2641279 L10.6876352,16.2641279 L11.1133247,15.2464167 L12.0663504,15.2464167 L12.4909244,16.2641279 L16.2055636,16.2641279 L16.2055636,15.486057 L16.5371356,16.2674447 L18.4654964,16.2674447 L18.7970685,15.4744481 L18.7970685,16.2641279 L28.02866,16.2641279 L28.0243376,14.5935557 L28.2029515,14.5935557 C28.328023,14.5978399 28.3645545,14.6093106 28.3645545,14.8139861 L28.3645545,16.2641279 L33.1391647,16.2641279 L33.1391647,15.8752307 C33.5242791,16.079768 34.123284,16.2641279 34.9114997,16.2641279 L36.920174,16.2641279 L37.3500465,15.2464167 L38.3030722,15.2464167 L38.7234632,16.2641279 L42.5942675,16.2641279 L42.5942675,15.2974128 L43.1804446,16.2641279 L46.282275,16.2641279 L46.282275,9.8737193 L43.2125142,9.8737193 L43.2125142,10.6284343 L42.7826418,9.8737193 L39.632707,9.8737193 L39.632707,10.6284343 L39.2379716,9.8737193 L34.9831684,9.8737193 C34.2709437,9.8737193 33.6448888,9.97225652 33.1391647,10.2468617 L33.1391647,9.8737193 L30.2029809,9.8737193 L30.2029809,10.2468617 C29.8811692,9.96382627 29.4426518,9.8737193 28.955054,9.8737193 L18.2280417,9.8737193 L17.5082877,11.5242524 L16.7691524,9.8737193 L13.3904078,9.8737193 L13.3904078,10.6284343 L13.0192367,9.8737193 L10.1377107,9.8737193 L8.79957059,12.9120656 L8.79957059,16.2641279 L8.79971002,16.2641279 Z" id="AMERICAN" fill="#0072CE"></path>
        </g>
    </g>
</svg>