<?xml version="1.0" encoding="UTF-8"?>
<svg width="57px" height="34px" viewBox="0 0 57 34" version="1.1" xmlns="http://www.w3.org/2000/svg" xmlns:xlink="http://www.w3.org/1999/xlink">
    <title>icons/payment/light/ discover</title>
    <defs>
        <rect id="path-1" x="0" y="0" width="56.6666667" height="34" rx="4"></rect>
        <path d="M13.6654029,34 L52.6598269,34 C54.8727434,34 56.6666667,32.2021778 56.6666667,30.0058869 L56.6666667,19.0955722 C56.6666667,19.0955722 41.479736,29.3918648 13.6654029,34 Z" id="path-3"></path>
    </defs>
    <g id="Icons" stroke="none" stroke-width="1" fill="none" fill-rule="evenodd">
        <g id="Discover-light">
            <g id="Rectangle">
                <mask id="mask-2" fill="white">
                    <use xlink:href="#path-1"></use>
                </mask>
                <use id="Mask" fill="#FFFFFF" xlink:href="#path-1"></use>
                <mask id="mask-4" fill="white">
                    <use xlink:href="#path-3"></use>
                </mask>
                <use id="Mask" fill="#E6772F" xlink:href="#path-3"></use>
            </g>
            <path d="M10.3635306,16.8991419 C9.93812628,17.2628821 9.39658153,17.4219388 8.5305894,17.4219388 L8.17124662,17.4219388 L8.17124662,13.0812717 L8.5305894,13.0812717 C9.39658153,13.0812717 9.91734886,13.2296226 10.3635306,13.6114606 C10.8240967,14.0060435 11.1008626,14.6147412 11.1008626,15.2443406 C11.1008626,15.8769988 10.8240967,16.5073628 10.3635306,16.8991419 L10.3635306,16.8991419 Z M8.79883119,11.9694043 L6.83270143,11.9694043 L6.83270143,18.534316 L8.78684422,18.534316 C9.82678063,18.534316 10.5774314,18.2975152 11.235383,17.7749732 C12.0169336,17.1560796 12.4806962,16.2216216 12.4806962,15.2535169 C12.4806962,13.3155234 10.967674,11.9694043 8.79883119,11.9694043 L8.79883119,11.9694043 Z" id="Fill-13" fill="#1A1919"></path>
            <polygon id="Fill-14" fill="#1A1919" points="13.0978921 11.9694043 14.4311097 11.9694043 14.4311097 18.534316 13.0978921 18.534316"></polygon>
            <path d="M17.7051513,14.4855077 C16.9004259,14.2030801 16.6652149,14.014965 16.6652149,13.6601462 C16.6652149,13.2477204 17.085558,12.9349599 17.6635965,12.9349599 C18.0642277,12.9349599 18.394269,13.0884088 18.7458868,13.4633646 L19.4419303,12.5895724 C18.8668221,12.1052652 18.1785035,11.8600528 17.4281191,11.8600528 C16.213972,11.8600528 15.2885778,12.668336 15.2885778,13.7371256 C15.2885778,14.6445644 15.7187769,15.1049111 16.9742124,15.5420621 C17.4989754,15.7166676 17.7656189,15.8359601 17.9006721,15.9167629 C18.1681148,16.0821921 18.3013034,16.3192477 18.3013034,16.5932636 C18.3013034,17.1272761 17.8591173,17.5198198 17.261367,17.5198198 C16.6249919,17.5198198 16.1100849,17.2149612 15.8018865,16.6424591 L14.9393573,17.4418208 C15.5560204,18.3064367 16.295217,18.6928628 17.3135769,18.6928628 C18.7024674,18.6928628 19.681137,17.8030121 19.681137,16.5356566 C19.681137,15.4913373 19.2272304,15.0179907 17.7051513,14.4855077" id="Fill-15" fill="#1A1919"></path>
            <path d="M20.1014802,15.2535169 C20.1014802,17.1841184 21.6850923,18.6801179 23.7236767,18.6801179 C24.2985186,18.6801179 24.7913163,18.5715311 25.3981235,18.2975152 L25.3981235,16.7887708 C24.8619063,17.3044305 24.3912178,17.5078396 23.7822797,17.5078396 C22.4352104,17.5078396 21.4810474,16.5751658 21.4810474,15.2443406 C21.4810474,13.9869261 22.4661102,12.9907827 23.7236767,12.9907827 C24.3581871,12.9907827 24.8429935,13.205917 25.3981235,13.7292237 L25.3981235,12.2222636 C24.8118274,11.9385615 24.3307502,11.8210533 23.7511135,11.8210533 C21.7242498,11.8210533 20.1014802,13.3463661 20.1014802,15.2535169" id="Fill-16" fill="#1A1919"></path>
            <polyline id="Fill-17" fill="#1A1919" points="36.2375426 16.3768548 34.4080643 11.9694043 32.949383 11.9694043 35.8576888 18.7 36.5750424 18.7 39.5398202 11.9694043 38.0925931 11.9694043 36.2375426 16.3768548"></polyline>
            <polyline id="Fill-18" fill="#1A1919" points="40.1468937 18.534316 43.9409035 18.534316 43.9409035 17.4219388 41.4854389 17.4219388 41.4854389 15.6498842 43.8476715 15.6498842 43.8476715 14.5377619 41.4854389 14.5377619 41.4854389 13.0812717 43.9409035 13.0812717 43.9409035 11.9694043 40.1468937 11.9694043 40.1468937 18.534316"></polyline>
            <path d="M46.5540634,14.9881676 L46.1656855,14.9881676 L46.1656855,13.002508 L46.5759063,13.002508 C47.4117978,13.002508 47.8595778,13.3382094 47.8595778,13.9777498 C47.8595778,14.6348782 47.4117978,14.9881676 46.5540634,14.9881676 L46.5540634,14.9881676 Z M49.2372804,13.9063782 C49.2372804,12.6770026 48.3561048,11.9694043 46.8113837,11.9694043 L44.8242101,11.9694043 L44.8242101,18.534316 L46.1656855,18.534316 L46.1656855,15.8948417 L46.3396297,15.8948417 L48.1880208,18.534316 L49.8339652,18.534316 L47.6755112,15.7673924 C48.6842814,15.5701009 49.2372804,14.9109333 49.2372804,13.9063782 L49.2372804,13.9063782 Z" id="Fill-19" fill="#1A1919"></path>
            <path d="M33.137978,15.2688109 C33.137978,17.1588835 31.5375841,18.6908237 29.5615984,18.6908237 C27.5861454,18.6908237 25.9854851,17.1588835 25.9854851,15.2688109 C25.9854851,13.3784833 27.5861454,11.8462883 29.5615984,11.8462883 C31.5375841,11.8462883 33.137978,13.3784833 33.137978,15.2688109" id="Fill-20" fill="#E6772F"></path>
        </g>
    </g>
</svg>