<?xml version="1.0" encoding="UTF-8"?>
<svg width="57px" height="34px" viewBox="0 0 57 34" version="1.1" xmlns="http://www.w3.org/2000/svg" xmlns:xlink="http://www.w3.org/1999/xlink">
    <title>icons/payment/light/ master card</title>
    <g id="Icons" stroke="none" stroke-width="1" fill="none" fill-rule="evenodd">
        <g id="MasterCard-light">
            <rect id="Rectangle" fill="#FFFFFF" x="0" y="0" width="56.6666667" height="34" rx="4"></rect>
            <path d="M31.8062185,17.2750612 C31.8062185,23.3827394 26.8554498,28.3333333 20.7479464,28.3333333 C14.6402682,28.3333333 9.68915,23.3827394 9.68915,17.2750612 C9.68915,11.1675578 14.6402682,6.21643958 20.7479464,6.21643958 C26.8554498,6.21643958 31.8062185,11.1675578 31.8062185,17.2750612" id="Fill-333" fill="#CC0000"></path>
            <path d="M35.5946602,6.21643958 C32.7366394,6.21643958 30.1334183,7.30047425 28.1705169,9.07882938 C27.7711909,9.44128108 27.3984283,9.8327429 27.0543264,10.2495449 L29.2886297,10.2495449 C29.5937602,10.6210841 29.8749486,11.0116721 30.1316707,11.4207847 L26.2111107,11.4207847 C25.9765831,11.7966929 25.7633762,12.1872809 25.5739366,12.5920244 L30.7684952,12.5920244 C30.9460511,12.9710783 31.1022863,13.3614916 31.2368513,13.7627399 L25.1055805,13.7627399 C24.9780059,14.1440657 24.8703539,14.5348285 24.7843721,14.9332807 L31.5577102,14.9332807 C31.7198872,15.6882428 31.8062185,16.4715159 31.8062185,17.2750612 C31.8062185,18.5027484 31.6061186,19.6844738 31.2368513,20.7880815 L25.1055805,20.7880815 C25.2401455,21.1889804 25.3963807,21.5799179 25.5735871,21.9594961 L30.7684952,21.9594961 C30.5787061,22.3631911 30.3665478,22.7541286 30.1306221,23.1305611 L26.2111107,23.1305611 C26.4667842,23.5384503 26.7484969,23.9295626 27.0543264,24.3005776 L29.2879306,24.3005776 C28.9445278,24.7177291 28.5714157,25.1091909 28.1708664,25.4716426 C30.133593,27.2499977 32.7366394,28.3333333 35.5946602,28.3333333 C41.7019888,28.3333333 46.6529323,23.3827394 46.6529323,17.2750612 C46.6529323,11.1680821 41.7019888,6.21643958 35.5946602,6.21643958" id="Fill-334" fill="#FF9900"></path>
            <path d="M18.1655217,18.4857967 C18.0395199,18.4714664 17.9839463,18.4669226 17.8974403,18.4669226 C17.2169258,18.4669226 16.8728239,18.7004017 16.8728239,19.1615926 C16.8728239,19.4455772 17.040768,19.626104 17.3029076,19.626104 C17.7920601,19.626104 18.1445505,19.1605441 18.1655217,18.4857967 L18.1655217,18.4857967 Z M19.0387961,20.5184272 L18.0437142,20.5184272 L18.0666077,20.0457021 C17.7632248,20.418989 17.3583065,20.5972439 16.8083376,20.5972439 C16.1578818,20.5972439 15.7117202,20.0893921 15.7117202,19.3513817 C15.7117202,18.240434 16.4874787,17.5925997 17.8193227,17.5925997 C17.95581,17.5925997 18.1302202,17.6051824 18.3088247,17.6277264 C18.3458738,17.4770835 18.3556603,17.4131214 18.3556603,17.3318581 C18.3556603,17.0298733 18.1466477,16.916629 17.5858436,16.916629 C16.9984762,16.9106872 16.5140422,17.0569611 16.3149908,17.1223212 C16.3275735,17.0464755 16.4815368,16.0963068 16.4815368,16.0963068 C17.0795647,15.9204985 17.4741722,15.8547888 17.9182367,15.8547888 C18.9493191,15.8547888 19.4954433,16.3175526 19.49422,17.1923999 C19.4963171,17.4271022 19.4573457,17.7156305 19.3970536,18.0962572 C19.2928968,18.7568491 19.0692043,20.1736263 19.0387961,20.5184272 L19.0387961,20.5184272 Z" id="Fill-336" fill="#000066"></path>
            <polyline id="Fill-337" fill="#000066" points="15.2092859 20.5184272 14.0085118 20.5184272 14.6967156 16.2067549 13.1607523 20.5184272 12.3427019 20.5184272 12.241516 16.2308718 11.5187097 20.5184272 10.3950046 20.5184272 11.3336392 14.9091638 13.0600906 14.9091638 13.1644222 18.0488973 14.2176992 14.9091638 16.1377844 14.9091638 15.2092859 20.5184272"></polyline>
            <path d="M37.0780209,18.4857967 C36.9520191,18.4714664 36.8971445,18.4669226 36.8108132,18.4669226 C36.1297745,18.4669226 35.7860221,18.7004017 35.7860221,19.1615926 C35.7860221,19.4455772 35.9532672,19.626104 36.2161058,19.626104 C36.7049088,19.626104 37.057574,19.1605441 37.0780209,18.4857967 L37.0780209,18.4857967 Z M37.9518196,20.5184272 L36.9570871,20.5184272 L36.9796311,20.0457021 C36.6762482,20.418989 36.2715046,20.5972439 35.7218853,20.5972439 C35.0705557,20.5972439 34.6249184,20.0893921 34.6249184,19.3513817 C34.6249184,18.240434 35.4010264,17.5925997 36.7325208,17.5925997 C36.8688334,17.5925997 37.0428941,17.6051824 37.2216734,17.6277264 C37.2588972,17.4770835 37.268509,17.4131214 37.268509,17.3318581 C37.268509,17.0298733 37.0594963,16.916629 36.4986923,16.916629 C35.9113248,16.9106872 35.4270656,17.0569611 35.2273152,17.1223212 C35.2405969,17.0464755 35.3949098,16.0963068 35.3949098,16.0963068 C35.9925881,15.9204985 36.3875451,15.8547888 36.8309106,15.8547888 C37.8626921,15.8547888 38.4081172,16.3175526 38.4070687,17.1923999 C38.4091658,17.4271022 38.3705439,17.7156305 38.3099023,18.0962572 C38.206095,18.7568491 37.9818782,20.1736263 37.9518196,20.5184272 L37.9518196,20.5184272 Z" id="Fill-338" fill="#000066"></path>
            <path d="M24.374211,20.4490476 C24.0454879,20.5525054 23.7894649,20.5972439 23.5115969,20.5972439 C22.8980155,20.5972439 22.5630011,20.2445787 22.5630011,19.5949968 C22.5544378,19.393324 22.6512547,18.8629282 22.72745,18.3791933 C22.7970044,17.9529543 23.248234,15.266198 23.248234,15.266198 L24.4413188,15.266198 L24.3020352,15.9566737 L25.0229192,15.9566737 L24.8602179,17.0531163 L24.1368873,17.0531163 C23.9983028,17.9204489 23.8006495,19.0011632 23.7983777,19.1444662 C23.7983777,19.3796928 23.9238552,19.4824515 24.2095873,19.4824515 C24.3464242,19.4824515 24.4523286,19.4684707 24.5332424,19.4394606 L24.374211,20.4490476" id="Fill-339" fill="#000066"></path>
            <path d="M28.0329809,20.4121733 C27.6229946,20.5374761 27.2278628,20.598642 26.8086142,20.5972439 C25.472576,20.5954963 24.7761584,19.8982049 24.7761584,18.5621667 C24.7761584,17.0029603 25.6620155,15.8547888 26.8648868,15.8547888 C27.8486094,15.8547888 28.4772202,16.4975551 28.4772202,17.5052198 C28.4772202,17.8402342 28.4342293,18.1666854 28.3298977,18.6273521 L25.9535148,18.6273521 C25.8733001,19.2891672 26.2965682,19.5647633 26.9912381,19.5647633 C27.4178267,19.5647633 27.8033466,19.4766844 28.2316828,19.2779826 L28.0329809,20.4121733 L28.0329809,20.4121733 Z M27.3622531,17.7079411 C27.3690687,17.612697 27.4886044,16.8935607 26.8065171,16.8935607 C26.4269389,16.8935607 26.154838,17.1833124 26.0445646,17.7079411 L27.3622531,17.7079411 L27.3622531,17.7079411 Z" id="Fill-340" fill="#000066"></path>
            <path d="M19.7588063,17.3989659 C19.7588063,17.9754983 20.0384218,18.3734262 20.6727997,18.6724401 C21.1588065,18.9012006 21.2344775,18.9688326 21.2344775,19.1759229 C21.2344775,19.4599075 21.0198726,19.5888802 20.5450503,19.5888802 C20.1866181,19.5888802 19.853526,19.5326075 19.4692294,19.4083534 C19.4692294,19.4083534 19.3117708,20.4142704 19.3042562,20.4623294 C19.5770561,20.5213982 19.8203217,20.5764475 20.5536136,20.5972439 C21.8202722,20.5972439 22.4053678,20.114907 22.4053678,19.0724652 C22.4053678,18.4457767 22.1607041,18.0779075 21.5591811,17.801088 C21.0560478,17.5702304 20.9978528,17.5185015 20.9978528,17.3056442 C20.9978528,17.0590582 21.1976032,16.9330564 21.5853951,16.9330564 C21.821146,16.9330564 22.1428786,16.9582218 22.4481839,17.0013875 L22.6189242,15.943392 C22.3082014,15.893935 21.8366996,15.8547888 21.5623268,15.8547888 C20.2194729,15.8547888 19.7544373,16.5560996 19.7588063,17.3989659" id="Fill-341" fill="#000066"></path>
            <path d="M33.8718786,15.9751983 C34.2053202,15.9751983 34.5167421,16.0618791 34.9447287,16.2780569 L35.1413334,15.0606805 C34.9648261,14.9914757 34.3460018,14.5858583 33.8217226,14.5858583 C33.0185268,14.5858583 32.3387114,14.9850096 31.8614426,15.642281 C31.1645007,15.4115981 30.87772,15.8778571 30.5268024,16.342718 L30.2148563,16.4154181 C30.2384489,16.2625033 30.2599443,16.1106371 30.2531287,15.9566737 L29.1500452,15.9566737 C28.9997518,17.3689072 28.7328937,18.7987914 28.5240558,20.2115491 L28.469356,20.5184272 L29.6704797,20.5184272 C29.8709291,19.2157681 29.9805035,18.3819894 30.0472617,17.8171659 L30.4995399,17.5665605 C30.5675215,17.3147317 30.7784565,17.230148 31.2027731,17.2404588 C31.1473743,17.5378999 31.1173156,17.8512441 31.1173156,18.1754234 C31.1173156,19.6680463 31.9236571,20.5972439 33.2154811,20.5972439 C33.5483984,20.5972439 33.8343053,20.553554 34.2769717,20.4329697 L34.4873825,19.154777 C34.0892798,19.3503331 33.7633528,19.4424315 33.4678341,19.4424315 C32.7698437,19.4424315 32.3474494,18.927065 32.3474494,18.0758103 C32.3474494,16.8404337 32.9751864,15.9751983 33.8718786,15.9751983" id="Fill-342" fill="#000066"></path>
            <path d="M44.0362547,14.9091638 L43.7693966,16.5297109 C43.4417221,16.0978796 43.0890569,15.7850597 42.6234969,15.7850597 C42.0177797,15.7850597 41.4664127,16.2443283 41.1053591,16.9206485 C40.6025753,16.8163169 40.0830146,16.6389358 40.0830146,16.6389358 L40.0826651,16.6433048 C40.1226851,16.2652994 40.1396367,16.0353156 40.1356173,15.9566737 L39.0327086,15.9566737 C38.8829395,17.3689072 38.6157318,18.7987914 38.4070687,20.2115491 L38.3518446,20.5184272 L39.5533178,20.5184272 C39.7154949,19.4656746 39.8393995,18.5904778 39.9307989,17.8973807 C40.3414842,17.526191 40.5470017,17.2034097 40.9610075,17.2243809 C40.777335,17.6686202 40.6702073,18.1799672 40.6702073,18.7045959 C40.6702073,19.8445537 41.2465649,20.5972439 42.1196646,20.5972439 C42.5597096,20.5972439 42.8973455,20.4453777 43.2265928,20.0937611 L43.1699707,20.5180777 L44.305909,20.5180777 L45.2204267,14.9091638 L44.0362547,14.9091638 L44.0362547,14.9091638 Z M42.5348938,19.464626 C42.1263055,19.464626 41.9193899,19.1615926 41.9193899,18.5653124 C41.9193899,17.6686202 42.3061333,17.033019 42.8505098,17.033019 C43.2631176,17.033019 43.4868101,17.3468875 43.4868101,17.9263908 C43.4868101,18.8307724 43.0936006,19.464626 42.5348938,19.464626 L42.5348938,19.464626 Z" id="Fill-343" fill="#000066"></path>
            <polyline id="Fill-344" fill="#FFFFFF" points="15.5546112 20.1855099 14.3541865 20.1855099 15.0422156 15.8738376 13.5066018 20.1855099 12.6882019 20.1855099 12.5871908 15.8988283 11.8642097 20.1855099 10.7405046 20.1855099 11.6791392 14.5767708 13.4055906 14.5767708 13.4538243 18.0488973 14.6187728 14.5767708 16.4832844 14.5767708 15.5546112 20.1855099"></polyline>
            <path d="M18.5110217,18.1535784 C18.3851947,18.1388986 18.3296211,18.1348791 18.243115,18.1348791 C17.5626006,18.1348791 17.2183239,18.3680086 17.2183239,18.8288501 C17.2183239,19.1124851 17.3864428,19.2940605 17.6487572,19.2940605 C18.1377349,19.2940605 18.4902253,18.8285006 18.5110217,18.1535784 L18.5110217,18.1535784 Z M19.3841214,20.1855099 L18.3895637,20.1855099 L18.4122825,19.7131344 C18.1088995,20.0862464 17.7039812,20.2646761 17.1540123,20.2646761 C16.5033818,20.2646761 16.057395,19.7561253 16.057395,19.0182896 C16.057395,17.9071672 16.8333282,17.2602066 18.1651722,17.2602066 C18.30131,17.2602066 18.4757202,17.2726146 18.6544995,17.2956829 C18.6915485,17.1446905 18.7013351,17.0805536 18.7013351,16.9989408 C18.7013351,16.6971308 18.4923224,16.5847602 17.9315184,16.5847602 C17.3439762,16.5777699 16.8597169,16.7240438 16.6604908,16.7892291 C16.6732483,16.7137329 16.8270369,15.7635642 16.8270369,15.7635642 C17.4252394,15.5881054 17.8198469,15.5218715 18.2639114,15.5218715 C19.2948192,15.5218715 19.8407686,15.9851596 19.8398948,16.8596573 C19.8418171,17.0940101 19.8031952,17.3839365 19.7427284,17.7635147 C19.6383968,18.4235822 19.4147043,19.8412333 19.3841214,20.1855099 L19.3841214,20.1855099 Z" id="Fill-345" fill="#FFFFFF"></path>
            <path d="M35.4866587,14.7277632 L35.2900539,15.9449648 C34.8613683,15.7294861 34.5508202,15.642281 34.2177282,15.642281 C33.3213855,15.642281 32.6925999,16.508565 32.6925999,17.7441164 C32.6925999,18.5953711 33.115169,19.109689 33.8131594,19.109689 C34.1088529,19.109689 34.4354788,19.0182896 34.8327077,18.8220344 L34.6217727,20.1002272 C34.1798053,20.2206366 33.8937236,20.2646761 33.5609811,20.2646761 C32.2682833,20.2646761 31.4631651,19.3353038 31.4631651,17.8430304 C31.4631651,15.8378371 32.5762099,14.4364387 34.1672226,14.4364387 C34.6915018,14.4364387 35.3106756,14.6585584 35.4866587,14.7277632" id="Fill-346" fill="#FFFFFF"></path>
            <path d="M37.4233461,18.1535784 C37.2982181,18.1388986 37.2424698,18.1348791 37.1561385,18.1348791 C36.4759735,18.1348791 36.1315221,18.3680086 36.1315221,18.8288501 C36.1315221,19.1124851 36.2994662,19.2940605 36.5616058,19.2940605 C37.0504088,19.2940605 37.4032487,18.8285006 37.4233461,18.1535784 L37.4233461,18.1535784 Z M38.2971448,20.1855099 L37.3025871,20.1855099 L37.3251311,19.7131344 C37.0217482,20.0862464 36.6168299,20.2646761 36.0673853,20.2646761 C35.4160557,20.2646761 34.9705931,19.7561253 34.9705931,19.0182896 C34.9705931,17.9071672 35.7458273,17.2602066 37.0780209,17.2602066 C37.2141587,17.2602066 37.3882194,17.2726146 37.5668238,17.2956829 C37.6040477,17.1446905 37.6138342,17.0805536 37.6138342,16.9989408 C37.6138342,16.6971308 37.4053458,16.5847602 36.8441923,16.5847602 C36.2571743,16.5777699 35.7730899,16.7240438 35.5735142,16.7892291 C35.5860969,16.7137329 35.7400603,15.7635642 35.7400603,15.7635642 C36.3382629,15.5881054 36.7325208,15.5218715 37.1765853,15.5218715 C38.2074931,15.5218715 38.7539668,15.9851596 38.7525687,16.8596573 C38.7550153,17.0940101 38.7160439,17.3839365 38.655577,17.7635147 C38.551595,18.4235822 38.3279025,19.8412333 38.2971448,20.1855099 L38.2971448,20.1855099 Z" id="Fill-347" fill="#FFFFFF"></path>
            <path d="M24.7195363,20.1163051 C24.3911627,20.2197628 24.1347902,20.2646761 23.8572717,20.2646761 C23.2435155,20.2646761 22.9083263,19.9118362 22.9083263,19.2629533 C22.8999378,19.0605815 22.9969295,18.5310595 23.0732995,18.0468002 C23.1423296,17.6202117 23.593734,14.933805 23.593734,14.933805 L24.7871683,14.933805 L24.6475353,15.6241059 L25.2602429,15.6241059 L25.0970173,16.720199 L24.4823873,16.720199 C24.3438028,17.5884054 24.1461496,18.6684206 24.1437029,18.8117236 C24.1437029,19.0476493 24.2697047,19.149709 24.5550873,19.149709 C24.6919242,19.149709 24.7976539,19.1362525 24.8789171,19.1065433 L24.7195363,20.1163051" id="Fill-348" fill="#FFFFFF"></path>
            <path d="M28.3790052,20.0801298 C27.9688441,20.2057821 27.5728386,20.2650256 27.1541142,20.2646761 C25.8179012,20.2638023 25.1220079,19.5656371 25.1220079,18.2297737 C25.1220079,16.670043 26.0076903,15.5218715 27.2096878,15.5218715 C28.1944589,15.5218715 28.8227202,16.1646378 28.8227202,17.1735258 C28.8227202,17.5078412 28.7790303,17.8341176 28.675922,18.2949591 L26.2991896,18.2949591 C26.2186253,18.9567742 26.6424177,19.2328946 27.3363886,19.2328946 C27.7633267,19.2328946 28.1486719,19.1444662 28.5775323,18.9452401 L28.3790052,20.0801298 L28.3790052,20.0801298 Z M27.7081026,17.3750238 C27.7145687,17.279605 27.8346286,16.5608182 27.1527161,16.5608182 C26.7727885,16.5608182 26.5006875,16.8510941 26.3900646,17.3750238 L27.7081026,17.3750238 L27.7081026,17.3750238 Z" id="Fill-349" fill="#FFFFFF"></path>
            <path d="M20.1041315,17.0660486 C20.1041315,17.6436295 20.3840966,18.0406836 21.0186492,18.3400471 C21.5046561,18.5686328 21.5799775,18.6362648 21.5799775,18.8435299 C21.5799775,19.127864 21.3655473,19.2561376 20.8903756,19.2561376 C20.5322929,19.2561376 20.199026,19.200564 19.8145546,19.0766594 C19.8145546,19.0766594 19.6572709,20.0818774 19.6499309,20.1292373 C19.9225561,20.1890051 20.1659965,20.2435302 20.8989388,20.2646761 C22.1659469,20.2646761 22.7510425,19.782514 22.7510425,18.7400721 C22.7510425,18.1130342 22.5060294,17.7453397 21.9046811,17.4692193 C21.4013731,17.2376626 21.3435276,17.186458 21.3435276,16.9732511 C21.3435276,16.7266652 21.5431032,16.5997896 21.9312446,16.5997896 C22.1664712,16.5997896 22.4885534,16.6260035 22.7936839,16.6689944 L22.9645989,15.6111737 C22.6537014,15.5620662 22.1825491,15.5218715 21.9080016,15.5218715 C20.5647982,15.5218715 20.100112,16.2233571 20.1041315,17.0660486" id="Fill-350" fill="#FFFFFF"></path>
            <path d="M44.651409,20.1855099 L43.5158202,20.1855099 L43.5720928,19.7610185 C43.2426707,20.1128099 42.9052096,20.2646761 42.4651646,20.2646761 C41.592764,20.2646761 41.0155326,19.5128597 41.0155326,18.3716786 C41.0155326,16.8544145 41.9104772,15.5755227 42.968997,15.5755227 C43.4345569,15.5755227 43.7870473,15.7656613 44.1154209,16.1976674 L44.3817547,14.5767708 L45.5657519,14.5767708 L44.651409,20.1855099 L44.651409,20.1855099 Z M42.880219,19.1315339 C43.4396249,19.1315339 43.8321353,18.4980299 43.8321353,17.594522 C43.8321353,17.014844 43.6086176,16.6999269 43.1960099,16.6999269 C42.6514585,16.6999269 42.26489,17.3357028 42.26489,18.2327446 C42.26489,18.8297239 42.4719802,19.1315339 42.880219,19.1315339 L42.880219,19.1315339 Z" id="Fill-351" fill="#FFFFFF"></path>
            <path d="M39.3785581,15.6241059 C39.2284395,17.0359899 38.9614066,18.4658741 38.7525687,19.8788066 L38.6978689,20.1855099 L39.8986431,20.1855099 C40.3282025,17.395995 40.4314855,16.8516184 41.1053591,16.9195999 C41.2124868,16.3486598 41.4122372,15.8486722 41.5609577,15.5966687 C41.0581739,15.4918128 40.777335,15.7759722 40.409291,16.3159798 C40.4386507,16.082326 40.4916029,15.8556626 40.4816416,15.6241059 L39.3785581,15.6241059" id="Fill-352" fill="#FFFFFF"></path>
            <path d="M29.4960695,15.6241059 C29.3452518,17.0359899 29.0778694,18.4658741 28.8693811,19.8788066 L28.814856,20.1855099 L30.0159797,20.1855099 C30.4457139,17.395995 30.5486474,16.8516184 31.2214724,16.9195999 C31.3292992,16.3486598 31.5293991,15.8486722 31.6777701,15.5966687 C31.1755106,15.4918128 30.8941474,15.7759722 30.5268024,16.3159798 C30.5558126,16.082326 30.6091143,15.8556626 30.5986287,15.6241059 L29.4960695,15.6241059" id="Fill-353" fill="#FFFFFF"></path>
        </g>
    </g>
</svg>