<?xml version="1.0" encoding="UTF-8"?>
<svg width="57px" height="34px" viewBox="0 0 57 34" version="1.1" xmlns="http://www.w3.org/2000/svg" xmlns:xlink="http://www.w3.org/1999/xlink">
    <title>icons/payment/light/ visa</title>
    <g id="Icons" stroke="none" stroke-width="1" fill="none" fill-rule="evenodd">
        <g id="Visa-light">
            <rect id="Rectangle" fill="#FFFFFF" x="0" y="0" width="57" height="34" rx="4"></rect>
            <polyline id="Fill-1" fill="#26337A" points="23.6492947 22.409831 25.401895 11.6011831 28.2033636 11.6011831 26.4509235 22.409831 23.6492947 22.409831"></polyline>
            <path d="M36.6127365,11.8664789 C36.0588199,11.6495493 35.1876471,11.4129859 34.1024065,11.4129859 C31.3326636,11.4129859 29.3829799,12.8797746 29.3667966,14.9801127 C29.3491713,16.5337371 30.7580773,17.4001784 31.8202447,17.9165634 C32.9118946,18.4458779 33.278662,18.7846009 33.2743358,19.2578873 C33.2668049,19.981784 32.4030028,20.3134836 31.5975245,20.3134836 C30.4759116,20.3134836 29.8800147,20.1501878 28.9586898,19.7466573 L28.5983316,19.5745822 L28.2065682,21.9940094 C28.8598276,22.295061 30.0708491,22.5563662 31.3276965,22.5700939 C34.2712894,22.5700939 36.1839599,21.1210235 36.2063921,18.8781408 C36.2164866,17.6461596 35.4699731,16.7123568 33.8532482,15.9413709 C32.8742404,15.4401502 32.2733764,15.1081315 32.2802663,14.6008451 C32.2809072,14.151662 32.7878762,13.6707136 33.8851341,13.6707136 C34.8014918,13.6560282 35.4648458,13.8664131 35.9817491,14.0860563 L36.2333108,14.2096056 L36.6127365,11.8664789" id="Fill-2" fill="#26337A"></path>
            <path d="M40.3430607,18.5777277 C40.5752346,17.9564695 41.4590656,15.5565164 41.4590656,15.5565164 C41.4427221,15.5850892 41.6899576,14.9304695 41.8314411,14.5253427 L42.0205129,15.4575493 C42.0205129,15.4575493 42.558086,18.0373991 42.6688052,18.5777277 L40.3430607,18.5777277 L40.3430607,18.5777277 Z M43.7992308,11.6121972 L41.6341974,11.6121972 C40.9626718,11.6121972 40.4600289,11.8034272 40.1658459,12.508169 L36.0054632,22.413662 L38.9479345,22.413662 C38.9479345,22.413662 39.4279848,21.0811174 39.5369415,20.7886854 C39.857883,20.7886854 42.7170346,20.7942723 43.1251414,20.7942723 C43.2091022,21.1714648 43.466272,22.413662 43.466272,22.413662 L46.0664912,22.413662 L43.7992308,11.6121972 L43.7992308,11.6121972 Z" id="Fill-3" fill="#26337A"></path>
            <path d="M21.299035,11.6102817 L18.5570119,18.9791831 L18.2633096,17.4812676 C17.7523348,15.7554085 16.1617275,13.88477 14.3825289,12.9474554 L16.8910963,22.4004131 L19.8559999,22.3986573 L24.2677841,11.6102817 L21.299035,11.6102817" id="Fill-4" fill="#26337A"></path>
            <path d="M16.0115916,11.602939 L11.493895,11.602939 L11.4567216,11.826892 C14.9720166,12.7222254 17.2979213,14.8833803 18.2633096,17.4812676 L17.2815778,12.5148732 C17.1122143,11.8299249 16.6199865,11.6268826 16.0115916,11.602939" id="Fill-5" fill="#EC982D"></path>
        </g>
    </g>
</svg>