<?xml version="1.0" encoding="UTF-8"?>
<svg width="40px" height="40px" viewBox="0 0 40 40" version="1.1" xmlns="http://www.w3.org/2000/svg" xmlns:xlink="http://www.w3.org/1999/xlink">
    <!-- Generator: Sketch 64 (93537) - https://sketch.com -->
    <title>Group 5</title>
    <desc>Created with Sketch.</desc>
    <g id="Renting-a-Unit" stroke="none" stroke-width="1" fill="none" fill-rule="evenodd">
        <g id="Filters" transform="translate(-1142.000000, -657.000000)">
            <g id="Group-5" transform="translate(1142.000000, 657.000000)">
                <circle id="Oval-Copy-3" fill="#377D21" cx="20" cy="20" r="20"></circle>
                <path d="M11,20.8483642 L11,12.8750009 C11,11.8394535 11.8394535,11 12.8750009,11 L20.8483642,11 C21.3456443,11 21.8225563,11.1975485 22.1741851,11.54918 L30.4508298,19.8258246 C31.1830567,20.5580515 31.1830567,21.7452396 30.4508298,22.4774665 L22.4774665,30.4508298 C21.7452396,31.1830567 20.5580515,31.1830567 19.8258246,30.4508298 L11.54918,22.1741851 C11.1975485,21.8225563 11,21.3456443 11,20.8483642 Z M15.3750021,13.5000012 C14.3394548,13.5000012 13.5000012,14.3394548 13.5000012,15.3750021 C13.5000012,16.4105495 14.3394548,17.2500031 15.3750021,17.2500031 C16.4105495,17.2500031 17.2500031,16.4105495 17.2500031,15.3750021 C17.2500031,14.3394548 16.4105495,13.5000012 15.3750021,13.5000012 Z" id="Shape" fill="#FFFFFF" fill-rule="nonzero"></path>
            </g>
        </g>
    </g>
</svg>