<?xml version="1.0" encoding="UTF-8"?>
<svg width="40px" height="40px" viewBox="0 0 40 40" version="1.1" xmlns="http://www.w3.org/2000/svg" xmlns:xlink="http://www.w3.org/1999/xlink">
    <!-- Generator: Sketch 64 (93537) - https://sketch.com -->
    <title>Group 3</title>
    <desc>Created with Sketch.</desc>
    <g id="Renting-a-Unit" stroke="none" stroke-width="1" fill="none" fill-rule="evenodd">
        <g id="Filters" transform="translate(-1142.000000, -588.000000)">
            <g id="Group-3" transform="translate(1142.000000, 588.000000)">
                <circle id="Oval-Copy-2" fill="#F1D615" cx="20" cy="20" r="20"></circle>
                <path d="M27.8571429,10 L12.1428571,10 C10.9598214,10 10,10.9598214 10,12.1428571 L10,27.8571429 C10,29.0401786 10.9598214,30 12.1428571,30 L27.8571429,30 C29.0401786,30 30,29.0401786 30,27.8571429 L30,12.1428571 C30,10.9598214 29.0401786,10 27.8571429,10 Z M20.7142857,22.8571429 L18.5714286,22.8571429 L18.5714286,25 C18.5714286,25.3928571 18.25,25.7142857 17.8571429,25.7142857 L16.4285714,25.7142857 C16.0357143,25.7142857 15.7142857,25.3928571 15.7142857,25 L15.7142857,15 C15.7142857,14.6071429 16.0357143,14.2857143 16.4285714,14.2857143 L20.7142857,14.2857143 C23.0758929,14.2857143 25,16.2098214 25,18.5714286 C25,20.9330357 23.0758929,22.8571429 20.7142857,22.8571429 Z M20.7142857,17.1428571 L18.5714286,17.1428571 L18.5714286,20 L20.7142857,20 C21.5,20 22.1428571,19.3571429 22.1428571,18.5714286 C22.1428571,17.7857143 21.5,17.1428571 20.7142857,17.1428571 Z" id="Shape" fill="#FFFFFF" fill-rule="nonzero"></path>
            </g>
        </g>
    </g>
</svg>