<?xml version="1.0" encoding="UTF-8"?>
<svg width="40px" height="40px" viewBox="0 0 40 40" version="1.1" xmlns="http://www.w3.org/2000/svg" xmlns:xlink="http://www.w3.org/1999/xlink">
    <!-- Generator: Sketch 64 (93537) - https://sketch.com -->
    <title>Group 6</title>
    <desc>Created with Sketch.</desc>
    <g id="Renting-a-Unit" stroke="none" stroke-width="1" fill="none" fill-rule="evenodd">
        <g id="Filters" transform="translate(-1142.000000, -728.000000)">
            <g id="Group-6" transform="translate(1142.000000, 728.000000)">
                <circle id="Oval-Copy-4" fill="#CE3138" cx="20" cy="20" r="20"></circle>
                <path d="M22.250042,28.125 L20.7222409,28.125 L20.7222409,23.5472656 C23.3374545,22.9265625 25.2311639,20.4257812 24.977167,17.5253906 L24.3679563,10.5683594 C24.339692,10.2464844 24.0795838,10 23.7679124,10 L15.2320876,10 C14.9207981,10 14.660308,10.2464844 14.6324256,10.5683594 L14.022833,17.5257813 C13.7688361,20.4261719 15.6625455,22.9269531 18.2777591,23.5476562 L18.2777591,28.125 L16.749958,28.125 C15.9062298,28.125 15.2221569,28.8246094 15.2221569,29.6875 C15.2221569,29.8601562 15.3588951,30 15.5277171,30 L23.4722829,30 C23.6411049,30 23.7778431,29.8601562 23.7778431,29.6875 C23.7778431,28.8246094 23.0937702,28.125 22.250042,28.125 Z M16.358459,11.875 L22.641541,11.875 L22.9153994,15 L16.0846006,15 L16.358459,11.875 Z" id="Shape" fill="#FFFFFF" fill-rule="nonzero"></path>
            </g>
        </g>
    </g>
</svg>