<?xml version="1.0" encoding="UTF-8"?>
<svg width="40px" height="40px" viewBox="0 0 40 40" version="1.1" xmlns="http://www.w3.org/2000/svg" xmlns:xlink="http://www.w3.org/1999/xlink">
    <!-- Generator: Sketch 64 (93537) - https://sketch.com -->
    <title>Group 7</title>
    <desc>Created with Sketch.</desc>
    <g id="Renting-a-Unit" stroke="none" stroke-width="1" fill="none" fill-rule="evenodd">
        <g id="Filters" transform="translate(-1142.000000, -797.000000)">
            <g id="Group-7" transform="translate(1142.000000, 797.000000)">
                <circle id="Oval-Copy-5" fill="#4A90E2" cx="20" cy="20" r="20"></circle>
                <path d="M31.8878128,25.2292969 L26.3059605,12.7292969 C26.107507,12.2847656 25.6750622,12 25.1990934,12 L21.3022985,12 L21.4001276,12.9046875 C21.4200928,13.0890625 21.2719515,13.25 21.0822827,13.25 L19.917916,13.25 C19.7282473,13.25 19.580106,13.0890625 19.6000711,12.9046875 L19.6979003,12 L15.8011053,12 C15.3247372,12 14.8922924,12.2847656 14.6938389,12.7292969 L9.11198662,25.2292969 C8.74263163,26.0570313 9.3320024,27 10.2196523,27 L18.0795265,27 L18.4912075,23.184375 C18.5255476,22.8664063 18.7994692,22.625 19.1264981,22.625 L21.8737006,22.625 C22.2007295,22.625 22.4746512,22.8664063 22.5089912,23.184375 L22.9206723,27 L30.7805464,27 C31.6681963,27 32.2575671,26.0570313 31.8878128,25.2292969 Z M19.7158689,14.4999999 L21.2847292,14.4999999 C21.448044,14.4999999 21.5854041,14.6207031 21.6025741,14.7796875 L21.7862533,16.4820313 C21.816201,16.7589844 21.5941887,16.9999999 21.3098852,16.9999999 L19.6911121,16.9999999 C19.4064093,16.9999999 19.1847963,16.7589844 19.214744,16.4820313 L19.3980239,14.7796875 C19.4151917,14.6206219 19.5523659,14.4999156 19.7158689,14.4999999 Z M19.3960274,21.375 C19.0166899,21.375 18.7208066,21.0535156 18.7607368,20.684375 L18.9631833,18.809375 C18.9975233,18.4914063 19.271445,18.25 19.5984739,18.25 L21.4013255,18.25 C21.7283544,18.25 22.0022761,18.4914063 22.0366161,18.809375 L22.2390626,20.684375 C22.2789929,21.0535156 21.9831096,21.375 21.603772,21.375 L19.3960274,21.375 Z" id="Shape" fill="#FFFFFF" fill-rule="nonzero"></path>
            </g>
        </g>
    </g>
</svg>