<?xml version="1.0" encoding="UTF-8"?>
<svg width="40px" height="40px" viewBox="0 0 40 40" version="1.1" xmlns="http://www.w3.org/2000/svg" xmlns:xlink="http://www.w3.org/1999/xlink">
    <!-- Generator: Sketch 64 (93537) - https://sketch.com -->
    <title>Group</title>
    <desc>Created with Sketch.</desc>
    <g id="Renting-a-Unit" stroke="none" stroke-width="1" fill="none" fill-rule="evenodd">
        <g id="Filters" transform="translate(-1142.000000, -448.000000)">
            <g id="Group" transform="translate(1142.000000, 448.000000)">
                <circle id="Oval" fill="#1B3C92" cx="20" cy="20" r="20"></circle>
                <path d="M29.6733053,23.8328125 L28.2399436,22.9949219 L29.3425295,22.6941406 C29.6902682,22.5996094 29.8980632,22.234375 29.8047675,21.8820313 L29.6351389,21.2417969 C29.5418432,20.8894531 29.1813824,20.6789063 28.8336437,20.7734375 L25.8312174,21.5898438 L23.1214005,20 L25.8269767,18.4144531 L28.829403,19.2308594 C29.1771417,19.3253906 29.5376024,19.1148438 29.6308982,18.7625 L29.8005268,18.1222656 C29.8938225,17.7699219 29.6860275,17.4046875 29.3382888,17.3101563 L28.2357029,17.009375 L29.6690646,16.1714844 C29.9828775,15.9867188 30.0888954,15.5828125 29.9107854,15.2648438 L29.2534745,14.1132812 C29.0711238,13.7953125 28.6724966,13.6878906 28.3586836,13.8683594 L26.9253219,14.70625 L27.222172,13.5890625 C27.3154677,13.2367188 27.1076727,12.8714844 26.7599341,12.7769531 L26.1280675,12.6050781 C25.7803289,12.5105469 25.4198681,12.7210938 25.3265723,13.0734375 L24.5208365,16.115625 L21.8576674,17.6710938 L21.8576674,14.3410156 L24.1349314,12.0335938 C24.3978557,11.7671875 24.3978557,11.3289063 24.1349314,11.0625 L23.6557306,10.5769531 C23.3928063,10.3105469 22.9602533,10.3105469 22.697329,10.5769531 L21.8576674,11.4234375 L21.8576674,9.6875 C21.8576674,9.309375 21.5523359,9 21.179153,9 L19.8221241,9 C19.4489412,9 19.1436097,9.309375 19.1436097,9.6875 L19.1436097,11.4234375 L18.3081889,10.5769531 C18.0452645,10.3105469 17.6127116,10.3105469 17.3497872,10.5769531 L16.8663457,11.0625 C16.5991807,11.3289062 16.5991807,11.7671875 16.8663457,12.0335937 L19.1436097,14.3410156 L19.1436097,17.6710938 L16.4804406,16.115625 L15.6747048,13.0734375 C15.581409,12.7210938 15.2209483,12.5105469 14.8732096,12.6050781 L14.2413431,12.7769531 C13.8936044,12.8714844 13.6858094,13.2367188 13.7791051,13.5890625 L14.0759552,14.70625 L12.6425935,13.8683594 C12.3287806,13.6835938 11.9301533,13.7953125 11.7478026,14.1132812 L11.0904917,15.2605469 C10.908141,15.5785156 11.0183996,15.9824219 11.3322125,16.1671875 L12.7655742,17.0050781 L11.6629883,17.3058594 C11.3110089,17.4003906 11.1032139,17.765625 11.1965096,18.1222656 L11.3661382,18.7625 C11.459434,19.1148437 11.8198947,19.3253906 12.1676334,19.2308594 L15.1700597,18.4144531 L17.8756359,20 L15.1700597,21.5855469 L12.1676334,20.7691406 C11.8198947,20.6746094 11.459434,20.8851562 11.3661382,21.2375 L11.1965096,21.8777344 C11.1032139,22.2300781 11.3110089,22.5953125 11.6587476,22.6898437 L12.7613335,22.990625 L11.3279718,23.8328125 C11.0141589,24.0175781 10.908141,24.4214844 11.086251,24.7394531 L11.7435619,25.8910156 C11.9259126,26.2089844 12.3245398,26.3164062 12.6383528,26.1359375 L14.0717145,25.2980469 L13.7748644,26.4152344 C13.6815687,26.7675781 13.8893637,27.1328125 14.2371024,27.2273437 L14.8689689,27.3992187 C15.2167075,27.49375 15.5771683,27.2832031 15.6704641,26.9308594 L16.4761999,23.8886719 L19.139369,22.3332031 L19.139369,25.6632812 L16.862105,27.9707031 C16.59494,28.2371094 16.59494,28.6753906 16.862105,28.9417969 L17.3413058,29.4273437 C17.6042301,29.69375 18.0367831,29.69375 18.2997074,29.4273437 L19.1351283,28.5808594 L19.1351283,30.3125 C19.1351283,30.690625 19.4404598,31 19.8136427,31 L21.1706715,31 C21.5438545,31 21.849186,30.690625 21.849186,30.3125 L21.849186,28.5765625 L22.6846068,29.4230469 C22.9475312,29.6894531 23.3800841,29.6894531 23.6430085,29.4230469 L24.1222093,28.9375 C24.3851336,28.6710938 24.3851336,28.2328125 24.1222093,27.9664062 L21.8576674,25.6589844 L21.8576674,22.3289062 L24.5208365,23.884375 L25.3265723,26.9265625 C25.4198681,27.2789062 25.7803289,27.4894531 26.1280675,27.3949219 L26.7599341,27.2230469 C27.1076727,27.1285156 27.3154677,26.7632812 27.222172,26.4109375 L26.9253219,25.29375 L28.3586836,26.1316406 C28.6724966,26.3164062 29.0711238,26.2046875 29.2534745,25.8867188 L29.9107854,24.7351562 C30.0931361,24.4214844 29.9871182,24.0132812 29.6733053,23.8328125 Z" id="Path" fill="#FFFFFF"></path>
            </g>
        </g>
    </g>
</svg>