<?xml version="1.0" encoding="UTF-8"?>
<svg width="50px" height="50px" viewBox="0 0 50 50" version="1.1" xmlns="http://www.w3.org/2000/svg" xmlns:xlink="http://www.w3.org/1999/xlink">
    <title>icons/general/access</title>
    <g id="Icons" stroke="none" stroke-width="1" fill="none" fill-rule="evenodd">
        <g id="key-copy-3" fill="#1B3C92">
            <path d="M50,17.1875977 C50,26.6799805 42.3048828,34.375 32.8125,34.375 C31.7167969,34.375 30.6455078,34.2712891 29.6067383,34.075293 L27.2618164,36.7133789 C26.8170478,37.2137474 26.1795268,37.5000241 25.5100586,37.5 L21.875,37.5 L21.875,41.40625 C21.875,42.7006836 20.8256836,43.75 19.53125,43.75 L15.625,43.75 L15.625,47.65625 C15.625,48.9506836 14.5756836,50 13.28125,50 L2.34375,50 C1.04931641,50 0,48.9506836 0,47.65625 L0,40.0333008 C0,39.4117188 0.246972656,38.8155273 0.686425781,38.3759766 L16.4874023,22.575 C15.9285156,20.8802734 15.625,19.0694336 15.625,17.1875 C15.625,7.69511719 23.3200195,0 32.8124023,0 C42.3328125,0 50,7.66708984 50,17.1875977 Z M32.8125,12.5 C32.8125,15.0888672 34.9111328,17.1875 37.5,17.1875 C40.0888672,17.1875 42.1875,15.0888672 42.1875,12.5 C42.1875,9.91113281 40.0888672,7.8125 37.5,7.8125 C34.9111328,7.8125 32.8125,9.91113281 32.8125,12.5 Z" id="Shape"></path>
        </g>
    </g>
</svg>