<?xml version="1.0" encoding="UTF-8"?>
<svg width="50px" height="50px" viewBox="0 0 50 50" version="1.1" xmlns="http://www.w3.org/2000/svg" xmlns:xlink="http://www.w3.org/1999/xlink">
    <title>icons/general/auto-pay</title>
    <g id="Icons" stroke="none" stroke-width="1" fill="none" fill-rule="evenodd">
        <g id="icons/general/auto-pay" fill="#1B3C92">
            <path d="M43.0322266,1.22753902 L43.4228516,9.31054653 C38.8305289,3.89309362 32.0853812,0.773078908 24.9833984,0.781249971 C13.1572266,0.781249971 3.31152344,9.26953091 1.20019531,20.4902336 C1.13696397,20.8325043 1.22915222,21.1851717 1.45179072,21.4527153 C1.67442923,21.7202588 2.00447663,21.8749899 2.35253906,21.8749992 L7.14257813,21.8749992 C7.68623165,21.8744103 8.15809259,21.5 8.28222656,20.9707024 C9.87842949,14.3462279 15.2391643,9.29139222 21.945899,8.08671883 C28.6526338,6.88204544 35.437421,9.75528488 39.2392578,15.4101557 L29.3310547,14.9355463 C29.0107267,14.9203133 28.6981508,15.0370203 28.4661905,15.2584622 C28.2342302,15.479904 28.1031536,15.7867315 28.1035156,16.1074213 L28.1035156,20.7373039 C28.1035156,21.3845126 28.6281819,21.9091789 29.2753906,21.9091789 L48.828125,21.9091789 C49.4753337,21.9091789 50,21.3845126 50,20.7373039 L50,1.17187496 C50,0.52466629 49.4753337,0 48.828125,0 L44.2021484,0 C43.8817978,0 43.575483,0.131482788 43.3544686,0.363381884 C43.1334542,0.59528098 43.0170099,0.907549934 43.0322266,1.22753902 Z M24.9833984,42.1874985 C19.2608403,42.1924014 13.9128944,39.3426057 10.7255859,34.5898425 L20.6669922,35.0654284 C20.9873202,35.0806614 21.299896,34.9639544 21.5318564,34.7425126 C21.7638167,34.5210707 21.8948932,34.2142432 21.8945312,33.8935534 L21.8945312,29.2646474 C21.8945312,28.6174387 21.3698649,28.0927724 20.7226562,28.0927724 L1.171875,28.0927724 C0.524666309,28.0927724 0,28.6174387 0,29.2646474 L0,48.8281232 C0,49.4753319 0.524666309,49.9999991 1.171875,49.9999991 L5.79589844,49.9999991 C6.11712257,50.0004 6.42442933,49.8689245 6.64596338,49.6363138 C6.86749744,49.403703 6.98383491,49.090352 6.96777344,48.7695295 L6.5625,40.7060532 C11.1538534,46.1122599 17.8906166,49.2254637 24.9833984,49.2187482 C36.8105469,49.2187482 46.65625,40.7304673 48.7675781,29.5097645 C48.8308095,29.1674938 48.7386212,28.8148264 48.5159827,28.5472829 C48.2933442,28.2797393 47.9632968,28.1250083 47.6152344,28.124999 L42.8251953,28.124999 C42.2815418,28.1255878 41.8096809,28.5000036 41.6855469,29.0292958 C39.829082,36.7488426 32.9230373,42.1895281 24.9833984,42.1874985 Z" id="Shape"></path>
        </g>
    </g>
</svg>