<?xml version="1.0" encoding="UTF-8"?>
<svg width="50px" height="50px" viewBox="0 0 50 50" version="1.1" xmlns="http://www.w3.org/2000/svg" xmlns:xlink="http://www.w3.org/1999/xlink">
    <title>icons/general/box</title>
    <g id="Icons" stroke="none" stroke-width="1" fill="none" fill-rule="evenodd">
        <g id="icons/general/box" fill="#585858">
            <path d="M23.9583333,47.8333333 L6.25,38.3854167 L6.25,30.15 L17.5,36.6541667 L23.9583333,29.5583333 L23.9583333,47.8333333 Z M26.0416667,47.83125 L26.0416667,29.4854167 L32.6291667,36.45 L43.75,30.2875 L43.75,38.3854167 L26.0416667,47.83125 Z M4.50208333,26.7375 L0,24.1458333 L6.25,17.2666667 L0,11.3854167 L18.1625,2 L24.8604167,6.96875 L31.7875,2 L50,11.5020833 L43.7604167,17.275 L50,24.4479167 L45.3291667,27.0333333 L45.3291667,27.03125 L33.03125,33.84375 L26.05625,26.4666667 L41.50625,18.2125 L25.0020833,9.10416667 L8.49583333,18.2125 L23.9583333,26.4145833 L23.9583333,26.4645833 L17.0895833,34.0104167 L6.25,27.74375 L5.91666667,27.5520833 L4.50208333,26.7333333 L4.50208333,26.7375 Z" id="box"></path>
        </g>
    </g>
</svg>