<?xml version="1.0" encoding="UTF-8"?>
<svg width="50px" height="50px" viewBox="0 0 50 50" version="1.1" xmlns="http://www.w3.org/2000/svg" xmlns:xlink="http://www.w3.org/1999/xlink">
    <title>icons/general/delete information</title>
    <g id="Icons" stroke="none" stroke-width="1" fill="none" fill-rule="evenodd">
        <g id="icons/general/delete-information" fill-rule="nonzero">
            <g id="Group-5">
                <path d="M25,0 C38.8071187,0 50,11.1928813 50,25 C50,38.8071187 38.8071187,50 25,50 C11.1928813,50 0,38.8071187 0,25 C0,11.1928813 11.1928813,0 25,0 Z" id="Oval-Copy-12" fill="#4A4A4A"></path>
                <path d="M25,3 C12.8497355,3 3,12.8497355 3,25 C3,37.1502645 12.8497355,47 25,47 C37.1502645,47 47,37.1502645 47,25 C47,12.8497355 37.1502645,3 25,3 Z" id="Path" fill="#F3F3F3"></path>
                <path d="M27.53125,28.65625 C27.53125,27.9895833 27.7083333,27.421875 28.0625,26.953125 C28.4166667,26.484375 28.9791667,25.90625 29.75,25.21875 C30.3958333,24.6354167 30.921875,24.1197917 31.328125,23.671875 C31.734375,23.2239583 32.078125,22.6770833 32.359375,22.03125 C32.640625,21.3854167 32.78125,20.6354167 32.78125,19.78125 C32.78125,17.96875 32.0572917,16.5520833 30.609375,15.53125 C29.1614583,14.5104167 27.2395833,14 24.84375,14 C22.8020833,14 21.0364583,14.3645833 19.546875,15.09375 C18.0572917,15.8229167 16.875,16.8541667 16,18.1875 L16,18.1875 L19.78125,20.40625 C20.3020833,19.6770833 20.9427083,19.109375 21.703125,18.703125 C22.4635417,18.296875 23.3333333,18.09375 24.3125,18.09375 C25.3333333,18.09375 26.1510417,18.3177083 26.765625,18.765625 C27.3802083,19.2135417 27.6875,19.8229167 27.6875,20.59375 C27.6875,21.1354167 27.5260417,21.6197917 27.203125,22.046875 C26.8802083,22.4739583 26.375,23 25.6875,23.625 C24.75,24.4791667 24.0364583,25.2604167 23.546875,25.96875 C23.0572917,26.6770833 22.8125,27.5729167 22.8125,28.65625 L22.8125,28.65625 L27.53125,28.65625 Z M25.1875,36.5 C26.0416667,36.5 26.7552083,36.2239583 27.328125,35.671875 C27.9010417,35.1197917 28.1875,34.4479167 28.1875,33.65625 C28.1875,32.8645833 27.90625,32.203125 27.34375,31.671875 C26.78125,31.140625 26.0625,30.875 25.1875,30.875 C24.3125,30.875 23.59375,31.140625 23.03125,31.671875 C22.46875,32.203125 22.1875,32.8645833 22.1875,33.65625 C22.1875,34.4479167 22.4739583,35.1197917 23.046875,35.671875 C23.6197917,36.2239583 24.3333333,36.5 25.1875,36.5 Z" id="?" fill="#4A4A4A"></path>
            </g>
        </g>
    </g>
</svg>