<?xml version="1.0" encoding="UTF-8"?>
<svg width="50px" height="50px" viewBox="0 0 50 50" version="1.1" xmlns="http://www.w3.org/2000/svg" xmlns:xlink="http://www.w3.org/1999/xlink">
    <title>icons/general/delete</title>
    <g id="Icons" stroke="none" stroke-width="1" fill="none" fill-rule="evenodd">
        <g id="icons/general/delete" fill="#1B3C92">
            <path d="M39.4166667,50 L10.25,50 C7.95,50 6.08333333,48.1333333 6.08333333,45.8333333 L6.08333333,10.4166667 L4,10.4166667 L4,6.25 L16.5,6.25 L16.5,3.125 C16.5,1.40208333 17.9020833,0 19.625,0 L30.0416667,0 C31.7604167,0 33.1666667,1.39791667 33.1666667,3.125 L33.1666667,6.25 L45.6666667,6.25 L45.6666667,10.4166667 L43.5833333,10.4166667 L43.5833333,45.8333333 C43.5833333,48.1333333 41.7166667,50 39.4166667,50 Z M39.4166667,10.4166667 L10.25,10.4166667 L10.25,44.7916667 C10.25,45.3666667 10.7166667,45.8333333 11.2916667,45.8333333 L38.375,45.8333333 C38.95,45.8333333 39.4166667,45.3666667 39.4166667,44.7916667 L39.4166667,10.4166667 Z M24.8333333,26.2208333 L31.69375,19.3604167 L34.6395833,22.30625 L27.7791667,29.1666667 L34.6395833,36.0270833 L31.69375,38.9729167 L24.8333333,32.1125 L17.9729167,38.9729167 L15.0270833,36.0270833 L21.8875,29.1666667 L15.0270833,22.30625 L17.9729167,19.3604167 L24.8333333,26.2208333 L24.8333333,26.2208333 Z M29,4.16666667 L20.6666667,4.16666667 L20.6666667,6.25 L29,6.25 L29,4.16666667 Z" id="Shape"></path>
        </g>
    </g>
</svg>