<?xml version="1.0" encoding="UTF-8"?>
<svg width="50px" height="50px" viewBox="0 0 50 50" version="1.1" xmlns="http://www.w3.org/2000/svg" xmlns:xlink="http://www.w3.org/1999/xlink">
    <title>icons/general/e-sign</title>
    <g id="Icons" stroke="none" stroke-width="1" fill="none" fill-rule="evenodd">
        <g id="icons/general/e-sign" fill="#1B3C92">
            <path d="M28.06875,14.9083333 C27.1833333,13.99375 27.2333333,12.5604167 28.1416667,11.675 L37.4354167,2.6625 C37.8895833,2.22291667 38.4729167,2 39.05,2 C39.6375,2 40.2229167,2.22916667 40.6666667,2.68958333 L28.06875,14.9083333 L28.06875,14.9083333 Z M12.7895833,37.86875 C12.5979167,38.0541667 12.5,38.3020833 12.5,38.55 C12.5,39.0708333 12.925,39.5 13.45,39.5 C13.6875,39.5 13.9270833,39.4125 14.1104167,39.2333333 L15.6708333,37.7145833 L14.3520833,36.3520833 L12.7895833,37.86875 L12.7895833,37.86875 Z M25.9770833,20.3166667 L20.6354167,25.49375 C17.7645833,28.2770833 16.3,30.9729167 14.9479167,34.7375 L17.30625,37.1729167 C21.1083333,35.9375 23.8479167,34.5583333 26.71875,31.775 L32.0583333,26.5958333 L25.9770833,20.3166667 L25.9770833,20.3166667 Z M41.5541667,4.36041667 L27.7958333,17.7041667 L34.725,24.8583333 L48.4833333,11.51875 C49.49375,10.5416667 50,9.24166667 50,7.93958333 C50,3.58958333 44.7291667,1.28125 41.5541667,4.36041667 L41.5541667,4.36041667 Z M37.5,27.9708333 L37.5,43.6666667 L4.16666667,43.6666667 L4.16666667,18.6666667 L20.8604167,18.6666667 L25.1479167,14.5 L0,14.5 L0,47.8333333 L41.6666667,47.8333333 L41.6666667,23.93125 L37.5,27.9708333 Z" id="Shape"></path>
        </g>
    </g>
</svg>