<?xml version="1.0" encoding="UTF-8"?>
<svg width="50px" height="50px" viewBox="0 0 50 50" version="1.1" xmlns="http://www.w3.org/2000/svg" xmlns:xlink="http://www.w3.org/1999/xlink">
    <title>icons/general/email</title>
    <defs>
        <filter id="filter-1">
            <feColorMatrix in="SourceGraphic" type="matrix" values="0 0 0 0 0.105882 0 0 0 0 0.235294 0 0 0 0 0.572549 0 0 0 1.000000 0"></feColorMatrix>
        </filter>
    </defs>
    <g id="Icons" stroke="none" stroke-width="1" fill="none" fill-rule="evenodd">
        <g id="mail" filter="url(#filter-1)">
            <g transform="translate(0.000000, 9.000000)">
                <path d="M1.59444651,3.51758824 C2.95000187,4.23423529 21.7277771,14.1688235 22.4277771,14.5380882 C23.1277769,14.9073529 24.0333323,15.0824118 24.9444433,15.0824118 C25.8555543,15.0824118 26.7611097,14.9073529 27.4611097,14.5380882 C28.1611096,14.1688235 46.9388848,4.23423529 48.2944401,3.51758824 C49.6527733,2.79820588 50.9361065,-3.55271368e-15 48.4444401,-3.55271368e-15 L1.4472243,-3.55271368e-15 C-1.04444203,-3.55271368e-15 0.238891135,2.79820588 1.59444651,3.51758824 Z M48.9249957,9.54344118 C47.3833291,10.3339412 28.405554,20.0715882 27.4611097,20.5584706 C26.5166654,21.0453529 25.8555543,21.1027941 24.9444433,21.1027941 C24.0333324,21.1027941 23.3722214,21.0453529 22.4277771,20.5584706 C21.4833328,20.0715882 2.61389082,10.3312059 1.07222436,9.54070588 C-0.0111088308,8.98270588 0,9.63644118 0,10.1397353 C0,10.6430294 0,30.0882353 0,30.0882353 C0,31.2370588 1.57222429,32.8235294 2.77777968,32.8235294 L47.2222182,32.8235294 C48.4277735,32.8235294 50,31.2370588 50,30.0882353 C50,30.0882353 50,10.6457647 50,10.1424706 C50,9.63917647 50.0111066,8.98544118 48.9249957,9.54344118 Z" id="Shape" fill="#1B3C92" fill-rule="nonzero"></path>
            </g>
        </g>
    </g>
</svg>