<?xml version="1.0" encoding="UTF-8"?>
<svg width="50px" height="50px" viewBox="0 0 50 50" version="1.1" xmlns="http://www.w3.org/2000/svg" xmlns:xlink="http://www.w3.org/1999/xlink">
    <title>icons/general/features</title>
    <g id="Icons" stroke="none" stroke-width="1" fill="none" fill-rule="evenodd">
        <g id="check-square-copy" fill="#1B3C92">
            <path d="M44.6428571,50 L5.35714286,50 C2.3984375,50 0,47.6015625 0,44.6428571 L0,5.35714286 C0,2.3984375 2.3984375,2.84217094e-14 5.35714286,2.84217094e-14 L44.6428571,2.84217094e-14 C47.6015625,2.84217094e-14 50,2.3984375 50,5.35714286 L50,44.6428571 C50,47.6015625 47.6015625,50 44.6428571,50 Z M21.772825,39.469721 L42.472825,18.6506184 C43.175725,17.9436741 43.175725,16.7973789 42.472825,16.0904345 L39.9272875,13.5302507 C39.2243875,12.8233064 38.08465,12.8231932 37.3816375,13.5302507 L20.5,30.5089077 L12.6183625,22.5819213 C11.9154625,21.874977 10.775725,21.874977 10.0727125,22.5819213 L7.527175,25.1421051 C6.824275,25.8490495 6.824275,26.9953447 7.527175,27.702289 L19.227175,39.4696079 C19.9301875,40.1767785 21.0698125,40.1767785 21.772825,39.469721 L21.772825,39.469721 Z" id="Shape"></path>
        </g>
    </g>
</svg>