<?xml version="1.0" encoding="UTF-8"?>
<svg width="50px" height="50px" viewBox="0 0 50 50" version="1.1" xmlns="http://www.w3.org/2000/svg" xmlns:xlink="http://www.w3.org/1999/xlink">
    <title>icons/general/info</title>
    <g id="Icons" stroke="none" stroke-width="1" fill="none" fill-rule="evenodd">
        <g id="icons/general/info" fill="#1B3C92">
            <path d="M25,0 C11.19375,0 0,11.19375 0,25 C0,38.80625 11.19375,50 25,50 C38.80625,50 50,38.80625 50,25 C50,11.19375 38.80625,0 25,0 Z M29,39 L21,39 L21,25 L29,25 L29,39 Z M25,12 C27.208,12 29,13.792 29,16 C29,18.208 27.208,20 25,20 C22.792,20 21,18.208 21,16 C21,13.792 22.792,12 25,12 Z" id="info"></path>
        </g>
    </g>
</svg>