<?xml version="1.0" encoding="UTF-8"?>
<svg width="50px" height="50px" viewBox="0 0 50 50" version="1.1" xmlns="http://www.w3.org/2000/svg" xmlns:xlink="http://www.w3.org/1999/xlink">
    <title>icons/general/list</title>
    <g id="Icons" stroke="none" stroke-width="1" fill="none" fill-rule="evenodd">
        <g id="icons/general/list" fill="#585858">
            <path d="M8,34 L8,42 L0,42 L0,34 L8,34 Z M50,34 L50,42 L12,42 L12,34 L50,34 Z M8,21 L8,29 L0,29 L0,21 L8,21 Z M50,21 L50,29 L12,29 L12,21 L50,21 Z M8,8 L8,16 L0,16 L0,8 L8,8 Z M50,8 L50,16 L12,16 L12,8 L50,8 Z" id="Combined-Shape"></path>
        </g>
    </g>
</svg>