<?xml version="1.0" encoding="UTF-8"?>
<svg width="50px" height="50px" viewBox="0 0 50 50" version="1.1" xmlns="http://www.w3.org/2000/svg" xmlns:xlink="http://www.w3.org/1999/xlink">
    <title>icons/general/location-blue</title>
    <defs>
        <filter id="filter-1">
            <feColorMatrix in="SourceGraphic" type="matrix" values="0 0 0 0 0.105882 0 0 0 0 0.235294 0 0 0 0 0.572549 0 0 0 1.000000 0"></feColorMatrix>
        </filter>
    </defs>
    <g id="icons/general/location-blue" stroke="none" stroke-width="1" fill="none" fill-rule="evenodd">
        <g id="Group-2" transform="translate(4.612245, 0.000000)">
            <circle id="Oval-Copy-3" fill="#FFFFFF" cx="20.3877551" cy="19" r="11"></circle>
            <g filter="url(#filter-1)" id="Group">
                <g>
                    <path d="M19.8877551,0 C30.6573077,0 39.3877551,8.72105084 39.3877551,19.4790122 C39.3877551,24.6346369 36.813281,28.5954681 34.108903,32.8067419 C30.8714878,37.8480644 26.0799241,43.5791504 19.7342118,50 C13.1668564,43.5791504 8.24945452,37.5920423 4.98200611,32.0386755 C2.63316207,28.0465719 0.387755102,24.2648355 0.387755102,19.4790122 C0.387755102,8.72105084 9.11820248,0 19.8877551,0 Z M20.3877551,8 C14.3126229,8 9.3877551,12.9248678 9.3877551,19 C9.3877551,25.0751322 14.3126229,30 20.3877551,30 C26.4628873,30 31.3877551,25.0751322 31.3877551,19 C31.3877551,12.9248678 26.4628873,8 20.3877551,8 Z" id="Combined-Shape" fill="#1B3C92"></path>
                </g>
            </g>
        </g>
    </g>
</svg>