<?xml version="1.0" encoding="UTF-8"?>
<svg width="50px" height="50px" viewBox="0 0 50 50" version="1.1" xmlns="http://www.w3.org/2000/svg" xmlns:xlink="http://www.w3.org/1999/xlink">
    <title>icons/general/parking</title>
    <g id="Icons" stroke="none" stroke-width="1" fill="none" fill-rule="evenodd">
        <g id="icons/general/parking" fill="#1B3C92">
            <path d="M44.6428571,0 L5.35714286,0 C2.39955357,0 0,2.39955357 0,5.35714286 L0,44.6428571 C0,47.6004464 2.39955357,50 5.35714286,50 L44.6428571,50 C47.6004464,50 50,47.6004464 50,44.6428571 L50,5.35714286 C50,2.39955357 47.6004464,0 44.6428571,0 Z M26.7857143,32.1428571 L21.4285714,32.1428571 L21.4285714,37.5 C21.4285714,38.4821429 20.625,39.2857143 19.6428571,39.2857143 L16.0714286,39.2857143 C15.0892857,39.2857143 14.2857143,38.4821429 14.2857143,37.5 L14.2857143,12.5 C14.2857143,11.5178571 15.0892857,10.7142857 16.0714286,10.7142857 L26.7857143,10.7142857 C32.6897321,10.7142857 37.5,15.5245536 37.5,21.4285714 C37.5,27.3325893 32.6897321,32.1428571 26.7857143,32.1428571 Z M26.7857143,17.8571429 L21.4285714,17.8571429 L21.4285714,25 L26.7857143,25 C28.75,25 30.3571429,23.3928571 30.3571429,21.4285714 C30.3571429,19.4642857 28.75,17.8571429 26.7857143,17.8571429 Z" id="Shape-Copy-3"></path>
        </g>
    </g>
</svg>