<?xml version="1.0" encoding="UTF-8"?>
<svg width="50px" height="50px" viewBox="0 0 50 50" version="1.1" xmlns="http://www.w3.org/2000/svg" xmlns:xlink="http://www.w3.org/1999/xlink">
    <title>icons/general/pre-pay</title>
    <g id="Icons" stroke="none" stroke-width="1" fill="none" fill-rule="evenodd">
        <g id="icons/general/pre-pay" fill="#1B3C92" fill-rule="nonzero">
            <path d="M28.7702497,25.4275924 C34.0673189,25.4275924 39.3643881,25.4184005 44.6613312,25.4344521 C45.8984612,25.4381562 46.894695,25.3814958 46.875,23.5130721 C46.8549868,21.7276498 46.3639922,20.7467239 44.5933862,20.75 C34.1334992,20.7692234 23.6736122,20.7664797 13.2138513,20.7566018 C11.5783791,20.7549555 10.9905722,21.6830622 10.9397709,23.3581818 C10.8820366,25.2641963 11.932223,25.4439183 13.2815443,25.4373331 C18.444362,25.4125012 23.6073059,25.4273181 28.7702497,25.4275924 M28.9186394,33.2801668 C23.689204,33.2801668 18.4595167,33.3117123 13.230585,33.2613632 C11.6349549,33.2458996 10.8737877,33.7680706 10.941668,35.4279828 C11.0275576,37.5301508 10.9867538,39.638133 10.9635812,41.7433937 C10.945824,43.3576577 11.6534678,44.1898405 13.3635752,44.1875 C23.7551954,44.1736348 34.1469415,44.1754904 44.5386875,44.1840263 C46.2623963,44.1855108 46.9117308,43.3488744 46.8505251,41.7070235 C46.7747106,39.6699259 46.701289,37.6190968 46.8583333,35.591401 C47.0063101,33.6791246 46.1673133,33.225859 44.4054454,33.2509717 C39.2441423,33.3244542 34.081076,33.2771978 28.9186394,33.2801668 M44.6687967,19.2176674 C48.05904,19.2308897 49.963264,21.1843274 49.9795074,24.5317892 C50.007496,30.3177118 50.0058716,36.1040051 49.980382,41.8899276 C49.9650133,45.3790038 48.0646627,47.279058 44.5694621,47.2977176 C39.3124795,47.3258922 34.055372,47.3051319 28.7981395,47.3051319 C23.6076298,47.3051319 18.4169951,47.3249036 13.2264854,47.2983354 C9.73640771,47.2804174 7.89978119,45.5515113 7.86167172,42.0886325 C7.79644831,36.1717229 7.79419922,30.2530833 7.86641979,24.3364207 C7.90727814,20.9982269 9.74290506,19.2281711 13.1262763,19.2161845 C23.6403664,19.1786183 34.1547064,19.1767648 44.6687967,19.2176674 Z M38.2768756,2 C41.4931992,2.82728203 42.8818519,4.98760098 43.060848,8.10976288 C43.1363959,9.42823583 43.4091579,10.7355058 43.5831853,12.0489996 C43.960797,14.9019152 43.9278006,14.9485945 40.9531535,14.950835 C31.3868647,14.9576814 21.820576,14.9461049 12.2544147,14.9581793 C6.84108952,14.9650257 4.64523458,17.1306971 4.61733412,22.4684463 C4.60115441,25.5810234 4.62574247,28.6938494 4.60994496,31.8065509 C4.60765177,32.2678671 4.48381962,32.7286853 4.41617057,33.1897525 C4.24086909,33.209918 4.0654402,33.229959 3.89013872,33.25 C3.56348682,32.2067483 3.11121917,31.1832887 2.93426149,30.1163861 C2.4353657,27.1099889 2.09712047,24.0783227 1.60574123,21.0706807 C1.12850331,18.1496756 0.539790986,15.2460974 0,12.3348016 L0,10.3473828 C1.5926191,7.33376585 4.39362089,6.62685422 7.56981373,6.28877147 C12.6104959,5.75202153 17.6265899,4.98648067 22.6458689,4.26936183 C27.7250257,3.54352953 32.7953918,2.75894351 37.8697073,2 L38.2768756,2 Z" id="prepay"></path>
        </g>
    </g>
</svg>