<?xml version="1.0" encoding="UTF-8"?>
<svg width="50px" height="50px" viewBox="0 0 50 50" version="1.1" xmlns="http://www.w3.org/2000/svg" xmlns:xlink="http://www.w3.org/1999/xlink">
    <title>icons/general/promotions</title>
    <g id="Icons" stroke="none" stroke-width="1" fill="none" fill-rule="evenodd">
        <g id="tag-copy-2" fill="#1B3C92">
            <path d="M0,24.6208984 L0,4.6875 C0,2.09863281 2.09863281,0 4.6875,0 L24.6208984,0 C25.8640982,0 27.0563775,0.493870953 27.9354492,1.37294922 L48.6270508,22.0645508 C50.4576172,23.8951172 50.4576172,26.8630859 48.6270508,28.6936523 L28.6936523,48.6270508 C26.8630859,50.4576172 23.8951172,50.4576172 22.0645508,48.6270508 L1.37294922,27.9354492 C0.493870953,27.0563775 0,25.8640982 0,24.6208984 Z M10.9375,6.25 C8.34863281,6.25 6.25,8.34863281 6.25,10.9375 C6.25,13.5263672 8.34863281,15.625 10.9375,15.625 C13.5263672,15.625 15.625,13.5263672 15.625,10.9375 C15.625,8.34863281 13.5263672,6.25 10.9375,6.25 Z" id="Shape"></path>
        </g>
    </g>
</svg>