<?xml version="1.0" encoding="UTF-8"?>
<svg width="50px" height="50px" viewBox="0 0 50 50" version="1.1" xmlns="http://www.w3.org/2000/svg" xmlns:xlink="http://www.w3.org/1999/xlink">
    <title>icons/general/search</title>
    <g id="Icons" stroke="none" stroke-width="1" fill="none" fill-rule="evenodd">
        <g id="icons/general/search" fill="#1B3C92">
            <path d="M49.3200137,43.2282004 L39.5829734,33.492823 C39.1434881,33.0534128 38.5477414,32.809296 37.9226957,32.809296 L36.3307824,32.809296 C39.026292,29.362367 40.6279717,25.0268528 40.6279717,20.3105166 C40.6279717,9.09090909 31.5355098,0 20.3139859,0 C9.09246194,0 0,9.09090909 0,20.3105166 C0,31.530124 9.09246194,40.6210331 20.3139859,40.6210331 C25.0311278,40.6210331 29.3673824,39.019627 32.8149002,36.3245777 L32.8149002,37.9162191 C32.8149002,38.5411581 33.0590587,39.136803 33.498544,39.5762133 L43.2355843,49.3115907 C44.1536202,50.2294698 45.6381038,50.2294698 46.5463734,49.3115907 L49.3102474,46.5481887 C50.2282833,45.6303095 50.2282833,44.1460795 49.3200137,43.2282004 Z M20.3139859,32.809296 C13.4091839,32.809296 7.81307148,27.2239039 7.81307148,20.3105166 C7.81307148,13.4068939 13.3994176,7.81173714 20.3139859,7.81173714 C27.2187878,7.81173714 32.8149002,13.3971292 32.8149002,20.3105166 C32.8149002,27.2141392 27.2285541,32.809296 20.3139859,32.809296 Z" id="search"></path>
        </g>
    </g>
</svg>