<?xml version="1.0" encoding="UTF-8"?>
<svg width="50px" height="50px" viewBox="0 0 50 50" version="1.1" xmlns="http://www.w3.org/2000/svg" xmlns:xlink="http://www.w3.org/1999/xlink">
    <title>icons/general/security</title>
    <g id="Icons" stroke="none" stroke-width="1" fill="none" fill-rule="evenodd">
        <g id="lock-copy-3" fill="#1B3C92" transform="translate(4.000000, 1.000000)">
            <path d="M36.6071429,21.4375 L34.4107143,21.4375 L34.4107143,14.546875 C34.4107143,6.52695313 28.1691964,0 20.5,0 C12.8308036,0 6.58928571,6.52695313 6.58928571,14.546875 L6.58928571,21.4375 L4.39285714,21.4375 C1.96763393,21.4375 0,23.4951172 0,26.03125 L0,44.40625 C0,46.9423828 1.96763393,49 4.39285714,49 L36.6071429,49 C39.0323661,49 41,46.9423828 41,44.40625 L41,26.03125 C41,23.4951172 39.0323661,21.4375 36.6071429,21.4375 Z M27,22 L14,22 L14,15 C14,11.1402778 16.9159722,8 20.5,8 C24.0840278,8 27,11.1402778 27,15 L27,22 Z" id="Shape"></path>
        </g>
    </g>
</svg>