<?xml version="1.0" encoding="UTF-8"?>
<svg width="50px" height="50px" viewBox="0 0 50 50" version="1.1" xmlns="http://www.w3.org/2000/svg" xmlns:xlink="http://www.w3.org/1999/xlink">
    <title>icons/general/success</title>
    <g id="Icons" stroke="none" stroke-width="1" fill="none" fill-rule="evenodd">
        <g id="icons/general/success" fill="#377D21" fill-rule="nonzero">
            <path d="M25,0 C38.8,0 50,11.2 50,25 C50,38.8 38.8,50 25,50 C11.175,50 0,38.75 0,25 C0,11.2 11.2,0 25,0 Z M25,5 C13.95,5 5,13.95 5,25 C5,36.05 13.95,45 25,45 C36.05,45 45,36.05 45,25 C45,13.95 36.05,5 25,5 Z M34.7333187,12.8594632 L38.6000147,16.0294257 L21.5180824,36.8658362 L11.7342727,28.7247385 L14.9323939,24.8812998 L20.8444444,29.8 L34.7333187,12.8594632 Z" id="sucess"></path>
        </g>
    </g>
</svg>