<?xml version="1.0" encoding="UTF-8"?>
<svg width="50px" height="50px" viewBox="0 0 50 50" version="1.1" xmlns="http://www.w3.org/2000/svg" xmlns:xlink="http://www.w3.org/1999/xlink">
    <title>icons/general/user</title>
    <g id="Icons" stroke="none" stroke-width="1" fill="none" fill-rule="evenodd">
        <g id="icons/general/user" fill="#1B3C92">
            <path d="M35.9119413,23.7782307 C39.1641559,23.9870288 41.5489834,25.526998 43.1980484,28.1519454 C44.5821945,30.3551713 45.2297433,32.8099131 45.6575931,35.3150911 C46.0592849,37.6657664 46.2325118,40.044255 46.0830775,42.4214127 C45.9049807,45.2554244 44.6247708,47.5640474 42.1326678,49.1760114 C41.195016,49.7824441 40.1126605,49.9837899 38.9838329,49.9827253 C34.3264624,49.9779345 29.6690919,49.9807291 25.0117214,49.9808622 C20.5119945,49.9809953 16.0112935,49.9306921 11.5126796,49.9989607 C8.58716139,50.0434085 6.65536766,48.6594057 5.26537778,46.3847174 C4.37238929,44.923663 4.00186446,43.3196837 4.00002759,41.623615 C3.99685549,38.4296295 4.26650518,35.2687802 5.18036439,32.1833857 C5.72717722,30.3368067 6.43246838,28.5449224 7.71128689,27.0354279 C9.41628548,25.0227685 11.6075718,23.8679247 14.3588891,23.7759684 C14.7195351,23.7639914 14.9908545,23.8732478 15.2524342,24.1045359 C17.5194116,26.1082791 20.1750019,27.3610677 23.2496762,27.6690083 C27.587029,28.1035053 31.4741308,27.0560548 34.7438768,24.2079369 C35.0921395,23.9045209 35.4338627,23.7476229 35.9119413,23.7782307 Z M25.103916,0.000222552914 C32.1298154,0.0434990023 38.3535735,6.08094035 38.1463789,13.1688974 C38.3450784,20.1359068 32.1263598,26.2791773 25.0348031,26.2676746 C17.9785228,26.2562836 11.9229394,20.1232361 11.9220755,13.1213823 C11.9210676,6.10167421 18.0365489,-0.0426041177 25.103916,0.000222552914 Z" id="user-icon"></path>
        </g>
    </g>
</svg>