<?xml version="1.0" encoding="UTF-8"?>
<svg width="57px" height="34px" viewBox="0 0 57 34" version="1.1" xmlns="http://www.w3.org/2000/svg" xmlns:xlink="http://www.w3.org/1999/xlink">
    <title>icons/payment/color/ amex </title>
    <g id="Icons" stroke="none" stroke-width="1" fill="none" fill-rule="evenodd">
        <g id="Group">
            <rect id="Rectangle" fill="#0072CE" x="0" y="0" width="57" height="34" rx="4"></rect>
            <g id="AmericanExpress-dark" transform="translate(9.000000, 9.000000)" fill="#FFFFFF">
                <path d="M39.8308381,10.6438304 L37.8287815,10.6438304 C37.6288947,10.6438304 37.4960989,10.6512933 37.3842343,10.7266127 C37.2683499,10.8008266 37.223715,10.9109727 37.223715,11.05636 C37.223715,11.2292493 37.3215791,11.3468583 37.4639396,11.3977162 C37.579824,11.4379327 37.7043028,11.4496797 37.8872782,11.4496797 L38.4826416,11.4655728 C39.083411,11.4803603 39.4844322,11.58332 39.728954,11.834431 C39.7734503,11.8693958 39.8002035,11.9086448 39.8308381,11.9478939 L39.8308381,10.6438304 Z M39.8308381,13.6653162 C39.5639988,14.0543517 39.0440436,14.2515643 38.3401425,14.2515643 L36.2187361,14.2515643 L36.2187361,13.2688179 L38.3315482,13.2688179 C38.5411383,13.2688179 38.6877959,13.2413159 38.7760954,13.155355 C38.8526124,13.0844579 38.9059803,12.9814983 38.9059803,12.8564265 C38.9059803,12.7229244 38.8526124,12.6169244 38.7717983,12.5533519 C38.692093,12.4834223 38.57607,12.4516361 38.3847774,12.4516361 C37.3533226,12.4166713 36.0665338,12.4834223 36.0665338,11.0331423 C36.0665338,10.3683961 36.4898725,9.66868501 37.6426179,9.66868501 L39.8306994,9.66868501 L39.8306994,8.75683561 L37.7977312,8.75683561 C37.1842089,8.75683561 36.7385528,8.90332854 36.4229201,9.13108359 L36.4229201,8.75683561 L33.4158847,8.75683561 C32.9350196,8.75683561 32.3705681,8.87568837 32.1035902,9.13108359 L32.1035902,8.75683561 L26.7338149,8.75683561 L26.7338149,9.13108359 C26.3064563,8.82372484 25.5853666,8.75683561 25.2525454,8.75683561 L21.710584,8.75683561 L21.710584,9.13108359 C21.3724953,8.80465312 20.6206324,8.75683561 20.1623621,8.75683561 L16.1983096,8.75683561 L15.2911949,9.73557423 L14.4416065,8.75683561 L8.52013247,8.75683561 L8.52013247,15.1516667 L14.3301579,15.1516667 L15.2648575,14.1574495 L16.1453576,15.1516667 L19.7266864,15.1548453 L19.7266864,13.6505287 L20.0787756,13.6505287 C20.5539573,13.6578534 21.114389,13.6387816 21.6088386,13.4256759 L21.6088386,15.1515285 L24.5627833,15.1515285 L24.5627833,13.4848259 L24.7052824,13.4848259 C24.8871489,13.4848259 24.9050306,13.4922887 24.9050306,13.6734701 L24.9050306,15.1513903 L33.8785908,15.1513903 C34.4483099,15.1513903 35.0438118,15.0060029 35.3735835,14.7421775 L35.3735835,15.1513903 L38.2199609,15.1513903 C38.8122747,15.1513903 39.3907266,15.0686079 39.8308381,14.8566078 L39.8308381,13.6653162 L39.8308381,13.6653162 Z M35.4489916,11.834431 C35.6628788,12.0551378 35.7775157,12.3337508 35.7775157,12.8054304 C35.7775157,13.7913554 35.1596963,14.2515643 34.0518631,14.2515643 L31.9122977,14.2515643 L31.9122977,13.2688179 L34.0432688,13.2688179 C34.2516113,13.2688179 34.3993778,13.2413159 34.4919745,13.155355 C34.5675212,13.0844579 34.6217207,12.9814983 34.6217207,12.8564265 C34.6217207,12.7229244 34.5630854,12.6169244 34.4876773,12.5533519 C34.403675,12.4834223 34.2877905,12.4516361 34.096498,12.4516361 C33.0692017,12.4166713 31.7826901,12.4834223 31.7826901,11.0331423 C31.7826901,10.3683961 32.201593,9.66868501 33.3532295,9.66868501 L35.55545,9.66868501 L35.55545,10.6441068 L33.5403635,10.6441068 C33.3406153,10.6441068 33.2107304,10.6515697 33.100252,10.7268891 C32.9799318,10.801103 32.9352969,10.9112491 32.9352969,11.0566364 C32.9352969,11.2295257 33.0374582,11.3471347 33.1756601,11.3979926 C33.2915446,11.4382091 33.4160233,11.4499561 33.6031573,11.4499561 L34.1945007,11.4658492 C34.7908344,11.4803603 35.2001727,11.5831818 35.4489916,11.834431 L35.4489916,11.834431 Z M25.5367118,11.5513956 C25.389777,11.6383239 25.2080491,11.6457868 24.9943005,11.6457868 L23.6598271,11.6457868 L23.6598271,10.6164666 L25.0124594,10.6164666 C25.2080491,10.6164666 25.4037774,10.6206127 25.5367118,10.699249 C25.6790723,10.7734628 25.7641836,10.9153951 25.7641836,11.1115022 C25.7641836,11.3076092 25.6790723,11.4655728 25.5367118,11.5513956 L25.5367118,11.5513956 Z M26.2001365,12.1217506 C26.4446582,12.2117194 26.6445451,12.3729998 26.7382507,12.5065019 C26.893364,12.7302491 26.91582,12.9390706 26.9202558,13.3430318 L26.9202558,14.2515643 L25.8174128,14.2515643 L25.8174128,13.6781689 C25.8174128,13.4024581 25.8440274,12.9942128 25.6398434,12.781107 C25.479324,12.6169244 25.2346637,12.5776753 24.8339197,12.5776753 L23.6599658,12.5776753 L23.6599658,14.2515643 L22.5561524,14.2515643 L22.5561524,9.66854681 L25.0923032,9.66854681 C25.6484377,9.66854681 26.0534789,9.69300836 26.4140237,9.88483118 C26.7607068,10.0936527 26.9787525,10.3797285 26.9787525,10.9025425 C26.9786139,11.6340397 26.4892932,12.0073203 26.2001365,12.1217506 L26.2001365,12.1217506 Z M27.587839,9.66854681 L31.2541405,9.66854681 L31.2541405,10.6163284 L28.6818105,10.6163284 L28.6818105,11.4495415 L31.1913467,11.4495415 L31.1913467,12.3846087 L28.6818105,12.3846087 L28.6818105,13.2964581 L31.2541405,13.3006041 L31.2541405,14.2515643 L27.587839,14.2515643 L27.587839,9.66854681 L27.587839,9.66854681 Z M20.1763625,11.7835731 L18.7567779,11.7835731 L18.7567779,10.6164666 L20.1891153,10.6164666 C20.5857008,10.6164666 20.8609957,10.7776089 20.8609957,11.1783914 C20.8609957,11.5747515 20.5984536,11.7835731 20.1763625,11.7835731 L20.1763625,11.7835731 Z M17.6626678,13.8347505 L15.9761053,11.967933 L17.6626678,10.1604037 L17.6626678,13.8347505 L17.6626678,13.8347505 Z M13.3071587,13.2964581 L10.60633,13.2964581 L10.60633,12.3846087 L13.018002,12.3846087 L13.018002,11.4495415 L10.60633,11.4495415 L10.60633,10.6163284 L13.3603879,10.6163284 L14.5619268,11.9519017 L13.3071587,13.2964581 L13.3071587,13.2964581 Z M22.0403557,11.1783914 C22.0403557,12.4514979 21.0876357,12.714356 20.1274304,12.714356 L18.7567779,12.714356 L18.7567779,14.2515643 L16.6216483,14.2515643 L15.269016,12.7343951 L13.8632932,14.2515643 L9.51208126,14.2515643 L9.51208126,9.66854681 L13.9302456,9.66854681 L15.2817689,11.1707904 L16.679036,9.66854681 L20.1891153,9.66854681 C21.0608825,9.66854681 22.0403557,9.90915454 22.0403557,11.1783914 L22.0403557,11.1783914 Z" id="EXPRESS"></path>
                <path d="M4.27108184,4.38706203 L3.51921903,2.56046102 L2.77165338,4.38706203 L4.27108184,4.38706203 Z M20.8345197,3.65971081 C20.6835649,3.75106159 20.5050252,3.75410201 20.291138,3.75410201 L18.9566647,3.75410201 L18.9566647,2.73639074 L20.3092969,2.73639074 C20.5007281,2.73639074 20.7004763,2.74495919 20.8302225,2.81903487 C20.9727216,2.88578589 21.0608825,3.02785639 21.0608825,3.22410164 C21.0608825,3.42435471 20.9770187,3.58549694 20.8345197,3.65971081 L20.8345197,3.65971081 Z M30.3545112,4.38706203 L29.5943313,2.56046102 L28.83831,4.38706203 L30.3545112,4.38706203 L30.3545112,4.38706203 Z M12.6086637,6.3641638 L11.4825329,6.3641638 L11.4783744,2.77563979 L9.88551755,6.3641638 L8.92101507,6.3641638 L7.3239997,2.77246117 L7.3239997,6.3641638 L5.08975841,6.3641638 L4.66766729,5.34216831 L2.38047402,5.34216831 L1.95408575,6.3641638 L0.761002564,6.3641638 L2.7281274,1.78225187 L4.36021307,1.78225187 L6.22850343,6.12037745 L6.22850343,1.78225187 L8.02138572,1.78225187 L9.45899066,4.89052783 L10.7796022,1.78225187 L12.6085251,1.78225187 L12.6085251,6.3641638 L12.6086637,6.3641638 Z M17.0969686,6.3641638 L13.4273403,6.3641638 L13.4273403,1.78225187 L17.0969686,1.78225187 L17.0969686,2.73639074 L14.5258862,2.73639074 L14.5258862,3.56227919 L17.0352837,3.56227919 L17.0352837,4.50149236 L14.5258862,4.50149236 L14.5258862,5.41652038 L17.0969686,5.41652038 L17.0969686,6.3641638 L17.0969686,6.3641638 Z M22.2710157,3.01624752 C22.2710157,3.74677736 21.7819722,4.12420396 21.496974,4.23752868 C21.7373372,4.32874126 21.9426302,4.48988349 22.0403557,4.62338554 C22.195469,4.85127878 22.2222222,5.05484868 22.2222222,5.46406148 L22.2222222,6.3641638 L21.1142503,6.3641638 L21.1100918,5.78634593 C21.1100918,5.51063518 21.1365678,5.11413686 20.936681,4.89370645 C20.7761616,4.73256423 20.5315012,4.69759941 20.1360247,4.69759941 L18.9568033,4.69759941 L18.9568033,6.3641638 L17.8583961,6.3641638 L17.8583961,1.78225187 L20.3849822,1.78225187 C20.9463842,1.78225187 21.3600197,1.79703937 21.7151584,2.00171487 C22.0626732,2.20639037 22.2710157,2.50518067 22.2710157,3.01624752 L22.2710157,3.01624752 Z M24.0289663,6.3641638 L22.908103,6.3641638 L22.908103,1.78225187 L24.0289663,1.78225187 L24.0289663,6.3641638 L24.0289663,6.3641638 Z M37.0324224,6.3641638 L35.4757448,6.3641638 L33.3935672,2.92517314 L33.3935672,6.3641638 L31.156415,6.3641638 L30.7289178,5.34216831 L28.446992,5.34216831 L28.0322476,6.3641638 L26.746845,6.3641638 C26.2128893,6.3641638 25.5368504,6.24641665 25.1539881,5.85738118 C24.7679376,5.46834571 24.5670805,4.94138576 24.5670805,4.10817266 C24.5670805,3.42863894 24.6871235,2.80742599 25.1592556,2.31653647 C25.5143943,1.95085695 26.0705289,1.78225187 26.8275205,1.78225187 L27.8909961,1.78225187 L27.8909961,2.76403092 L26.849838,2.76403092 C26.4489554,2.76403092 26.2225926,2.82345729 26.0045468,3.03545744 C25.8172742,3.22838587 25.6887755,3.59309799 25.6887755,4.07334604 C25.6887755,4.56423556 25.7866397,4.91816801 25.9908236,5.14937808 C26.1599373,5.33069763 26.4672529,5.38570158 26.7564096,5.38570158 L27.2497503,5.38570158 L28.7979722,1.78239007 L30.4439196,1.78239007 L32.3037543,6.11623143 L32.3037543,1.78239007 L33.9763164,1.78239007 L35.907262,4.97344836 L35.907262,1.78239007 L37.0324224,1.78239007 L37.0324224,6.3641638 L37.0324224,6.3641638 Z M0.748249729,7.26412792 L2.62513439,7.26412792 L3.04833446,6.24641665 L3.99578694,6.24641665 L4.41787806,7.26412792 L8.11079418,7.26412792 L8.11079418,6.48605698 L8.44042725,7.26744474 L10.3575111,7.26744474 L10.6871441,6.4744481 L10.6871441,7.26412792 L19.8647497,7.26412792 L19.8604526,5.5935557 L20.0380219,5.5935557 C20.1623621,5.59783993 20.1986799,5.6093106 20.1986799,5.8139861 L20.1986799,7.26412792 L24.9453684,7.26412792 L24.9453684,6.87523065 C25.3282307,7.07976795 25.9237326,7.26412792 26.7073389,7.26412792 L28.7042666,7.26412792 L29.1316252,6.24641665 L30.0790776,6.24641665 L30.4970102,7.26412792 L34.3451783,7.26412792 L34.3451783,6.29741278 L34.9279274,7.26412792 L38.0116184,7.26412792 L38.0116184,0.873719298 L34.9598095,0.873719298 L34.9598095,1.6284343 L34.5324509,0.873719298 L31.4009367,0.873719298 L31.4009367,1.6284343 L31.0085098,0.873719298 L26.7785884,0.873719298 C26.0705289,0.873719298 25.448135,0.972256525 24.9453684,1.24686167 L24.9453684,0.873719298 L22.0263553,0.873719298 L22.0263553,1.24686167 C21.7064255,0.963826271 21.2704726,0.873719298 20.7857262,0.873719298 L10.121445,0.873719298 L9.40590005,2.52425239 L8.67108723,0.873719298 L5.31210132,0.873719298 L5.31210132,1.6284343 L4.94310081,0.873719298 L2.07842589,0.873719298 L0.748111111,3.91206561 L0.748111111,7.26412792 L0.748249729,7.26412792 Z" id="AMERICAN"></path>
            </g>
        </g>
    </g>
</svg>