<?xml version="1.0" encoding="UTF-8"?>
<svg width="57px" height="34px" viewBox="0 0 57 34" version="1.1" xmlns="http://www.w3.org/2000/svg" xmlns:xlink="http://www.w3.org/1999/xlink">
    <title>icons/payment/color/ master card </title>
    <g id="Icons" stroke="none" stroke-width="1" fill="none" fill-rule="evenodd">
        <g id="Group">
            <rect id="Rectangle" fill="#000066" x="0" y="0" width="57" height="34" rx="4"></rect>
            <g id="MasterCard-dark" transform="translate(10.000000, 6.000000)">
                <path d="M22.8062185,11.2750612 C22.8062185,17.3827394 17.8554498,22.3333333 11.7479464,22.3333333 C5.64026822,22.3333333 0.68915,17.3827394 0.68915,11.2750612 C0.68915,5.1675578 5.64026822,0.216439582 11.7479464,0.216439582 C17.8554498,0.216439582 22.8062185,5.1675578 22.8062185,11.2750612" id="Fill-333" fill="#CC0000"></path>
                <path d="M26.5946602,0.216439582 C23.7366394,0.216439582 21.1334183,1.30047425 19.1705169,3.07882938 C18.7711909,3.44128108 18.3984283,3.8327429 18.0543264,4.24954488 L20.2886297,4.24954488 C20.5937602,4.62108409 20.8749486,5.01167211 21.1316707,5.42078466 L17.2111107,5.42078466 C16.9765831,5.79669286 16.7633762,6.18728088 16.5739366,6.59202444 L21.7684952,6.59202444 C21.9460511,6.97107832 22.1022863,7.36149158 22.2368513,7.76273995 L16.1055805,7.76273995 C15.9780059,8.1440657 15.8703539,8.53482848 15.7843721,8.93328069 L22.5577102,8.93328069 C22.7198872,9.68824277 22.8062185,10.4715159 22.8062185,11.2750612 C22.8062185,12.5027484 22.6061186,13.6844738 22.2368513,14.7880815 L16.1055805,14.7880815 C16.2401455,15.1889804 16.3963807,15.5799179 16.5735871,15.9594961 L21.7684952,15.9594961 C21.5787061,16.3631911 21.3665478,16.7541286 21.1306221,17.1305611 L17.2111107,17.1305611 C17.4667842,17.5384503 17.7484969,17.9295626 18.0543264,18.3005776 L20.2879306,18.3005776 C19.9445278,18.7177291 19.5714157,19.1091909 19.1708664,19.4716426 C21.133593,21.2499977 23.7366394,22.3333333 26.5946602,22.3333333 C32.7019888,22.3333333 37.6529323,17.3827394 37.6529323,11.2750612 C37.6529323,5.16808208 32.7019888,0.216439582 26.5946602,0.216439582" id="Fill-334" fill="#FF9900"></path>
                <path d="M9.16552171,12.4857967 C9.03951993,12.4714664 8.98394634,12.4669226 8.89744026,12.4669226 C8.21692583,12.4669226 7.8728239,12.7004017 7.8728239,13.1615926 C7.8728239,13.4455772 8.04076801,13.626104 8.30290763,13.626104 C8.79206014,13.626104 9.14455054,13.1605441 9.16552171,12.4857967 L9.16552171,12.4857967 Z M10.0387961,14.5184272 L9.04371417,14.5184272 L9.06660769,14.0457021 C8.76322478,14.418989 8.35830646,14.5972439 7.80833756,14.5972439 C7.1578818,14.5972439 6.71172019,14.0893921 6.71172019,13.3513817 C6.71172019,12.240434 7.48747868,11.5925997 8.81932266,11.5925997 C8.95581002,11.5925997 9.13022024,11.6051824 9.30882469,11.6277264 C9.34587376,11.4770835 9.3556603,11.4131214 9.3556603,11.3318581 C9.3556603,11.0298733 9.14664765,10.916629 8.58584365,10.916629 C7.99847616,10.9106872 7.51404216,11.0569611 7.31499081,11.1223212 C7.32757351,11.0464755 7.48153684,10.0963068 7.48153684,10.0963068 C8.07956468,9.92049847 8.47417217,9.8547888 8.91823667,9.8547888 C9.94931914,9.8547888 10.4954433,10.3175526 10.49422,11.1923999 C10.4963171,11.4271022 10.4573457,11.7156305 10.3970536,12.0962572 C10.2928968,12.7568491 10.0692043,14.1736263 10.0387961,14.5184272 L10.0387961,14.5184272 Z" id="Fill-336" fill="#000066"></path>
                <polyline id="Fill-337" fill="#000066" points="6.20928593 14.5184272 5.00851175 14.5184272 5.69671561 10.2067549 4.16075225 14.5184272 3.3427019 14.5184272 3.24151601 10.2308718 2.51870973 14.5184272 1.39500459 14.5184272 2.33363916 8.90916385 4.06009064 8.90916385 4.1644222 12.0488973 5.21769916 8.90916385 7.13778443 8.90916385 6.20928593 14.5184272"></polyline>
                <path d="M28.0780209,12.4857967 C27.9520191,12.4714664 27.8971445,12.4669226 27.8108132,12.4669226 C27.1297745,12.4669226 26.7860221,12.7004017 26.7860221,13.1615926 C26.7860221,13.4455772 26.9532672,13.626104 27.2161058,13.626104 C27.7049088,13.626104 28.057574,13.1605441 28.0780209,12.4857967 L28.0780209,12.4857967 Z M28.9518196,14.5184272 L27.9570871,14.5184272 L27.9796311,14.0457021 C27.6762482,14.418989 27.2715046,14.5972439 26.7218853,14.5972439 C26.0705557,14.5972439 25.6249184,14.0893921 25.6249184,13.3513817 C25.6249184,12.240434 26.4010264,11.5925997 27.7325208,11.5925997 C27.8688334,11.5925997 28.0428941,11.6051824 28.2216734,11.6277264 C28.2588972,11.4770835 28.268509,11.4131214 28.268509,11.3318581 C28.268509,11.0298733 28.0594963,10.916629 27.4986923,10.916629 C26.9113248,10.9106872 26.4270656,11.0569611 26.2273152,11.1223212 C26.2405969,11.0464755 26.3949098,10.0963068 26.3949098,10.0963068 C26.9925881,9.92049847 27.3875451,9.8547888 27.8309106,9.8547888 C28.8626921,9.8547888 29.4081172,10.3175526 29.4070687,11.1923999 C29.4091658,11.4271022 29.3705439,11.7156305 29.3099023,12.0962572 C29.206095,12.7568491 28.9818782,14.1736263 28.9518196,14.5184272 L28.9518196,14.5184272 Z" id="Fill-338" fill="#000066"></path>
                <path d="M15.374211,14.4490476 C15.0454879,14.5525054 14.7894649,14.5972439 14.5115969,14.5972439 C13.8980155,14.5972439 13.5630011,14.2445787 13.5630011,13.5949968 C13.5544378,13.393324 13.6512547,12.8629282 13.72745,12.3791933 C13.7970044,11.9529543 14.248234,9.266198 14.248234,9.266198 L15.4413188,9.266198 L15.3020352,9.95667373 L16.0229192,9.95667373 L15.8602179,11.0531163 L15.1368873,11.0531163 C14.9983028,11.9204489 14.8006495,13.0011632 14.7983777,13.1444662 C14.7983777,13.3796928 14.9238552,13.4824515 15.2095873,13.4824515 C15.3464242,13.4824515 15.4523286,13.4684707 15.5332424,13.4394606 L15.374211,14.4490476" id="Fill-339" fill="#000066"></path>
                <path d="M19.0329809,14.4121733 C18.6229946,14.5374761 18.2278628,14.598642 17.8086142,14.5972439 C16.472576,14.5954963 15.7761584,13.8982049 15.7761584,12.5621667 C15.7761584,11.0029603 16.6620155,9.8547888 17.8648868,9.8547888 C18.8486094,9.8547888 19.4772202,10.4975551 19.4772202,11.5052198 C19.4772202,11.8402342 19.4342293,12.1666854 19.3298977,12.6273521 L16.9535148,12.6273521 C16.8733001,13.2891672 17.2965682,13.5647633 17.9912381,13.5647633 C18.4178267,13.5647633 18.8033466,13.4766844 19.2316828,13.2779826 L19.0329809,14.4121733 L19.0329809,14.4121733 Z M18.3622531,11.7079411 C18.3690687,11.612697 18.4886044,10.8935607 17.8065171,10.8935607 C17.4269389,10.8935607 17.154838,11.1833124 17.0445646,11.7079411 L18.3622531,11.7079411 L18.3622531,11.7079411 Z" id="Fill-340" fill="#000066"></path>
                <path d="M10.7588063,11.3989659 C10.7588063,11.9754983 11.0384218,12.3734262 11.6727997,12.6724401 C12.1588065,12.9012006 12.2344775,12.9688326 12.2344775,13.1759229 C12.2344775,13.4599075 12.0198726,13.5888802 11.5450503,13.5888802 C11.1866181,13.5888802 10.853526,13.5326075 10.4692294,13.4083534 C10.4692294,13.4083534 10.3117708,14.4142704 10.3042562,14.4623294 C10.5770561,14.5213982 10.8203217,14.5764475 11.5536136,14.5972439 C12.8202722,14.5972439 13.4053678,14.114907 13.4053678,13.0724652 C13.4053678,12.4457767 13.1607041,12.0779075 12.5591811,11.801088 C12.0560478,11.5702304 11.9978528,11.5185015 11.9978528,11.3056442 C11.9978528,11.0590582 12.1976032,10.9330564 12.5853951,10.9330564 C12.821146,10.9330564 13.1428786,10.9582218 13.4481839,11.0013875 L13.6189242,9.94339199 C13.3082014,9.89393499 12.8366996,9.8547888 12.5623268,9.8547888 C11.2194729,9.8547888 10.7544373,10.5560996 10.7588063,11.3989659" id="Fill-341" fill="#000066"></path>
                <path d="M24.8718786,9.97519827 C25.2053202,9.97519827 25.5167421,10.0618791 25.9447287,10.2780569 L26.1413334,9.06068054 C25.9648261,8.99147568 25.3460018,8.58585833 24.8217226,8.58585833 C24.0185268,8.58585833 23.3387114,8.98500957 22.8614426,9.64228096 C22.1645007,9.4115981 21.87772,9.87785709 21.5268024,10.342718 L21.2148563,10.4154181 C21.2384489,10.2625033 21.2599443,10.1106371 21.2531287,9.95667373 L20.1500452,9.95667373 C19.9997518,11.3689072 19.7328937,12.7987914 19.5240558,14.2115491 L19.469356,14.5184272 L20.6704797,14.5184272 C20.8709291,13.2157681 20.9805035,12.3819894 21.0472617,11.8171659 L21.4995399,11.5665605 C21.5675215,11.3147317 21.7784565,11.230148 22.2027731,11.2404588 C22.1473743,11.5378999 22.1173156,11.8512441 22.1173156,12.1754234 C22.1173156,13.6680463 22.9236571,14.5972439 24.2154811,14.5972439 C24.5483984,14.5972439 24.8343053,14.553554 25.2769717,14.4329697 L25.4873825,13.154777 C25.0892798,13.3503331 24.7633528,13.4424315 24.4678341,13.4424315 C23.7698437,13.4424315 23.3474494,12.927065 23.3474494,12.0758103 C23.3474494,10.8404337 23.9751864,9.97519827 24.8718786,9.97519827" id="Fill-342" fill="#000066"></path>
                <path d="M35.0362547,8.90916385 L34.7693966,10.5297109 C34.4417221,10.0978796 34.0890569,9.78505967 33.6234969,9.78505967 C33.0177797,9.78505967 32.4664127,10.2443283 32.1053591,10.9206485 C31.6025753,10.8163169 31.0830146,10.6389358 31.0830146,10.6389358 L31.0826651,10.6433048 C31.1226851,10.2652994 31.1396367,10.0353156 31.1356173,9.95667373 L30.0327086,9.95667373 C29.8829395,11.3689072 29.6157318,12.7987914 29.4070687,14.2115491 L29.3518446,14.5184272 L30.5533178,14.5184272 C30.7154949,13.4656746 30.8393995,12.5904778 30.9307989,11.8973807 C31.3414842,11.526191 31.5470017,11.2034097 31.9610075,11.2243809 C31.777335,11.6686202 31.6702073,12.1799672 31.6702073,12.7045959 C31.6702073,13.8445537 32.2465649,14.5972439 33.1196646,14.5972439 C33.5597096,14.5972439 33.8973455,14.4453777 34.2265928,14.0937611 L34.1699707,14.5180777 L35.305909,14.5180777 L36.2204267,8.90916385 L35.0362547,8.90916385 L35.0362547,8.90916385 Z M33.5348938,13.464626 C33.1263055,13.464626 32.9193899,13.1615926 32.9193899,12.5653124 C32.9193899,11.6686202 33.3061333,11.033019 33.8505098,11.033019 C34.2631176,11.033019 34.4868101,11.3468875 34.4868101,11.9263908 C34.4868101,12.8307724 34.0936006,13.464626 33.5348938,13.464626 L33.5348938,13.464626 Z" id="Fill-343" fill="#000066"></path>
                <polyline id="Fill-344" fill="#FFFFFF" points="6.55461118 14.1855099 5.35418652 14.1855099 6.04221562 9.87383762 4.50660178 14.1855099 3.68820191 14.1855099 3.58719078 9.89882826 2.86420973 14.1855099 1.7405046 14.1855099 2.67913917 8.57677082 4.40559065 8.57677082 4.45382434 12.0488973 5.61877277 8.57677082 7.48328444 8.57677082 6.55461118 14.1855099"></polyline>
                <path d="M9.51102171,12.1535784 C9.3851947,12.1388986 9.3296211,12.1348791 9.24311503,12.1348791 C8.5626006,12.1348791 8.21832391,12.3680086 8.21832391,12.8288501 C8.21832391,13.1124851 8.38644278,13.2940605 8.64875715,13.2940605 C9.13773491,13.2940605 9.4902253,12.8285006 9.51102171,12.1535784 L9.51102171,12.1535784 Z M10.3841214,14.1855099 L9.38956369,14.1855099 L9.41228246,13.7131344 C9.10889955,14.0862464 8.70398123,14.2646761 8.15401233,14.2646761 C7.50338181,14.2646761 7.05739495,13.7561253 7.05739495,13.0182896 C7.05739495,11.9071672 7.8333282,11.2602066 9.16517219,11.2602066 C9.30131002,11.2602066 9.47572025,11.2726146 9.65449946,11.2956829 C9.69154853,11.1446905 9.70133507,11.0805536 9.70133507,10.9989408 C9.70133507,10.6971308 9.49232242,10.5847602 8.93151841,10.5847602 C8.34397616,10.5777699 7.85971692,10.7240438 7.66049082,10.7892291 C7.67324828,10.7137329 7.82703685,9.76356422 7.82703685,9.76356422 C8.42523944,9.58810544 8.81984694,9.5218715 9.26391144,9.5218715 C10.2948192,9.5218715 10.8407686,9.98515957 10.8398948,10.8596573 C10.8418171,11.0940101 10.8031952,11.3839365 10.7427284,11.7635147 C10.6383968,12.4235822 10.4147043,13.8412333 10.3841214,14.1855099 L10.3841214,14.1855099 Z" id="Fill-345" fill="#FFFFFF"></path>
                <path d="M26.4866587,8.72776324 L26.2900539,9.94496483 C25.8613683,9.72948607 25.5508202,9.64228096 25.2177282,9.64228096 C24.3213855,9.64228096 23.6925999,10.508565 23.6925999,11.7441164 C23.6925999,12.5953711 24.115169,13.109689 24.8131594,13.109689 C25.1088529,13.109689 25.4354788,13.0182896 25.8327077,12.8220344 L25.6217727,14.1002272 C25.1798053,14.2206366 24.8937236,14.2646761 24.5609811,14.2646761 C23.2682833,14.2646761 22.4631651,13.3353038 22.4631651,11.8430304 C22.4631651,9.83783711 23.5762099,8.43643875 25.1672226,8.43643875 C25.6915018,8.43643875 26.3106756,8.65855838 26.4866587,8.72776324" id="Fill-346" fill="#FFFFFF"></path>
                <path d="M28.4233461,12.1535784 C28.2982181,12.1388986 28.2424698,12.1348791 28.1561385,12.1348791 C27.4759735,12.1348791 27.1315221,12.3680086 27.1315221,12.8288501 C27.1315221,13.1124851 27.2994662,13.2940605 27.5616058,13.2940605 C28.0504088,13.2940605 28.4032487,12.8285006 28.4233461,12.1535784 L28.4233461,12.1535784 Z M29.2971448,14.1855099 L28.3025871,14.1855099 L28.3251311,13.7131344 C28.0217482,14.0862464 27.6168299,14.2646761 27.0673853,14.2646761 C26.4160557,14.2646761 25.9705931,13.7561253 25.9705931,13.0182896 C25.9705931,11.9071672 26.7458273,11.2602066 28.0780209,11.2602066 C28.2141587,11.2602066 28.3882194,11.2726146 28.5668238,11.2956829 C28.6040477,11.1446905 28.6138342,11.0805536 28.6138342,10.9989408 C28.6138342,10.6971308 28.4053458,10.5847602 27.8441923,10.5847602 C27.2571743,10.5777699 26.7730899,10.7240438 26.5735142,10.7892291 C26.5860969,10.7137329 26.7400603,9.76356422 26.7400603,9.76356422 C27.3382629,9.58810544 27.7325208,9.5218715 28.1765853,9.5218715 C29.2074931,9.5218715 29.7539668,9.98515957 29.7525687,10.8596573 C29.7550153,11.0940101 29.7160439,11.3839365 29.655577,11.7635147 C29.551595,12.4235822 29.3279025,13.8412333 29.2971448,14.1855099 L29.2971448,14.1855099 Z" id="Fill-347" fill="#FFFFFF"></path>
                <path d="M15.7195363,14.1163051 C15.3911627,14.2197628 15.1347902,14.2646761 14.8572717,14.2646761 C14.2435155,14.2646761 13.9083263,13.9118362 13.9083263,13.2629533 C13.8999378,13.0605815 13.9969295,12.5310595 14.0732995,12.0468002 C14.1423296,11.6202117 14.593734,8.93380497 14.593734,8.93380497 L15.7871683,8.93380497 L15.6475353,9.62410595 L16.2602429,9.62410595 L16.0970173,10.720199 L15.4823873,10.720199 C15.3438028,11.5884054 15.1461496,12.6684206 15.1437029,12.8117236 C15.1437029,13.0476493 15.2697047,13.149709 15.5550873,13.149709 C15.6919242,13.149709 15.7976539,13.1362525 15.8789171,13.1065433 L15.7195363,14.1163051" id="Fill-348" fill="#FFFFFF"></path>
                <path d="M19.3790052,14.0801298 C18.9688441,14.2057821 18.5728386,14.2650256 18.1541142,14.2646761 C16.8179012,14.2638023 16.1220079,13.5656371 16.1220079,12.2297737 C16.1220079,10.670043 17.0076903,9.5218715 18.2096878,9.5218715 C19.1944589,9.5218715 19.8227202,10.1646378 19.8227202,11.1735258 C19.8227202,11.5078412 19.7790303,11.8341176 19.675922,12.2949591 L17.2991896,12.2949591 C17.2186253,12.9567742 17.6424177,13.2328946 18.3363886,13.2328946 C18.7633267,13.2328946 19.1486719,13.1444662 19.5775323,12.9452401 L19.3790052,14.0801298 L19.3790052,14.0801298 Z M18.7081026,11.3750238 C18.7145687,11.279605 18.8346286,10.5608182 18.1527161,10.5608182 C17.7727885,10.5608182 17.5006875,10.8510941 17.3900646,11.3750238 L18.7081026,11.3750238 L18.7081026,11.3750238 Z" id="Fill-349" fill="#FFFFFF"></path>
                <path d="M11.1041315,11.0660486 C11.1041315,11.6436295 11.3840966,12.0406836 12.0186492,12.3400471 C12.5046561,12.5686328 12.5799775,12.6362648 12.5799775,12.8435299 C12.5799775,13.127864 12.3655473,13.2561376 11.8903756,13.2561376 C11.5322929,13.2561376 11.199026,13.200564 10.8145546,13.0766594 C10.8145546,13.0766594 10.6572709,14.0818774 10.6499309,14.1292373 C10.9225561,14.1890051 11.1659965,14.2435302 11.8989388,14.2646761 C13.1659469,14.2646761 13.7510425,13.782514 13.7510425,12.7400721 C13.7510425,12.1130342 13.5060294,11.7453397 12.9046811,11.4692193 C12.4013731,11.2376626 12.3435276,11.186458 12.3435276,10.9732511 C12.3435276,10.7266652 12.5431032,10.5997896 12.9312446,10.5997896 C13.1664712,10.5997896 13.4885534,10.6260035 13.7936839,10.6689944 L13.9645989,9.61117373 C13.6537014,9.56206624 13.1825491,9.5218715 12.9080016,9.5218715 C11.5647982,9.5218715 11.100112,10.2233571 11.1041315,11.0660486" id="Fill-350" fill="#FFFFFF"></path>
                <path d="M35.651409,14.1855099 L34.5158202,14.1855099 L34.5720928,13.7610185 C34.2426707,14.1128099 33.9052096,14.2646761 33.4651646,14.2646761 C32.592764,14.2646761 32.0155326,13.5128597 32.0155326,12.3716786 C32.0155326,10.8544145 32.9104772,9.57552274 33.968997,9.57552274 C34.4345569,9.57552274 34.7870473,9.76566134 35.1154209,10.1976674 L35.3817547,8.57677082 L36.5657519,8.57677082 L35.651409,14.1855099 L35.651409,14.1855099 Z M33.880219,13.1315339 C34.4396249,13.1315339 34.8321353,12.4980299 34.8321353,11.594522 C34.8321353,11.014844 34.6086176,10.6999269 34.1960099,10.6999269 C33.6514585,10.6999269 33.26489,11.3357028 33.26489,12.2327446 C33.26489,12.8297239 33.4719802,13.1315339 33.880219,13.1315339 L33.880219,13.1315339 Z" id="Fill-351" fill="#FFFFFF"></path>
                <path d="M30.3785581,9.62410595 C30.2284395,11.0359899 29.9614066,12.4658741 29.7525687,13.8788066 L29.6978689,14.1855099 L30.8986431,14.1855099 C31.3282025,11.395995 31.4314855,10.8516184 32.1053591,10.9195999 C32.2124868,10.3486598 32.4122372,9.84867221 32.5609577,9.59666867 C32.0581739,9.49181282 31.777335,9.77597216 31.409291,10.3159798 C31.4386507,10.082326 31.4916029,9.8556626 31.4816416,9.62410595 L30.3785581,9.62410595" id="Fill-352" fill="#FFFFFF"></path>
                <path d="M20.4960695,9.62410595 C20.3452518,11.0359899 20.0778694,12.4658741 19.8693811,13.8788066 L19.814856,14.1855099 L21.0159797,14.1855099 C21.4457139,11.395995 21.5486474,10.8516184 22.2214724,10.9195999 C22.3292992,10.3486598 22.5293991,9.84867221 22.6777701,9.59666867 C22.1755106,9.49181282 21.8941474,9.77597216 21.5268024,10.3159798 C21.5558126,10.082326 21.6091143,9.8556626 21.5986287,9.62410595 L20.4960695,9.62410595" id="Fill-353" fill="#FFFFFF"></path>
            </g>
        </g>
    </g>
</svg>