<?xml version="1.0" encoding="UTF-8"?>
<svg width="57px" height="34px" viewBox="0 0 57 34" version="1.1" xmlns="http://www.w3.org/2000/svg" xmlns:xlink="http://www.w3.org/1999/xlink">
    <title>icons/payment/color/ visa </title>
    <g id="Icons" stroke="none" stroke-width="1" fill="none" fill-rule="evenodd">
        <g id="Visa-dark">
            <rect id="Rectangle" fill="#26337A" x="0" y="0" width="57" height="34" rx="4"></rect>
            <g id="Group" transform="translate(11.000000, 11.000000)">
                <polyline id="Fill-3" fill="#FFFFFE" points="12.1212716 10.9968451 13.8636227 0.188197183 16.6487084 0.188197183 14.9065166 10.9968451 12.1212716 10.9968451"></polyline>
                <path d="M25.0089037,0.453492958 C24.4582264,0.23656338 23.5921482,-8.8817842e-15 22.5132541,-8.8817842e-15 C19.7597084,-8.8817842e-15 17.8214264,1.46678873 17.8053378,3.56712676 C17.7878155,5.12075117 19.1884823,5.98719249 20.2444382,6.50357746 C21.3297041,7.03289202 21.6943267,7.37161502 21.6900258,7.84490141 C21.682539,8.56879812 20.8237883,8.90049765 20.0230204,8.90049765 C18.9079667,8.90049765 18.3155545,8.73720188 17.3996175,8.33367136 L17.0413667,8.16159624 L16.6518943,10.5810235 C17.3013335,10.8820751 18.505273,11.1433803 19.7547704,11.157108 C22.6811493,11.157108 24.5826346,9.70803756 24.6049356,7.46515493 C24.6149711,6.23317371 23.8728232,5.29937089 22.2655528,4.52838498 C21.2922702,4.02716432 20.69492,3.69514554 20.7017696,3.18785915 C20.7024068,2.73867606 21.2064111,2.2577277 22.2972522,2.2577277 C23.2082512,2.24304225 23.8677258,2.45342723 24.3816063,2.67307042 L24.6316969,2.79661972 L25.0089037,0.453492958" id="Fill-4" fill="#FFFFFE"></path>
                <path d="M28.7174132,7.16474178 C28.9482293,6.54348357 29.8268917,4.14353052 29.8268917,4.14353052 C29.8106438,4.17210329 30.0564335,3.51748357 30.1970896,3.11235681 L30.3850558,4.04456338 C30.3850558,4.04456338 30.9194851,6.62441315 31.0295568,7.16474178 L28.7174132,7.16474178 L28.7174132,7.16474178 Z M32.1533717,0.199211268 L30.0009994,0.199211268 C29.3334008,0.199211268 28.8336974,0.390441315 28.5412347,1.0951831 L24.4051817,11.0006761 L27.3304456,11.0006761 C27.3304456,11.0006761 27.8076886,9.66813146 27.9160081,9.37569953 C28.2350728,9.37569953 31.0775041,9.38128638 31.4832244,9.38128638 C31.5666942,9.75847887 31.8223601,11.0006761 31.8223601,11.0006761 L34.4073733,11.0006761 L32.1533717,0.199211268 L32.1533717,0.199211268 Z" id="Fill-5" fill="#FFFFFE"></path>
                <path d="M9.78475607,0.197295775 L7.0587682,7.56619718 L6.76678341,6.06828169 C6.25879677,4.34242254 4.67749124,2.47178404 2.90869739,1.53446948 L5.40259478,10.9874272 L8.35015975,10.9856714 L12.7361441,0.197295775 L9.78475607,0.197295775" id="Fill-6" fill="#FFFFFE"></path>
                <path d="M4.52823333,0.189953052 L0.0369560676,0.189953052 L-2.48689958e-14,0.413906103 C3.49473779,1.30923944 5.80704071,3.47039437 6.76678341,6.06828169 L5.79079278,1.10188732 C5.62241966,0.416938967 5.13307035,0.213896714 4.52823333,0.189953052" id="Fill-7" fill="#EC982D"></path>
            </g>
        </g>
    </g>
</svg>