<?xml version="1.0" encoding="UTF-8"?>
<svg width="50px" height="50px" viewBox="0 0 50 50" version="1.1" xmlns="http://www.w3.org/2000/svg" xmlns:xlink="http://www.w3.org/1999/xlink">
    <title>icons/account/account-details</title>
    <g id="Icons" stroke="none" stroke-width="1" fill="none" fill-rule="evenodd">
        <g id="icons/account/account-details" fill="#585858">
            <path d="M14.6298938,23.3098038 C15.1024668,23.2941098 15.4914016,23.4402942 15.8468367,23.7545692 C18.0528993,25.7044706 20.5739941,26.8445216 23.4115612,27.128715 C23.7374659,27.1613627 24.0598617,27.1851717 24.3756403,27.2000874 L24.843957,27.2157841 L25.5602374,27.2144741 C28.8903811,27.1358983 31.8101317,26.0308148 34.3096192,23.8536319 C34.6272695,23.5768863 34.9424969,23.4070201 35.3319464,23.338641 L35.5036209,23.3155334 L35.8082035,23.3127589 C39.0828879,23.5229996 41.5949457,25.0590989 43.3351835,27.8291732 C44.5852135,29.8189187 45.3053314,32.0480157 45.8146347,35.0301269 C46.2325486,37.4757334 46.3811669,39.83015 46.237819,42.1104855 C46.0504108,45.0926677 44.6757792,47.4745252 42.1418147,49.1135664 C41.3994833,49.5936744 40.550603,49.8592725 39.5704828,49.9489445 L39.2724848,49.9706069 L38.7884166,49.9830549 L25.0892901,49.9812274 L16.2705675,49.9646391 L11.8631844,49.9989155 C8.97184546,50.042844 6.85905398,48.751717 5.31261722,46.2210067 C4.42326735,44.7659056 4.00211985,43.1273299 4.0000253,41.2980536 C3.99659392,37.725523 4.34198042,34.7241169 5.17750851,31.9031859 C5.84235083,29.658023 6.59140181,28.0517337 7.75482114,26.6784543 C9.35329376,24.7915432 11.3410707,23.6747026 13.7195406,23.3806546 L14.0462992,23.345662 L14.6298938,23.3098038 Z M14.0804173,26.9274419 L14.016182,26.9361506 C12.6153612,27.1401084 11.474728,27.8005958 10.473912,28.9820054 C9.7010408,29.8942888 9.14237774,31.0649258 8.59446512,32.9152187 C7.88217003,35.3200874 7.56050843,37.9704809 7.56365881,41.2941634 C7.56509728,42.4983496 7.82283203,43.4945789 8.35347361,44.362783 C9.23578121,45.8066603 10.1651593,46.4042806 11.6031061,46.4350432 L11.8120365,46.4356119 L15.3904127,46.4027673 L23.798634,46.4163927 L38.7913807,46.4193779 C39.4529391,46.4200019 39.9025957,46.3177349 40.206348,46.1212811 C41.77838,45.1044455 42.5636464,43.7568896 42.6811606,41.8869144 C42.8053692,39.9110408 42.6783105,37.8332729 42.3018268,35.630113 C41.8536106,33.0056838 41.2575823,31.2211807 40.3175777,29.7249206 C39.3102091,28.1214122 38.0404899,27.2370338 36.3324722,26.9540837 L36.179437,26.9313635 L36.0462328,27.0449123 C32.7158359,29.7052799 28.756137,30.9506801 24.3055543,30.7637583 L23.8588649,30.7402911 L23.0564112,30.6746523 C19.8841841,30.3569414 16.9848146,29.1857084 14.4239196,27.2010926 L14.0804173,26.9274419 Z M25.1836021,0 C32.1067952,0.0424222218 38.1597956,5.75119961 38.4516253,12.5601716 L38.4606684,12.8568933 L38.4574382,13.3865727 C38.6509429,20.1714369 32.8732625,26.2451134 25.9573341,26.705306 L25.6559391,26.7217622 L25.1120477,26.7328122 C17.9438885,26.7212242 11.7677965,20.5093532 11.7669136,13.354034 C11.7659289,6.49567827 17.4834939,0.463698459 24.324825,0.0249484167 L24.627363,0.00923578294 L25.1836021,0 Z M25.1617503,3.56344008 L24.9023966,3.56572132 C19.8107972,3.68604381 15.3298572,8.23690363 15.3305919,13.3535844 C15.3312332,18.5512105 19.9234359,23.160742 25.1178173,23.1691627 C30.1287897,23.1772559 34.6011174,18.9708524 34.884126,14.0793332 L34.8951332,13.8212713 L34.8959379,12.8490012 C34.7659856,7.90765021 30.2617982,3.59485335 25.1617503,3.56344008 Z" id="user-icon"></path>
        </g>
    </g>
</svg>