<?xml version="1.0" encoding="UTF-8"?>
<svg width="50px" height="50px" viewBox="0 0 50 50" version="1.1" xmlns="http://www.w3.org/2000/svg" xmlns:xlink="http://www.w3.org/1999/xlink">
    <title>icons/account/billing</title>
    <g id="Icons" stroke="none" stroke-width="1" fill="none" fill-rule="evenodd">
        <g id="icons/account/billing" fill="#585858">
            <path d="M44.6428571,5 C47.6015254,5 50,7.39847455 50,10.3571429 L50,10.3571429 L50,38.9285714 C50,41.8872397 47.6015254,44.2857143 44.6428571,44.2857143 L44.6428571,44.2857143 L5.35714286,44.2857143 C2.39847455,44.2857143 0,41.8872397 0,38.9285714 L0,38.9285714 L0,10.3571429 C0,7.39847455 2.39847455,5 5.35714286,5 L5.35714286,5 Z M46.428,24.642 L3.571,24.642 L3.57142857,38.9285714 C3.57142857,39.8654831 4.29296967,40.6338697 5.21068652,40.7083661 L5.35714286,40.7142857 L44.6428571,40.7142857 C45.6290799,40.7142857 46.4285714,39.9147942 46.4285714,38.9285714 L46.4285714,38.9285714 L46.428,24.642 Z M16.0714286,35.3571429 L16.0714286,38.9285714 L5.35714286,38.9285714 L5.35714286,35.3571429 L16.0714286,35.3571429 Z M33.9285714,35.3571429 L33.9285714,38.9285714 L19.6428571,38.9285714 L19.6428571,35.3571429 L33.9285714,35.3571429 Z M44.6428571,8.57142857 L5.35714286,8.57142857 C4.37092009,8.57142857 3.57142857,9.37092009 3.57142857,10.3571429 L3.57142857,10.3571429 L3.571,13.928 L46.428,13.928 L46.4285714,10.3571429 C46.4285714,9.42023123 45.7070303,8.65184455 44.7893135,8.57734816 L44.6428571,8.57142857 Z" id="Combined-Shape"></path>
        </g>
    </g>
</svg>