<?xml version="1.0" encoding="UTF-8"?>
<svg width="50px" height="50px" viewBox="0 0 50 50" version="1.1" xmlns="http://www.w3.org/2000/svg" xmlns:xlink="http://www.w3.org/1999/xlink">
    <title>icons/account/change-password</title>
    <g id="Icons" stroke="none" stroke-width="1" fill="none" fill-rule="evenodd">
        <g id="icons/account/change-password" fill="#585858">
            <path d="M25.4102564,0 C32.372889,0 37.8461538,7.04112722 37.8461538,15.5208333 L37.8461538,15.5208333 L37.8433333,20.4166667 L40.9230769,20.4166667 C44.0285753,20.4166667 46.5560627,22.8697499 46.8010476,25.9646031 L46.8010476,25.9646031 L46.8205128,26.4583333 L46.8205128,43.9583333 C46.8205128,47.2819022 44.1920226,50 40.9230769,50 L40.9230769,50 L9.8974359,50 C6.6284902,50 4,47.2819022 4,43.9583333 L4,43.9583333 L4,26.4583333 C4,23.1347645 6.6284902,20.4166667 9.8974359,20.4166667 L9.8974359,20.4166667 L12.9733333,20.4166667 L12.974359,15.5208333 C12.974359,7.29808802 18.1209368,0.428055992 24.7815036,0.0192411455 L24.7815036,0.0192411455 Z M37.1025045,23.75 L15,23.75 L15,23.749 L9.8974359,23.75 C8.54885065,23.75 7.42304161,24.860552 7.33843587,26.2858391 L7.33333333,26.4583333 L7.33333333,43.9583333 C7.33333333,45.4654936 8.49490724,46.6666667 9.8974359,46.6666667 L9.8974359,46.6666667 L40.9230769,46.6666667 C42.3256056,46.6666667 43.4871795,45.4654936 43.4871795,43.9583333 L43.4871795,43.9583333 L43.4871795,26.4583333 C43.4871795,24.951173 42.3256056,23.75 40.9230769,23.75 L40.9230769,23.75 L37.102,23.749 L37.1025045,23.75 Z M25.4102564,3.33333333 C20.498395,3.33333333 16.3076923,8.72449778 16.3076923,15.5208333 L16.3076923,15.5208333 L16.307,20.5 L34.512,20.5 L34.5128205,15.5208333 C34.5128205,8.83411609 30.4562116,3.50760741 25.6473497,3.33752407 Z" id="Combined-Shape"></path>
        </g>
    </g>
</svg>