<?xml version="1.0" encoding="UTF-8"?>
<svg width="50px" height="50px" viewBox="0 0 50 50" version="1.1" xmlns="http://www.w3.org/2000/svg" xmlns:xlink="http://www.w3.org/1999/xlink">
    <title>icons/account/leave-review</title>
    <g id="Icons" stroke="none" stroke-width="1" fill="none" fill-rule="evenodd">
        <g id="icons/account/leave-review" fill="#585858">
            <path d="M16.5763101,15.3853128 L1.60707642,17.6741544 L1.27237545,17.7555167 C-3.55271368e-15,18.1875512 -0.452565169,19.8466762 0.539411332,20.8633751 L11.421264,32.0184241 L8.85291222,47.8009904 L8.82686994,48.1281939 C8.83365562,49.5151781 10.3509536,50.4689669 11.6335096,49.7599874 L24.9957987,42.3663284 L38.3664903,49.7599874 L38.6658374,49.8946411 C39.9741806,50.3550857 41.3830154,49.2473444 41.1470876,47.8009904 L38.5745346,32.0184241 L49.4605887,20.8633751 L49.6788425,20.5968984 C50.4343454,19.4861112 49.7970846,17.8886911 48.3929236,17.6741544 L33.4194885,15.3853128 L26.7114531,1.08729137 C26.0309907,-0.362430449 23.9690093,-0.36243046 23.2885469,1.08729135 L16.5763101,15.3853128 Z M25,6.33982443 L30.4291194,17.9068717 L30.6204517,18.2277165 C30.9144562,18.6252899 31.356428,18.896296 31.8550276,18.9724752 L44.1833256,20.8554596 L35.2004793,30.0643999 L34.9769629,30.3414397 C34.7167851,30.7346472 34.6104625,31.2152835 34.687747,31.6890754 L36.7889645,44.5678314 L25.914655,38.5563115 L25.5604822,38.4052861 C25.073965,38.2542606 24.540691,38.3046024 24.085345,38.5563115 L13.2068342,44.5678314 L15.312253,31.6890754 L15.3362549,31.3339212 C15.3235953,30.8625992 15.1347667,30.4080011 14.7995207,30.0643999 L5.81247304,20.8554596 L18.1449722,18.9724752 C18.7682217,18.8772511 19.3029902,18.4776103 19.5708803,17.9068717 L25,6.33982443 Z" id="Star-1"></path>
        </g>
    </g>
</svg>