<?xml version="1.0" encoding="UTF-8"?>
<svg width="50px" height="50px" viewBox="0 0 50 50" version="1.1" xmlns="http://www.w3.org/2000/svg" xmlns:xlink="http://www.w3.org/1999/xlink">
    <title>icons/account/my-units</title>
    <g id="Icons" stroke="none" stroke-width="1" fill="none" fill-rule="evenodd">
        <g id="icons/account/my-units" fill="#585858">
            <path d="M31.6104943,0 C41.7904233,0 50,8.20954448 50,18.3895057 C50,28.545685 41.7667743,36.7788462 31.6105769,36.7788462 C31.2254179,36.7788462 30.8414025,36.7668444 30.4307692,36.7384615 L30.4307692,36.7384615 L29.7885055,37.4665553 C28.9588182,38.3999606 27.8594555,39.0338351 26.6592098,39.2924092 L26.6592098,39.2924092 L26.1769231,39.3692308 L26.1781006,39.4128012 C25.9258239,42.2088504 23.699235,44.4354393 20.8884615,44.6846154 C20.6373624,47.4973119 18.4107735,49.7239008 15.6147242,49.9761776 L15.6147242,49.9761776 L15.0841346,50 L5.82932692,50 C2.60986484,50 0,47.3901352 0,44.1706731 L0,44.1706731 L0,37.7204853 C0,36.174592 0.614095044,34.6919746 1.70733419,33.5984925 L1.70733419,33.5984925 L13.5346154,21.7692308 L13.3707224,20.7401234 C13.3210721,20.3524913 13.28368,19.9624855 13.2587004,19.5705531 L13.2587004,19.5705531 L13.2211538,18.3894231 C13.2211538,8.23322573 21.454315,0 31.6104943,0 Z M31.6104943,3.84615385 C23.5784781,3.84615385 17.0673077,10.3574069 17.0673077,18.3894231 C17.0673077,19.9818284 17.3241286,21.5140775 17.7970328,22.9480769 L17.7970328,22.9480769 L4.42697566,36.318134 C4.05513071,36.6900616 3.84615385,37.1945312 3.84615385,37.7204853 L3.84615385,37.7204853 L3.84615385,44.1706731 C3.84615385,45.265963 4.73403696,46.1538462 5.82932692,46.1538462 L5.82932692,46.1538462 L15.0841346,46.1538462 C16.1794246,46.1538462 17.0673077,45.265963 17.0673077,44.1706731 L17.0673077,44.1706731 L17.0673077,40.8653846 L20.3725962,40.8653846 C21.4678861,40.8653846 22.3557692,39.9775015 22.3557692,38.8822115 L22.3557692,38.8822115 L22.3557692,35.5769231 L25.431588,35.5769231 C25.9980611,35.5769435 26.537502,35.3347093 26.9138447,34.9113206 L26.9138447,34.9113206 L28.8980093,32.6790941 C29.7769681,32.8449369 30.6834435,32.9326923 31.6105769,32.9326923 C39.6425931,32.9326923 46.1538462,26.4215219 46.1538462,18.3895057 C46.1538462,10.3336914 39.666226,3.84615385 31.6104943,3.84615385 Z M36,10 C38.2091667,10 40,11.7908333 40,14 C40,16.2091667 38.2091667,18 36,18 C33.7908333,18 32,16.2091667 32,14 C32,11.7908333 33.7908333,10 36,10 Z" id="Combined-Shape"></path>
        </g>
    </g>
</svg>