<?xml version="1.0" encoding="UTF-8"?>
<svg width="50px" height="50px" viewBox="0 0 50 50" version="1.1" xmlns="http://www.w3.org/2000/svg" xmlns:xlink="http://www.w3.org/1999/xlink">
    <title>icons/social/blue/instagram</title>
    <g id="Icons" stroke="none" stroke-width="1" fill="none" fill-rule="evenodd">
        <g id="icons/social/blue/instagram" fill="#1B3C92">
            <path d="M15.76,3 L34.24,3 C41.28,3 47,8.72 47,15.76 L47,34.24 C47,41.28 41.28,47 34.24,47 L15.76,47 C8.72,47 3,41.28 3,34.24 L3,15.76 C3,8.72 8.72,3 15.76,3 L15.76,3 Z M15.32,7.4 C10.942,7.4 7.4,10.942 7.4,15.32 L7.4,34.68 C7.4,39.058 10.942,42.6 15.32,42.6 L34.68,42.6 C39.058,42.6 42.6,39.058 42.6,34.68 L42.6,15.32 C42.6,10.942 39.058,7.4 34.68,7.4 L15.32,7.4 L15.32,7.4 Z M36.55,10.7 C38.068,10.7 39.3,11.932 39.3,13.45 C39.3,14.968 38.068,16.2 36.55,16.2 C35.032,16.2 33.8,14.968 33.8,13.45 C33.8,11.932 35.032,10.7 36.55,10.7 L36.55,10.7 Z M25,14 C31.072,14 36,18.928 36,25 C36,31.072 31.072,36 25,36 C18.928,36 14,31.072 14,25 C14,18.928 18.928,14 25,14 L25,14 Z M25,18.4 C21.348,18.4 18.4,21.348 18.4,25 C18.4,28.652 21.348,31.6 25,31.6 C28.652,31.6 31.6,28.652 31.6,25 C31.6,21.348 28.652,18.4 25,18.4 Z" id="instagram"></path>
        </g>
    </g>
</svg>