<?xml version="1.0" encoding="UTF-8"?>
<svg width="50px" height="50px" viewBox="0 0 50 50" version="1.1" xmlns="http://www.w3.org/2000/svg" xmlns:xlink="http://www.w3.org/1999/xlink">
    <title>icons/social/blue/pinterest</title>
    <g id="Icons" stroke="none" stroke-width="1" fill="none" fill-rule="evenodd">
        <g id="icons/social/blue/pinterest" fill="#1B3C92">
            <path d="M21.6401024,32.7468067 C20.3649176,39.3549315 18.8075994,45.6904177 14.1944024,49 C12.7706241,39.0117333 16.2858803,31.5108133 17.9179808,23.5471758 C15.1354946,18.9171205 18.252559,9.59749021 24.122488,11.894278 C31.3448122,14.7190629 17.8674784,29.1093861 26.9146862,30.9074565 C36.361057,32.7832865 40.2176897,14.706583 34.3599006,8.82757432 C25.8968693,0.339299608 9.72397168,8.63413535 11.712988,20.7871905 C12.1966453,23.7588547 15.3020553,24.6598099 12.9536952,28.760428 C7.53731628,27.5733943 5.92026932,23.3508568 6.12859159,17.7204869 C6.46365537,8.50597604 14.5051862,2.05385046 22.570997,1.16153522 C32.7715041,0.0325812439 42.3451019,4.86279547 43.6669043,14.3475449 C45.1557529,25.0529278 39.0634192,36.6477459 28.1553934,35.8135104 C25.1990625,35.5864716 23.9573841,34.1387993 21.6401024,32.7468067 Z" id="pinterest"></path>
        </g>
    </g>
</svg>