<?xml version="1.0" encoding="UTF-8"?>
<svg width="50px" height="50px" viewBox="0 0 50 50" version="1.1" xmlns="http://www.w3.org/2000/svg" xmlns:xlink="http://www.w3.org/1999/xlink">
    <title>icons/social/blue/twitter</title>
    <g id="Icons" stroke="none" stroke-width="1" fill="none" fill-rule="evenodd">
        <g id="icons/social/blue/twitter" fill="#1B3C92">
            <path d="M45.9,12 C44.3614723,12.7 42.7030593,13.16 40.9847036,13.38 C42.743021,12.32 44.1017208,10.64 44.741109,8.62 C43.082696,9.62 41.2444551,10.32 39.3063098,10.72 C37.7278203,9 35.5099426,8 32.9923518,8 C28.2968451,8 24.4605163,11.84 24.4605163,16.58 C24.4605163,17.26 24.5404398,17.92 24.6803059,18.54 C17.5671128,18.18 11.233174,14.76 7.01720841,9.58 C6.27791587,10.84 5.8583174,12.32 5.8583174,13.88 C5.8583174,16.86 7.35688337,19.5 9.67466539,21 C8.25602294,21 6.93728489,20.6 5.77839388,20 C5.77839388,20 5.77839388,20 5.77839388,20.06 C5.77839388,24.22 8.73556405,27.7 12.6518164,28.48 C11.9325048,28.68 11.1732314,28.78 10.3939771,28.78 C9.85449331,28.78 9.31500956,28.72 8.79550669,28.62 C9.87447419,32 13.0114723,34.52 16.7878585,34.58 C13.8706501,36.9 10.1741874,38.26 6.13804971,38.26 C5.45869981,38.26 4.7793499,38.22 4.1,38.14 C7.89636711,40.58 12.4120459,42 17.2474187,42 C32.9923518,42 41.6440727,28.92 41.6440727,17.58 C41.6440727,17.2 41.6440727,16.84 41.6240918,16.46 C43.3024857,15.26 44.741109,13.74 45.9,12 Z" id="twitter"></path>
        </g>
    </g>
</svg>