<?xml version="1.0" encoding="UTF-8"?>
<svg width="50px" height="50px" viewBox="0 0 50 50" version="1.1" xmlns="http://www.w3.org/2000/svg" xmlns:xlink="http://www.w3.org/1999/xlink">
    <title>icons/features/1dollar</title>
    <g id="Icons" stroke="none" stroke-width="1" fill="none" fill-rule="evenodd">
        <g id="icons/features/1dollar">
            <circle id="Oval-Copy-3" fill="#377D21" cx="25" cy="25" r="25"></circle>
            <path d="M13,25.3104552 L13,15.3437511 C13,14.0493169 14.0493169,13 15.3437511,13 L25.3104552,13 C25.9320554,13 26.5281953,13.2469356 26.9677314,13.6864749 L37.3135373,24.0322808 C38.2288209,24.9475644 38.2288209,26.4315495 37.3135373,27.3468332 L27.3468332,37.3135373 C26.4315495,38.2288209 24.9475644,38.2288209 24.0322808,37.3135373 L13.6864749,26.9677314 C13.2469356,26.5281953 13,25.9320554 13,25.3104552 Z M18.4687527,16.1250015 C17.1743184,16.1250015 16.1250015,17.1743184 16.1250015,18.4687527 C16.1250015,19.7631869 17.1743184,20.8125038 18.4687527,20.8125038 C19.7631869,20.8125038 20.8125038,19.7631869 20.8125038,18.4687527 C20.8125038,17.1743184 19.7631869,16.1250015 18.4687527,16.1250015 Z" id="Shape" fill="#FFFFFF" fill-rule="nonzero"></path>
        </g>
    </g>
</svg>