<?xml version="1.0" encoding="UTF-8"?>
<svg width="50px" height="50px" viewBox="0 0 50 50" version="1.1" xmlns="http://www.w3.org/2000/svg" xmlns:xlink="http://www.w3.org/1999/xlink">
    <title>icons/features/climate-control</title>
    <g id="Icons" stroke="none" stroke-width="1" fill="none" fill-rule="evenodd">
        <g id="icons/features/climate-control">
            <circle id="Oval" fill="#1B3C92" cx="25" cy="25" r="25"></circle>
            <path d="M36.587333,29.878125 L34.7767709,28.8117188 L36.169511,28.4289063 C36.6087598,28.3085938 36.8712378,27.84375 36.7533905,27.3953125 L36.5391228,26.5804688 C36.4212756,26.1320313 35.9659567,25.8640625 35.5267079,25.984375 L31.7341694,27.0234375 L28.3112427,25 L31.7288127,22.9820313 L35.5213512,24.0210938 C35.9606,24.1414063 36.4159189,23.8734375 36.5337661,23.425 L36.7480338,22.6101563 C36.8658811,22.1617188 36.6034031,21.696875 36.1641543,21.5765625 L34.7714142,21.19375 L36.5819764,20.1273438 C36.9783716,19.8921875 37.1122889,19.378125 36.8873078,18.9734375 L36.0570205,17.5078125 C35.8266827,17.103125 35.3231536,16.9664062 34.9267583,17.1960937 L33.1161961,18.2625 L33.4911646,16.840625 C33.6090119,16.3921875 33.3465339,15.9273438 32.9072851,15.8070313 L32.1091379,15.5882813 C31.6698891,15.4679688 31.2145702,15.7359375 31.096723,16.184375 L30.0789513,20.05625 L26.7149483,22.0359375 L26.7149483,17.7976563 L29.5914923,14.8609375 C29.9236073,14.521875 29.9236073,13.9640625 29.5914923,13.625 L28.986186,13.0070313 C28.6540711,12.6679688 28.1076884,12.6679688 27.7755735,13.0070313 L26.7149483,14.084375 L26.7149483,11.875 C26.7149483,11.39375 26.3292664,11 25.8578774,11 L24.1437358,11 C23.6723468,11 23.2866649,11.39375 23.2866649,11.875 L23.2866649,14.084375 L22.2313964,13.0070313 C21.8992815,12.6679688 21.3528988,12.6679688 21.0207839,13.0070313 L20.4101209,13.625 C20.0726493,13.9640625 20.0726493,14.521875 20.4101209,14.8609375 L23.2866649,17.7976562 L23.2866649,22.0359375 L19.9226619,20.05625 L18.9048902,16.184375 C18.787043,15.7359375 18.3317241,15.4679688 17.8924753,15.5882813 L17.0943281,15.8070313 C16.6550793,15.9273438 16.3926013,16.3921875 16.5104486,16.840625 L16.8854171,18.2625 L15.0748549,17.1960938 C14.6784597,16.9609375 14.1749305,17.103125 13.9445927,17.5078125 L13.1143054,18.9679687 C12.8839676,19.3726562 13.0232416,19.8867188 13.4196369,20.121875 L15.230199,21.1882812 L13.8374589,21.5710937 C13.3928534,21.6914062 13.1303754,22.15625 13.2482227,22.6101562 L13.4624904,23.425 C13.5803376,23.8734375 14.0356565,24.1414062 14.4749053,24.0210937 L18.2674438,22.9820312 L21.6850138,25 L18.2674438,27.0179687 L14.4749053,25.9789062 C14.0356565,25.8585937 13.5803376,26.1265625 13.4624904,26.575 L13.2482227,27.3898437 C13.1303754,27.8382812 13.3928534,28.303125 13.8321022,28.4234375 L15.2248423,28.80625 L13.4142802,29.878125 C13.0178849,30.1132812 12.8839676,30.6273437 13.1089487,31.0320312 L13.9392361,32.4976562 C14.1695738,32.9023438 14.673103,33.0390625 15.0694982,32.809375 L16.8800604,31.7429687 L16.5050919,33.1648437 C16.3872446,33.6132812 16.6497226,34.078125 17.0889714,34.1984375 L17.8871186,34.4171875 C18.3263674,34.5375 18.7816863,34.2695312 18.8995335,33.8210937 L19.9173052,29.9492187 L23.2813082,27.9695312 L23.2813082,32.2078125 L20.4047642,35.1445312 C20.0672926,35.4835937 20.0672926,36.0414062 20.4047642,36.3804687 L21.0100705,36.9984375 C21.3421854,37.3375 21.8885681,37.3375 22.2206831,36.9984375 L23.2759515,35.9210937 L23.2759515,38.125 C23.2759515,38.60625 23.6616334,39 24.1330224,39 L25.8471641,39 C26.318553,39 26.7042349,38.60625 26.7042349,38.125 L26.7042349,35.915625 L27.7595034,36.9929688 C28.0916183,37.3320312 28.638001,37.3320312 28.9701159,36.9929688 L29.5754222,36.375 C29.9075372,36.0359375 29.9075372,35.478125 29.5754222,35.1390625 L26.7149483,32.2023437 L26.7149483,27.9640625 L30.0789513,29.94375 L31.096723,33.815625 C31.2145702,34.2640625 31.6698891,34.5320313 32.1091379,34.4117187 L32.9072851,34.1929687 C33.3465339,34.0726562 33.6090119,33.6078125 33.4911646,33.159375 L33.1161961,31.7375 L34.9267583,32.8039062 C35.3231536,33.0390625 35.8266827,32.896875 36.0570205,32.4921875 L36.8873078,31.0265625 C37.1176456,30.6273437 36.9837283,30.1078125 36.587333,29.878125 Z" id="Path" fill="#FFFFFF"></path>
        </g>
    </g>
</svg>