<?xml version="1.0" encoding="UTF-8"?>
<svg width="50px" height="50px" viewBox="0 0 50 50" version="1.1" xmlns="http://www.w3.org/2000/svg" xmlns:xlink="http://www.w3.org/1999/xlink">
    <title>icons/features/drive-up</title>
    <g id="Icons" stroke="none" stroke-width="1" fill="none" fill-rule="evenodd">
        <g id="icons/features/drive-up">
            <circle id="Oval-Copy-5" fill="#4A90E2" cx="25" cy="25" r="25"></circle>
            <path d="M39.8585466,32.7571094 L32.8205589,16.923776 C32.570335,16.3607031 32.0250785,16 31.4249439,16 L26.5115937,16 L26.6349435,17.1459375 C26.660117,17.3794792 26.4733301,17.5833333 26.2341825,17.5833333 L24.7660681,17.5833333 C24.5269205,17.5833333 24.3401336,17.3794792 24.365307,17.1459375 L24.4886568,16 L19.5753067,16 C18.9746686,16 18.4294121,16.3607031 18.1791882,16.923776 L11.1412005,32.7571094 C10.6754921,33.8055729 11.4186117,35 12.5378224,35 L22.4480986,35 L22.9671747,30.166875 C23.010473,29.7641146 23.3558525,29.4583333 23.7681933,29.4583333 L27.2320573,29.4583333 C27.6443981,29.4583333 27.9897776,29.7641146 28.0330759,30.166875 L28.552152,35 L38.4624281,35 C39.5816388,35 40.3247585,33.8055729 39.8585466,32.7571094 Z M24.1105519,19.5209375 C24.1321983,19.3194544 24.305157,19.1665597 24.5113129,19.1666666 L26.4894411,19.1666666 C26.6953598,19.1666666 26.868553,19.3195573 26.8902021,19.5209375 L27.1217977,21.6772396 C27.1595578,22.0280469 26.8796293,22.3333333 26.5211596,22.3333333 L24.4800979,22.3333333 C24.1211248,22.3333333 23.8416997,22.0280469 23.8794598,21.6772396 L24.1105519,19.5209375 L24.1105519,19.5209375 Z M26.8917125,27.875 L24.1080346,27.875 C23.6297394,27.875 23.2566692,27.4677865 23.307016,27.0002083 L23.5622746,24.6252083 C23.6055729,24.2224479 23.9509524,23.9166667 24.3632932,23.9166667 L26.6364539,23.9166667 C27.0487947,23.9166667 27.3941742,24.2224479 27.4374725,24.6252083 L27.6927311,27.0002083 C27.7430779,27.4677865 27.3700077,27.875 26.8917125,27.875 L26.8917125,27.875 Z" id="Shape" fill="#FFFFFF" fill-rule="nonzero"></path>
        </g>
    </g>
</svg>