<?xml version="1.0" encoding="UTF-8"?>
<svg width="50px" height="50px" viewBox="0 0 50 50" version="1.1" xmlns="http://www.w3.org/2000/svg" xmlns:xlink="http://www.w3.org/1999/xlink">
    <title>icons/features/parking</title>
    <g id="Icons" stroke="none" stroke-width="1" fill="none" fill-rule="evenodd">
        <g id="icons/features/parking">
            <circle id="Oval-Copy-2" fill="#E1AC1A" cx="25" cy="25" r="25"></circle>
            <path d="M35.3214286,13 L15.6785714,13 C14.1997768,13 13,14.1997768 13,15.6785714 L13,35.3214286 C13,36.8002232 14.1997768,38 15.6785714,38 L35.3214286,38 C36.8002232,38 38,36.8002232 38,35.3214286 L38,15.6785714 C38,14.1997768 36.8002232,13 35.3214286,13 Z M26.3928571,29.0714286 L23.7142857,29.0714286 L23.7142857,31.75 C23.7142857,32.2410714 23.3125,32.6428571 22.8214286,32.6428571 L21.0357143,32.6428571 C20.5446429,32.6428571 20.1428571,32.2410714 20.1428571,31.75 L20.1428571,19.25 C20.1428571,18.7589286 20.5446429,18.3571429 21.0357143,18.3571429 L26.3928571,18.3571429 C29.3448661,18.3571429 31.75,20.7622768 31.75,23.7142857 C31.75,26.6662946 29.3448661,29.0714286 26.3928571,29.0714286 Z M26.3928571,21.9285714 L23.7142857,21.9285714 L23.7142857,25.5 L26.3928571,25.5 C27.375,25.5 28.1785714,24.6964286 28.1785714,23.7142857 C28.1785714,22.7321429 27.375,21.9285714 26.3928571,21.9285714 Z" id="Shape" fill="#FFFFFF" fill-rule="nonzero"></path>
        </g>
    </g>
</svg>