<?xml version="1.0" encoding="UTF-8"?>
<svg width="50px" height="50px" viewBox="0 0 50 50" version="1.1" xmlns="http://www.w3.org/2000/svg" xmlns:xlink="http://www.w3.org/1999/xlink">
    <title>icons/features/wine-storage</title>
    <g id="Icons" stroke="none" stroke-width="1" fill="none" fill-rule="evenodd">
        <g id="icons/features/wine-storage">
            <circle id="Oval-Copy-4" fill="#CE3138" cx="25" cy="25" r="25"></circle>
            <path d="M28.5000535,35.65625 L26.5555793,35.65625 L26.5555793,29.934082 C29.8840329,29.1582031 32.2942086,26.0322266 31.9709398,22.4067383 L31.1955808,13.7104492 C31.159608,13.3081055 30.8285613,13 30.4318885,13 L19.5681115,13 C19.1719249,13 18.840392,13.3081055 18.8049054,13.7104492 L18.0290602,22.4072266 C17.7057914,26.0327148 20.1159671,29.1586914 23.4444207,29.9345703 L23.4444207,35.65625 L21.4999465,35.65625 C20.4261107,35.65625 19.5554724,36.5307617 19.5554724,37.609375 C19.5554724,37.8251953 19.7295028,38 19.9443672,38 L30.0556328,38 C30.2704972,38 30.4445276,37.8251953 30.4445276,37.609375 C30.4445276,36.5307617 29.5738893,35.65625 28.5000535,35.65625 Z M21.001675,15.34375 L28.998325,15.34375 L29.346872,19.25 L20.653128,19.25 L21.001675,15.34375 Z" id="Shape" fill="#FFFFFF" fill-rule="nonzero"></path>
        </g>
    </g>
</svg>